{"glyphs":{"0":{"ha":783,"x_min":68,"x_max":715,"o":"m 391 979 q 621 884 526 979 q 715 655 715 789 l 715 324 q 621 95 715 190 q 391 0 526 0 q 163 95 258 0 q 68 324 68 190 l 68 655 q 163 884 68 789 q 391 979 258 979 m 391 890 q 222 820 293 890 q 153 651 153 749 l 153 328 q 222 159 153 230 q 391 89 293 89 q 560 159 490 89 q 631 328 631 230 l 631 651 q 560 820 631 749 q 391 890 490 890 z "},"1":{"ha":386,"x_min":7,"x_max":284,"o":"m 284 41 q 273 12 284 24 q 243 0 260 0 l 241 0 q 212 12 224 0 q 200 41 200 24 l 200 894 l 48 894 q 19 905 31 894 q 7 935 7 918 l 7 937 q 19 966 7 954 q 48 978 31 978 l 243 978 q 273 966 260 978 q 284 937 284 954 l 284 41 z "},"2":{"ha":749,"x_min":68,"x_max":681,"o":"m 416 978 q 599 903 524 978 q 674 720 674 827 q 600 552 674 628 q 425 425 551 503 q 244 294 293 342 q 157 85 157 210 l 640 85 q 669 73 656 85 q 681 43 681 60 l 681 41 q 669 12 681 24 q 640 0 656 0 l 109 0 q 80 12 92 0 q 68 41 68 24 l 68 105 q 144 305 68 215 q 319 446 199 369 q 500 567 473 545 q 589 720 589 641 q 538 842 589 791 q 416 894 488 894 l 143 894 q 113 905 125 894 q 101 935 101 918 l 101 937 q 113 966 101 954 q 143 978 125 978 l 416 978 z "},"3":{"ha":621,"x_min":47,"x_max":553,"o":"m 279 978 q 462 903 386 978 q 537 720 537 827 q 425 506 537 600 q 553 273 553 408 q 473 80 553 160 q 279 0 393 0 l 89 0 q 60 12 72 0 q 47 41 47 24 l 47 43 q 60 73 47 60 q 89 85 72 85 l 279 85 q 412 140 357 85 q 467 273 467 195 q 412 407 467 351 q 279 463 357 463 l 119 463 q 89 475 101 463 q 77 504 77 486 l 77 505 q 89 535 77 523 q 119 547 101 547 l 279 547 q 401 597 350 547 q 452 720 452 648 q 401 842 452 791 q 279 894 351 894 l 89 894 q 60 905 72 894 q 47 935 47 918 l 47 937 q 60 966 47 954 q 89 978 72 978 l 279 978 z "},"4":{"ha":795,"x_min":78,"x_max":766,"o":"m 119 197 q 90 209 102 197 q 78 238 78 221 l 78 286 q 83 306 78 296 l 471 956 q 507 978 483 978 l 578 978 q 608 966 595 978 q 620 937 620 954 l 620 281 l 725 281 q 755 269 743 281 q 766 239 766 257 l 766 238 q 755 209 766 220 q 725 197 743 197 l 620 197 l 620 41 q 608 12 620 24 q 578 0 595 0 l 576 0 q 547 12 559 0 q 535 41 535 24 l 535 197 l 119 197 m 535 281 l 535 899 l 166 281 l 535 281 z "},"5":{"ha":715,"x_min":81,"x_max":667,"o":"m 123 463 q 94 475 106 463 q 81 504 81 487 l 81 937 q 94 966 81 954 q 123 978 106 978 l 536 978 q 566 966 553 978 q 578 937 578 954 l 578 935 q 566 905 578 918 q 536 894 553 894 l 166 894 l 166 547 l 393 547 q 587 467 507 547 q 667 273 667 387 q 587 80 667 160 q 393 0 507 0 l 123 0 q 94 12 106 0 q 81 41 81 24 l 81 43 q 94 73 81 60 q 123 85 106 85 l 393 85 q 527 140 471 85 q 582 273 582 195 q 527 407 582 351 q 393 463 471 463 l 123 463 z "},"6":{"ha":772,"x_min":68,"x_max":704,"o":"m 153 463 l 153 273 q 208 140 153 195 q 341 85 264 85 l 430 85 q 564 140 508 85 q 618 273 618 195 q 564 407 618 351 q 430 463 508 463 l 153 463 m 341 0 q 148 80 228 0 q 68 273 68 160 l 68 705 q 148 898 68 819 q 341 978 228 978 l 548 978 q 578 966 566 978 q 590 937 590 954 l 590 935 q 578 905 590 918 q 548 894 566 894 l 341 894 q 208 838 264 894 q 153 705 153 783 l 153 547 l 430 547 q 624 467 544 547 q 704 273 704 387 q 624 80 704 160 q 430 0 544 0 l 341 0 z "},"7":{"ha":570,"x_min":7,"x_max":549,"o":"m 278 44 q 267 12 278 24 q 237 0 254 0 l 235 0 q 206 12 218 0 q 194 39 194 24 l 452 894 l 48 894 q 19 905 31 894 q 7 935 7 918 l 7 937 q 19 966 7 954 q 48 978 31 978 l 508 978 q 538 966 526 978 q 549 939 549 954 l 278 44 z "},"8":{"ha":784,"x_min":68,"x_max":716,"o":"m 443 978 q 625 903 550 978 q 701 720 701 827 q 589 506 701 600 q 716 273 716 408 q 636 80 716 160 q 443 0 557 0 l 341 0 q 148 80 228 0 q 68 273 68 160 q 195 506 68 408 q 83 720 83 600 q 159 903 83 827 q 341 978 234 978 l 443 978 m 443 85 q 576 140 521 85 q 631 273 631 195 q 576 407 631 351 q 443 463 522 463 l 341 463 q 208 407 264 463 q 153 273 153 351 q 208 140 153 195 q 341 85 264 85 l 443 85 m 443 547 q 565 597 514 547 q 616 720 616 648 q 565 842 616 791 q 443 894 515 894 l 341 894 q 219 842 269 894 q 168 720 168 791 q 219 597 168 648 q 341 547 270 547 l 443 547 z "},"9":{"ha":772,"x_min":68,"x_max":704,"o":"m 619 515 l 619 705 q 564 838 619 783 q 430 894 508 894 l 341 894 q 208 838 264 894 q 153 705 153 783 q 208 571 153 627 q 341 515 264 515 l 619 515 m 430 978 q 624 898 544 978 q 704 705 704 819 l 704 273 q 624 80 704 160 q 430 0 544 0 l 164 0 q 134 12 146 0 q 123 41 123 24 l 123 43 q 134 73 123 60 q 164 85 146 85 l 430 85 q 564 140 508 85 q 618 273 618 195 l 619 431 l 341 431 q 148 511 228 431 q 68 705 68 591 q 148 898 68 819 q 341 978 228 978 l 430 978 z "},"\u0000":{"ha":95,"x_min":0,"x_max":0,"o":""},"\u001d":{"ha":95,"x_min":0,"x_max":0,"o":""}," ":{"ha":333,"x_min":0,"x_max":0,"o":""}," ":{"ha":333,"x_min":0,"x_max":0,"o":""},"!":{"ha":244,"x_min":68,"x_max":176,"o":"m 164 536 l 143 267 l 100 267 l 79 536 l 79 937 q 92 966 79 954 q 121 978 104 978 l 123 978 q 152 966 140 978 q 164 937 164 954 l 164 536 m 122 0 q 83 16 99 0 q 68 54 68 31 q 83 92 68 77 q 122 108 99 108 q 160 92 144 108 q 176 54 176 76 q 160 16 176 32 q 122 0 144 0 z "},"\"":{"ha":353,"x_min":37,"x_max":316,"o":"m 37 979 l 122 979 l 122 856 l 102 669 l 58 669 l 37 856 l 37 979 m 231 979 l 316 979 l 316 856 l 296 669 l 252 669 l 231 856 l 231 979 z "},"#":{"ha":876,"x_min":10,"x_max":866,"o":"m 219 366 l 267 606 l 98 606 q 74 616 84 606 q 64 640 64 626 l 64 642 q 74 666 64 656 q 98 676 84 676 l 281 676 l 321 876 q 336 897 324 890 q 359 903 348 905 l 360 902 q 385 888 378 899 q 391 861 393 876 l 353 676 l 590 676 l 629 876 q 644 897 633 890 q 669 903 656 905 l 671 902 q 694 888 686 899 q 699 861 701 876 l 661 676 l 832 676 q 856 666 846 676 q 866 642 866 656 l 866 640 q 856 616 866 626 q 832 606 846 606 l 647 606 l 599 366 l 778 366 q 802 356 792 366 q 812 332 812 346 l 812 330 q 802 306 812 316 q 778 296 792 296 l 585 296 l 543 83 q 528 62 540 69 q 504 56 516 54 l 502 57 q 479 72 487 60 q 473 98 471 83 l 513 296 l 276 296 l 234 83 q 220 62 231 69 q 196 56 208 54 l 195 57 q 170 72 178 60 q 165 98 162 83 l 205 296 l 45 296 q 20 306 30 296 q 10 330 10 316 l 10 332 q 20 356 10 346 q 45 366 30 366 l 219 366 m 338 606 l 290 366 l 528 366 l 576 606 l 338 606 z "},"$":{"ha":625,"x_min":41,"x_max":584,"o":"m 336 76 l 336 443 q 288 456 315 448 l 288 76 q 312 74 304 74 q 336 76 320 74 m 248 550 l 248 895 q 156 822 183 863 q 125 719 125 775 q 248 550 125 608 m 376 430 l 376 85 q 468 157 441 117 q 499 260 499 204 q 376 430 499 372 m 376 515 q 519 446 479 486 q 584 260 584 386 q 524 91 584 165 q 376 -3 470 24 l 376 -52 q 370 -81 376 -68 q 357 -93 365 -93 l 356 -93 q 342 -81 348 -93 q 336 -52 336 -68 l 336 -10 q 312 -11 319 -11 q 288 -10 305 -11 l 288 -52 q 282 -81 288 -68 q 269 -93 277 -93 l 268 -93 q 254 -81 260 -93 q 248 -52 248 -68 l 248 -3 q 125 64 173 18 q 52 185 71 115 q 57 216 46 203 q 85 231 68 231 l 100 231 q 134 205 126 231 q 248 85 156 131 l 248 465 q 104 534 144 494 q 41 719 41 594 q 100 888 41 814 q 248 983 153 956 l 248 1047 q 254 1077 248 1065 q 268 1088 260 1088 l 269 1088 q 282 1077 277 1088 q 288 1047 288 1065 l 288 989 q 312 991 305 991 q 336 990 319 991 l 336 1047 q 342 1076 336 1064 q 356 1088 348 1088 l 357 1088 q 370 1076 365 1088 q 376 1047 376 1064 l 376 982 q 499 916 451 962 q 573 794 553 865 q 568 763 578 777 q 539 749 557 749 l 525 749 q 491 774 498 749 q 376 895 468 849 l 376 515 m 336 524 l 336 904 q 312 906 320 906 q 288 904 304 906 l 288 537 q 336 524 309 531 z "},"%":{"ha":943,"x_min":68,"x_max":876,"o":"m 694 978 l 319 0 l 243 0 l 617 978 l 694 978 m 715 278 q 644 248 674 278 q 614 176 614 218 l 614 164 q 644 93 614 123 q 715 62 674 62 q 787 93 758 62 q 817 164 817 122 l 817 176 q 787 248 817 218 q 715 278 758 278 m 715 340 q 829 294 782 340 q 876 180 876 247 l 876 160 q 829 47 876 94 q 715 0 782 0 q 602 47 650 0 q 555 160 555 94 l 555 180 q 602 294 555 247 q 715 340 650 340 m 228 921 q 153 890 184 921 q 121 814 121 858 l 121 802 q 153 726 121 757 q 228 694 183 694 q 303 726 271 694 q 334 802 334 758 l 334 814 q 303 890 334 858 q 228 921 271 921 m 228 978 q 341 931 294 978 q 388 819 388 884 l 388 798 q 341 684 388 731 q 228 637 294 637 q 115 684 161 637 q 68 798 68 731 l 68 819 q 115 931 68 884 q 228 978 161 978 z "},"&":{"ha":828,"x_min":68,"x_max":811,"o":"m 588 463 l 341 463 q 208 407 264 463 q 153 273 153 351 q 208 140 153 195 q 341 85 264 85 l 399 85 q 532 140 476 85 q 587 253 587 195 l 588 253 l 588 463 m 777 538 q 801 528 791 538 q 811 503 811 517 l 811 501 q 801 477 811 487 q 777 467 791 467 l 659 467 l 659 159 q 685 97 659 123 q 747 71 711 71 l 777 71 q 802 61 791 71 q 811 37 811 51 l 811 35 q 802 10 811 20 q 777 0 791 0 l 761 0 q 606 94 671 0 q 399 0 509 0 l 341 0 q 148 80 228 0 q 68 273 68 160 q 195 506 68 408 q 83 720 83 600 q 159 903 83 827 q 341 978 234 978 l 443 978 q 585 937 531 978 l 536 868 q 443 894 505 894 l 341 894 q 219 842 269 894 q 168 713 168 791 q 219 584 168 635 q 341 534 270 534 l 588 534 l 588 707 l 659 734 l 659 538 l 777 538 z "},"'":{"ha":220,"x_min":68,"x_max":153,"o":"m 68 979 l 153 979 l 153 856 l 132 669 l 88 669 l 68 856 l 68 979 z "},"(":{"ha":398,"x_min":68,"x_max":375,"o":"m 323 -278 q 141 -164 213 -253 q 68 41 68 -74 l 68 657 q 141 863 68 772 q 323 977 213 951 q 359 968 343 981 q 375 935 375 956 l 375 930 q 366 903 375 915 q 342 888 357 892 q 203 805 259 870 q 146 653 146 738 l 146 45 q 203 -106 146 -39 q 342 -190 259 -172 q 366 -205 357 -193 q 375 -231 375 -216 l 375 -237 q 359 -271 375 -258 q 323 -278 344 -283 z "},")":{"ha":398,"x_min":23,"x_max":330,"o":"m 74 -278 q 39 -271 54 -282 q 23 -237 23 -258 l 23 -231 q 32 -205 23 -216 q 56 -190 41 -193 q 195 -106 139 -172 q 252 45 252 -39 l 252 653 q 195 805 252 738 q 56 888 139 870 q 32 903 41 892 q 23 930 23 915 l 23 935 q 39 968 23 956 q 74 977 55 981 q 257 863 184 951 q 330 657 330 772 l 330 41 q 257 -164 330 -74 q 74 -278 184 -253 z "},"*":{"ha":581,"x_min":69,"x_max":511,"o":"m 291 864 q 315 854 305 864 q 326 829 326 844 l 326 686 l 463 730 q 489 728 477 734 q 507 706 502 721 l 507 705 q 505 680 511 692 q 484 662 498 667 l 347 618 l 433 502 q 438 475 441 490 q 424 452 436 461 l 422 451 q 397 446 412 444 q 375 459 383 448 l 290 576 l 205 459 q 184 446 197 448 q 161 449 168 444 l 160 450 q 142 475 144 461 q 149 501 140 490 l 233 618 l 96 662 q 76 680 83 667 q 73 705 69 692 l 74 706 q 92 728 79 721 q 118 730 104 734 l 255 686 l 255 829 q 265 854 255 844 q 290 864 275 864 l 291 864 z "},"+":{"ha":700,"x_min":34,"x_max":666,"o":"m 393 532 l 624 532 q 654 519 642 532 q 666 490 666 507 l 666 488 q 654 459 666 471 q 624 447 642 447 l 393 447 l 393 216 q 380 186 393 198 q 351 174 368 174 l 349 174 q 320 186 332 174 q 308 216 308 198 l 308 447 l 75 447 q 46 459 58 447 q 34 488 34 471 l 34 490 q 46 519 34 507 q 75 532 58 532 l 308 532 l 308 764 q 320 793 308 781 q 349 806 332 806 l 351 806 q 380 793 368 806 q 393 764 393 781 l 393 532 z "},",":{"ha":218,"x_min":16,"x_max":161,"o":"m 155 82 q 159 79 157 82 q 159 75 161 77 l 72 -121 q 66 -125 70 -125 l 22 -125 q 17 -123 18 -125 q 16 -118 16 -121 l 69 78 q 74 82 71 82 l 155 82 z "},"-":{"ha":476,"x_min":34,"x_max":442,"o":"m 442 488 q 430 459 442 471 q 400 447 418 447 l 75 447 q 46 459 58 447 q 34 488 34 471 l 34 490 q 46 519 34 507 q 75 532 58 532 l 400 532 q 430 519 418 532 q 442 490 442 507 l 442 488 z "},"­":{"ha":476,"x_min":34,"x_max":442,"o":"m 442 488 q 430 459 442 471 q 400 447 418 447 l 75 447 q 46 459 58 447 q 34 488 34 471 l 34 490 q 46 519 34 507 q 75 532 58 532 l 400 532 q 430 519 418 532 q 442 490 442 507 l 442 488 z "},".":{"ha":1049,"x_min":68,"x_max":973,"o":"m 68 -191 l 68 968 l 973 968 l 973 -191 l 68 -191 m 92 -164 l 949 -164 l 949 948 l 92 948 l 92 -164 m 492 319 l 494 319 l 501 319 l 501 307 q 503 221 503 259 l 498 220 l 494 220 q 492 313 492 268 l 492 315 l 492 319 m 830 319 l 831 319 l 840 319 q 840 310 840 313 q 842 221 840 273 l 834 220 l 831 220 q 829 307 830 259 q 830 319 830 315 m 536 316 l 538 316 q 543 308 538 315 q 541 288 541 296 l 541 275 q 551 236 541 245 l 551 236 q 575 315 566 236 l 576 315 q 585 313 585 313 q 581 254 581 273 q 589 233 581 233 q 591 220 591 222 l 585 220 q 572 241 576 220 l 571 241 q 553 222 564 222 l 549 222 q 531 264 536 222 q 530 279 530 267 l 530 286 q 536 316 530 303 m 742 316 l 746 316 q 765 297 754 316 q 773 267 773 282 l 773 261 q 746 222 773 236 q 736 220 741 220 l 732 220 q 708 249 711 220 l 708 255 q 735 315 708 289 q 742 316 741 316 m 169 313 l 175 313 q 194 286 194 310 q 172 253 194 263 q 153 248 163 250 l 153 223 l 153 223 q 143 225 149 223 l 143 248 l 140 248 l 136 249 q 140 262 136 256 l 143 262 l 143 262 q 139 290 143 290 q 135 297 135 294 q 169 313 147 313 m 718 255 l 718 250 q 735 233 718 235 q 760 252 750 233 q 764 264 764 257 l 764 266 q 746 302 764 284 q 744 303 744 302 q 720 269 732 303 q 718 255 718 262 m 152 295 q 153 263 153 271 q 153 262 153 263 q 178 273 173 266 q 184 286 184 280 q 174 300 184 298 l 170 300 q 152 295 152 298 m 274 297 q 293 264 287 297 q 283 261 292 264 q 274 283 279 283 q 260 233 262 277 q 261 222 261 223 q 251 221 254 221 q 242 280 242 268 q 252 281 250 281 l 252 281 q 254 268 252 278 l 255 268 q 274 297 262 297 m 364 293 q 387 271 378 293 q 388 260 388 265 l 388 258 q 364 222 388 233 q 358 221 361 221 q 340 247 340 224 q 357 291 340 281 q 364 293 358 292 m 416 293 q 441 233 429 293 q 441 228 441 233 q 433 223 436 223 q 418 277 423 265 q 406 230 412 269 q 402 223 405 230 l 397 223 q 391 262 393 223 q 390 277 390 271 q 399 279 395 279 q 401 265 401 267 l 402 265 q 416 293 407 293 m 804 293 q 827 228 814 293 q 819 223 821 223 q 802 277 808 268 q 789 227 798 269 q 787 223 787 223 l 783 223 q 776 277 778 223 q 786 279 780 279 q 787 264 787 266 l 787 264 q 804 293 792 293 m 320 292 q 332 280 332 288 l 332 279 q 326 274 332 278 l 325 274 q 316 279 322 279 q 305 271 307 279 q 325 267 305 268 q 338 244 338 260 q 325 221 338 227 l 319 220 l 316 220 q 293 235 300 220 l 293 236 q 299 243 294 238 l 300 243 q 319 233 308 233 q 328 244 328 236 q 314 254 326 254 q 295 269 295 254 l 295 271 q 320 292 295 292 m 618 292 q 632 279 627 292 l 632 279 q 623 274 625 274 q 615 279 623 278 q 604 272 607 279 l 604 271 q 623 267 604 268 q 636 243 636 261 q 620 220 636 225 l 614 220 q 591 235 599 220 l 591 236 q 597 243 596 243 l 598 243 q 616 233 606 233 q 626 244 626 236 q 615 254 626 252 q 595 262 598 254 q 593 271 593 269 q 618 292 593 292 m 847 291 l 847 291 q 857 290 856 290 q 856 272 856 277 l 856 266 q 865 242 857 242 l 865 242 q 878 288 878 251 l 878 288 l 888 288 l 888 286 q 892 226 892 233 q 872 188 892 195 q 869 188 871 188 l 865 188 q 850 201 853 188 q 849 208 849 204 l 849 208 q 851 218 849 218 l 852 218 q 860 214 858 214 l 859 208 q 865 201 859 202 l 867 201 q 882 230 882 201 q 882 244 882 233 l 881 244 q 863 228 876 228 l 863 228 q 846 260 850 228 l 846 271 q 847 291 846 278 m 224 290 q 240 275 240 288 l 240 271 q 214 247 240 258 l 207 247 q 218 236 207 239 q 233 248 226 236 l 235 248 q 241 238 241 240 q 220 223 229 223 l 216 223 q 195 254 198 223 q 217 290 195 281 l 224 290 m 462 290 l 469 290 q 488 260 488 284 q 487 236 487 245 q 488 225 487 236 q 479 220 482 220 l 479 220 l 477 227 q 462 222 469 222 l 457 222 q 442 236 442 224 l 442 241 q 464 265 442 262 q 477 261 471 264 l 477 262 q 466 279 475 279 q 454 272 460 279 l 452 272 q 446 279 450 273 l 446 281 q 462 290 454 290 m 667 290 q 683 275 683 288 q 654 247 683 255 l 650 247 l 650 245 q 661 236 654 236 q 676 248 667 236 l 677 248 q 683 240 677 248 q 669 225 683 234 q 663 223 666 223 l 658 223 q 638 253 642 223 q 659 290 638 280 l 667 290 m 350 248 q 358 235 351 235 l 360 235 q 378 259 376 240 l 378 261 q 364 279 374 279 l 363 279 q 351 257 354 279 q 350 248 350 252 m 207 261 q 229 273 220 261 l 229 275 q 223 276 224 276 q 207 263 212 276 l 207 261 m 650 261 l 652 261 q 673 274 663 261 q 667 276 669 276 l 665 276 q 650 262 654 276 l 650 261 m 452 240 l 452 238 q 459 234 452 236 q 476 245 471 234 q 463 250 471 250 q 452 240 452 248 m 419 172 q 429 149 428 172 l 429 147 l 425 146 l 424 146 q 418 161 422 161 q 413 148 414 161 q 414 145 414 146 q 415 119 414 138 q 421 121 418 121 l 423 121 l 423 111 l 416 109 q 419 62 419 70 l 412 62 q 409 106 409 98 l 408 106 q 401 104 405 104 l 401 116 q 408 117 406 116 q 406 153 406 132 q 418 172 408 172 l 419 172 m 553 172 q 564 147 562 172 l 559 146 l 557 146 l 557 147 q 553 161 557 157 q 547 151 547 157 q 549 119 547 145 q 549 119 549 119 q 556 121 553 121 l 557 121 l 557 115 l 557 111 q 549 109 557 111 l 551 106 q 553 62 551 98 l 546 62 q 543 106 546 66 q 535 104 537 104 l 535 116 l 543 117 q 541 152 541 148 q 553 172 541 172 m 481 161 l 484 161 l 488 161 l 488 155 q 490 65 488 113 l 482 65 q 481 134 481 109 l 481 161 m 498 161 l 499 161 l 505 161 l 505 140 q 507 65 505 119 l 499 65 q 497 157 497 110 l 497 159 q 498 161 497 161 m 359 159 q 366 157 364 157 q 364 129 364 138 l 366 129 l 374 130 l 374 119 q 364 117 373 119 l 367 67 l 366 66 l 360 66 q 357 117 358 85 l 348 117 l 348 127 l 355 128 l 357 128 l 357 140 q 359 159 357 159 m 674 159 q 682 157 676 159 q 680 138 680 149 l 680 129 l 682 129 l 690 130 l 690 119 l 688 119 l 680 117 l 684 67 l 680 66 l 676 66 q 674 117 674 108 l 664 117 l 665 122 l 665 127 l 672 128 l 673 128 l 673 129 q 674 159 673 143 m 773 159 q 781 157 775 159 q 780 134 780 145 l 780 129 l 781 129 l 789 130 l 789 125 l 789 119 q 780 117 789 119 l 780 113 q 783 67 780 103 l 781 66 l 775 66 l 772 117 l 764 117 l 764 127 l 771 128 l 772 128 l 773 159 m 274 157 l 281 157 q 296 141 290 157 q 292 135 292 137 l 290 135 q 276 145 284 145 q 252 127 264 145 q 246 104 246 115 l 246 101 q 262 77 246 81 q 268 77 264 77 q 289 90 289 79 l 289 97 q 281 99 286 99 l 274 99 l 274 111 q 296 104 293 111 q 298 98 298 100 q 296 79 296 81 q 299 61 296 71 q 294 58 298 61 l 293 58 q 289 73 290 58 q 269 64 285 67 l 268 64 q 239 99 242 64 l 239 102 q 269 155 239 141 l 274 157 m 587 135 q 610 109 603 135 l 610 100 q 587 66 610 77 l 583 65 q 566 79 572 65 q 565 90 565 86 l 565 93 q 578 132 565 121 q 587 135 583 135 m 640 135 q 663 71 650 135 l 662 71 q 656 68 659 68 q 640 122 646 114 q 624 68 635 117 l 623 68 l 620 68 q 614 119 616 68 l 619 121 l 621 121 q 623 98 623 110 l 623 98 q 640 135 629 135 m 330 132 q 344 119 344 130 q 345 117 345 119 q 321 93 345 102 q 311 91 317 91 l 311 90 q 322 79 311 83 l 323 79 q 338 90 330 79 l 340 90 q 345 83 340 88 l 345 83 q 325 68 335 68 l 321 68 q 302 90 308 68 l 302 100 q 320 131 302 122 q 330 132 323 132 m 734 132 l 742 132 q 758 113 753 132 q 760 101 760 102 q 758 83 760 97 q 760 68 760 81 l 755 65 l 753 65 l 751 73 q 734 66 745 66 l 732 66 q 718 79 718 68 l 718 85 q 738 106 720 106 q 752 101 746 106 l 752 103 q 740 123 752 120 l 738 123 q 726 117 734 123 l 726 117 q 722 122 725 117 l 722 123 q 734 132 728 132 m 430 131 q 437 129 431 131 q 447 79 437 79 q 466 123 460 87 q 467 131 467 127 l 467 131 q 474 129 469 131 q 472 98 472 113 l 472 90 q 475 77 472 84 q 472 70 472 73 l 471 70 q 465 87 466 73 l 464 87 q 451 68 461 77 l 445 68 q 431 119 431 68 l 431 125 l 430 131 m 572 93 q 582 77 573 77 l 583 77 q 601 94 593 77 q 603 102 603 100 q 588 123 599 123 l 585 123 q 572 93 575 123 m 310 102 q 336 117 326 102 q 329 121 335 121 l 327 121 q 310 102 314 121 m 724 83 q 732 77 726 77 l 736 77 q 751 90 745 77 q 739 95 745 95 l 738 95 q 724 83 724 93 m 344 31 q 355 28 345 31 q 352 -35 353 2 q 359 -81 352 -58 q 351 -88 351 -88 l 350 -88 q 346 -79 348 -88 l 345 -79 q 330 -90 345 -85 q 298 -62 308 -90 q 296 -43 296 -54 q 319 -3 296 -10 l 322 -3 q 342 -14 332 -3 l 342 -14 q 344 31 342 -8 m 214 26 l 224 23 q 223 -1 223 7 l 223 -11 q 233 -9 232 -9 q 235 -25 235 -22 l 233 -25 q 223 -26 227 -26 q 227 -87 225 -68 q 215 -89 218 -89 l 215 -88 q 212 -28 212 -47 l 210 -27 l 201 -27 l 201 -11 l 211 -11 l 211 -5 q 214 26 211 26 m 457 26 l 458 26 l 468 23 q 467 -7 467 4 l 467 -11 q 477 -9 476 -9 l 478 -18 l 478 -25 q 467 -26 467 -26 q 471 -87 467 -42 q 459 -89 462 -89 l 459 -88 q 456 -27 456 -37 l 444 -27 l 444 -11 l 455 -11 q 457 26 455 12 m 370 24 q 378 15 376 24 l 378 14 q 372 3 378 7 l 368 3 q 362 15 362 7 q 370 24 363 24 m 412 -3 q 439 -29 429 -3 q 441 -41 441 -37 l 441 -47 q 414 -87 441 -74 q 406 -89 412 -89 q 384 -61 387 -89 l 384 -52 q 404 -5 384 -17 q 412 -3 411 -3 m 543 -3 l 546 -3 q 553 -5 553 -3 l 553 -7 q 566 -3 559 -3 q 589 -33 583 -3 q 589 -43 589 -41 q 568 -86 587 -78 l 563 -87 l 556 -87 l 557 -92 q 557 -119 557 -96 l 546 -119 q 543 -3 543 -30 m 621 -3 q 647 -27 636 -3 q 650 -43 650 -36 q 624 -87 650 -73 q 614 -89 618 -89 q 593 -71 600 -89 q 592 -55 592 -62 q 612 -5 592 -18 q 621 -3 620 -3 m 758 -3 q 784 -27 774 -3 q 787 -40 787 -33 l 787 -45 q 760 -87 787 -75 q 751 -89 758 -89 q 730 -61 732 -89 l 730 -52 q 750 -5 730 -17 q 758 -3 757 -3 m 821 -3 q 840 -43 833 -3 l 840 -43 q 859 -3 846 -3 l 859 -3 q 886 -83 876 -3 l 885 -83 q 876 -87 878 -87 l 876 -87 q 859 -20 863 -20 q 847 -76 852 -35 q 840 -83 845 -83 q 833 -73 835 -83 q 820 -21 824 -21 q 809 -84 809 -60 q 798 -87 802 -87 l 798 -86 l 789 -16 q 801 -12 798 -12 q 804 -33 802 -17 l 805 -33 q 821 -3 811 -3 m 175 -4 q 191 -18 191 -7 l 191 -19 q 183 -25 191 -20 l 181 -25 q 172 -20 181 -20 l 172 -20 q 158 -26 163 -20 l 158 -29 q 179 -33 158 -33 q 197 -59 197 -41 l 197 -62 q 182 -88 197 -81 q 176 -90 179 -90 l 170 -90 q 143 -73 154 -90 q 151 -62 143 -70 l 153 -62 q 173 -75 158 -75 q 185 -61 185 -75 q 171 -49 185 -51 q 149 -41 153 -49 q 146 -33 146 -35 l 146 -27 q 175 -4 146 -4 m 484 -5 q 494 -7 492 -7 q 493 -31 493 -23 l 493 -35 q 501 -64 493 -57 l 505 -64 q 519 -16 519 -52 l 519 -9 l 531 -9 l 531 -9 q 536 -79 536 -70 l 536 -86 q 517 -127 536 -116 q 507 -130 511 -130 q 487 -116 492 -130 q 486 -110 486 -113 l 486 -104 q 488 -94 486 -94 l 498 -98 l 497 -104 l 497 -106 q 505 -113 497 -112 l 507 -113 q 524 -91 521 -113 q 525 -83 525 -88 l 525 -69 l 524 -60 l 524 -60 q 504 -81 517 -81 l 503 -81 q 482 -47 487 -81 q 481 -33 481 -41 l 481 -27 q 484 -5 481 -5 m 701 -5 l 706 -5 q 716 -12 710 -5 q 724 -24 724 -20 q 715 -33 716 -33 l 715 -33 q 703 -22 708 -22 l 702 -22 q 690 -41 694 -26 l 687 -56 q 696 -72 687 -71 l 699 -72 q 722 -61 706 -72 l 722 -61 q 726 -76 726 -75 q 694 -88 709 -88 q 675 -57 679 -88 q 688 -14 675 -34 q 701 -5 696 -5 m 364 -7 l 372 -7 l 376 -7 q 376 -13 376 -9 q 378 -87 376 -58 l 366 -87 l 366 -81 q 364 -7 364 -35 m 237 -7 q 249 -12 249 -11 l 249 -25 q 257 -71 249 -71 l 260 -71 q 277 -33 272 -58 q 281 -7 280 -26 l 282 -7 q 292 -12 292 -9 q 290 -52 290 -40 l 290 -58 q 294 -72 290 -65 q 287 -84 294 -76 l 287 -84 q 279 -67 279 -76 l 278 -67 q 259 -87 271 -87 l 257 -87 q 237 -24 237 -87 l 237 -7 m 308 -45 q 328 -73 308 -68 l 330 -73 q 340 -55 338 -73 l 340 -53 q 326 -20 340 -28 l 322 -20 l 321 -20 q 308 -43 309 -20 l 308 -45 m 395 -56 q 406 -73 395 -71 l 408 -73 q 428 -53 418 -73 q 429 -47 429 -50 l 429 -41 q 413 -20 425 -20 l 412 -20 q 395 -56 397 -20 m 553 -25 q 555 -71 553 -27 l 560 -71 q 578 -43 575 -71 q 566 -20 576 -20 l 566 -20 q 553 -25 559 -20 m 604 -56 l 604 -59 q 614 -73 604 -71 l 615 -73 q 635 -55 626 -73 q 638 -43 638 -50 q 619 -20 634 -20 q 604 -56 606 -20 m 741 -56 q 752 -73 741 -73 l 754 -73 q 774 -52 764 -73 q 775 -45 775 -48 l 775 -41 q 758 -20 770 -20 l 758 -20 q 741 -56 744 -20 m 663 -65 q 671 -75 669 -65 l 671 -78 q 663 -87 669 -87 q 655 -77 656 -87 q 663 -65 656 -65 m 486 928 l 486 764 l 309 764 q 239 738 273 764 l 239 745 q 486 928 339 928 m 543 928 l 549 928 q 739 827 639 928 q 777 764 777 781 l 543 764 l 543 928 m 290 707 l 486 707 l 486 643 q 435 656 463 656 l 290 656 q 277 669 277 656 l 277 694 q 290 707 279 707 m 543 707 l 802 707 l 808 643 l 808 631 q 720 429 808 505 l 606 429 q 543 492 543 437 l 543 707 m 220 656 l 227 656 q 321 599 227 607 l 441 599 q 486 555 486 599 l 486 485 q 416 429 486 429 l 309 429 q 220 618 220 510 l 220 656 m 511 410 l 517 410 q 644 372 559 372 l 644 365 q 517 340 571 340 l 511 340 q 385 365 457 340 l 385 372 q 511 410 474 372 z "},"/":{"ha":390,"x_min":14,"x_max":376,"o":"m 376 978 l 87 0 l 14 0 l 303 978 l 376 978 z "},":":{"ha":244,"x_min":68,"x_max":176,"o":"m 122 0 q 83 16 99 0 q 68 54 68 31 q 83 92 68 77 q 122 108 99 108 q 160 92 144 108 q 176 54 176 76 q 160 16 176 32 q 122 0 144 0 m 122 592 q 83 608 99 592 q 68 646 68 623 q 83 684 68 669 q 122 700 99 700 q 160 684 144 700 q 176 646 176 668 q 160 608 176 624 q 122 592 144 592 z "},";":{"ha":244,"x_min":16,"x_max":176,"o":"m 155 82 q 159 79 157 82 q 159 75 161 77 l 72 -121 q 66 -125 70 -125 l 22 -125 q 17 -123 18 -125 q 16 -118 16 -121 l 69 78 q 74 82 71 82 l 155 82 m 122 592 q 83 608 99 592 q 68 646 68 623 q 83 684 68 669 q 122 700 99 700 q 160 684 144 700 q 176 646 176 668 q 160 608 176 624 q 122 592 144 592 z "},";":{"ha":244,"x_min":16,"x_max":176,"o":"m 155 82 q 159 79 157 82 q 159 75 161 77 l 72 -121 q 66 -125 70 -125 l 22 -125 q 17 -123 18 -125 q 16 -118 16 -121 l 69 78 q 74 82 71 82 l 155 82 m 122 592 q 83 608 99 592 q 68 646 68 623 q 83 684 68 669 q 122 700 99 700 q 160 684 144 700 q 176 646 176 668 q 160 608 176 624 q 122 592 144 592 z "},"<":{"ha":726,"x_min":34,"x_max":692,"o":"m 34 516 q 44 532 34 528 l 669 774 q 684 773 677 778 q 692 760 692 768 l 692 714 q 682 699 692 703 l 130 482 l 682 264 q 692 250 692 260 l 692 204 q 684 191 692 195 q 669 189 677 186 l 44 433 q 34 448 34 437 l 34 516 z "},"=":{"ha":700,"x_min":34,"x_max":666,"o":"m 666 336 q 654 307 666 319 q 624 294 642 294 l 75 294 q 46 307 58 294 q 34 336 34 319 l 34 337 q 46 367 34 355 q 75 379 58 379 l 624 379 q 654 367 642 379 q 666 337 666 355 l 666 336 m 666 631 q 654 602 666 614 q 624 589 642 589 l 75 589 q 46 602 58 589 q 34 631 34 614 l 34 632 q 46 662 34 650 q 75 674 58 674 l 624 674 q 654 662 642 674 q 666 632 666 650 l 666 631 z "},">":{"ha":726,"x_min":34,"x_max":692,"o":"m 692 448 q 682 433 692 437 l 56 189 q 41 191 48 186 q 34 204 34 195 l 34 250 q 44 264 34 260 l 596 482 l 44 699 q 34 714 34 703 l 34 760 q 41 773 34 768 q 56 774 48 778 l 682 532 q 692 516 692 528 l 692 448 z "},"?":{"ha":671,"x_min":52,"x_max":610,"o":"m 328 967 q 528 885 446 967 q 610 685 610 802 q 548 508 610 585 q 368 404 486 431 l 368 283 q 356 256 368 268 q 328 244 345 244 l 326 244 q 297 256 309 244 q 286 285 286 268 l 286 444 q 297 473 286 461 q 325 485 309 484 l 328 485 q 469 543 411 485 q 528 685 528 602 q 469 827 528 768 q 328 885 411 885 q 208 845 261 885 q 136 744 156 806 q 122 723 133 730 q 98 715 112 715 l 96 715 q 64 732 76 715 q 58 767 52 748 q 159 911 85 855 q 328 967 234 967 m 326 -1 q 288 15 303 -1 q 272 54 272 31 q 288 92 272 76 q 326 107 303 107 q 364 92 349 107 q 380 54 380 75 q 364 15 380 31 q 326 -1 349 -1 z "},"@":{"ha":1414,"x_min":68,"x_max":1346,"o":"m 976 -218 q 707 -277 857 -277 l 706 -277 q 254 -90 440 -277 q 68 358 68 96 q 254 805 68 620 q 707 993 441 993 q 1160 805 973 993 q 1346 358 1346 620 q 1264 82 1346 200 q 1097 -34 1188 -30 l 1086 -34 q 1002 -1 1035 -34 q 952 188 952 45 l 952 201 l 954 353 q 873 547 954 476 q 751 604 823 590 q 696 608 724 608 q 612 595 654 608 q 444 353 444 543 q 581 124 444 195 q 700 96 637 96 q 718 97 710 96 q 823 127 785 102 l 856 55 q 726 20 804 25 q 700 19 713 19 q 539 58 616 19 q 408 179 454 102 q 359 353 359 258 q 463 600 359 508 q 699 686 559 686 q 933 600 837 686 q 1038 353 1038 508 l 1038 200 l 1038 184 q 1064 51 1038 77 q 1088 43 1074 43 l 1092 43 q 1202 136 1146 46 q 1261 358 1261 236 q 1097 754 1261 589 q 707 916 935 916 q 315 752 479 916 q 153 358 153 589 q 317 -39 153 126 q 706 -200 480 -200 l 707 -200 q 944 -145 839 -200 l 976 -218 z "},"A":{"ha":770,"x_min":75,"x_max":695,"o":"m 695 41 q 683 12 695 24 q 654 0 671 0 l 652 0 q 623 12 635 0 q 610 41 610 24 l 610 385 l 159 385 l 159 41 q 147 12 159 24 q 118 0 135 0 l 116 0 q 87 12 99 0 q 75 41 75 24 l 75 668 q 165 888 75 797 q 385 978 256 978 q 604 888 513 978 q 695 668 695 797 l 695 41 m 610 469 l 610 668 q 545 827 610 761 q 385 894 478 894 q 225 827 292 894 q 159 668 159 761 l 159 469 l 610 469 z "},"B":{"ha":708,"x_min":75,"x_max":661,"o":"m 159 547 l 387 547 q 509 597 458 547 q 560 720 560 648 q 509 842 560 791 q 387 894 459 894 l 225 894 q 178 874 198 894 q 159 827 159 854 l 159 547 m 75 827 q 119 935 75 890 q 225 978 163 978 l 387 978 q 570 903 494 978 q 645 720 645 827 q 533 506 645 600 q 661 273 661 408 q 581 80 661 160 q 387 0 500 0 l 225 0 q 119 44 163 0 q 75 151 75 88 l 75 827 m 387 85 q 520 140 465 85 q 575 273 575 195 q 520 407 575 351 q 387 463 465 463 l 159 463 l 159 151 q 178 104 159 123 q 225 85 198 85 l 387 85 z "},"C":{"ha":734,"x_min":51,"x_max":693,"o":"m 540 978 q 662 963 602 978 q 693 923 693 955 l 693 921 q 677 888 693 901 q 641 881 661 876 q 540 894 591 894 q 254 775 373 894 q 136 489 136 656 q 254 203 136 321 q 540 85 373 85 q 641 97 591 85 q 677 90 661 102 q 693 57 693 77 l 693 56 q 662 15 693 23 q 540 0 602 0 q 194 143 337 0 q 51 489 51 286 q 194 835 51 692 q 540 978 337 978 z "},"D":{"ha":857,"x_min":75,"x_max":817,"o":"m 159 151 q 178 104 159 123 q 225 85 198 85 l 328 85 q 614 203 495 85 q 732 489 732 321 q 614 775 732 656 q 328 894 495 894 l 225 894 q 178 874 198 894 q 159 827 159 854 l 159 151 m 328 978 q 673 835 530 978 q 817 489 817 692 q 673 143 817 286 q 328 0 530 0 l 225 0 q 119 44 163 0 q 75 151 75 88 l 75 827 q 119 935 75 890 q 225 978 163 978 l 328 978 z "},"E":{"ha":602,"x_min":75,"x_max":565,"o":"m 159 531 l 524 531 q 553 519 541 531 q 565 490 565 507 l 565 488 q 553 458 565 471 q 524 447 541 447 l 159 447 l 159 207 q 195 121 159 157 q 281 85 231 85 l 524 85 q 553 73 541 85 q 565 43 565 60 l 565 41 q 553 12 565 24 q 524 0 541 0 l 281 0 q 135 60 195 0 q 75 207 75 121 l 75 771 q 135 918 75 857 q 281 978 195 978 l 524 978 q 553 966 541 978 q 565 937 565 954 l 565 935 q 553 905 565 918 q 524 893 541 893 l 281 893 q 195 857 231 893 q 159 771 159 821 l 159 531 z "},"F":{"ha":551,"x_min":75,"x_max":531,"o":"m 159 531 l 483 531 q 512 519 500 531 q 524 490 524 507 l 524 488 q 512 459 524 471 q 483 447 500 447 l 159 447 l 159 41 q 147 12 159 24 q 118 0 135 0 l 116 0 q 87 12 99 0 q 75 41 75 24 l 75 771 q 135 918 75 857 q 281 978 195 978 l 490 978 q 519 966 507 978 q 531 937 531 954 l 531 935 q 519 905 531 918 q 490 894 507 894 l 281 894 q 195 858 231 894 q 159 771 159 822 l 159 531 z "},"G":{"ha":1087,"x_min":54,"x_max":1033,"o":"m 543 978 q 903 821 758 978 q 914 787 916 806 q 896 758 912 769 l 895 756 q 867 750 883 748 q 841 763 852 751 q 543 894 721 894 q 258 775 376 894 q 139 489 139 656 q 258 203 139 321 q 543 85 376 85 q 807 182 693 85 q 946 447 919 278 l 560 447 q 530 459 543 447 q 519 488 519 471 l 519 490 q 530 519 519 507 q 560 531 543 531 l 991 531 q 1021 519 1008 531 q 1033 490 1032 507 l 1033 489 q 890 143 1033 286 q 543 0 746 0 q 197 143 340 0 q 54 489 54 286 q 197 835 54 692 q 543 978 340 978 z "},"H":{"ha":776,"x_min":75,"x_max":701,"o":"m 118 978 q 147 966 135 978 q 159 937 159 954 l 159 531 l 616 531 l 616 937 q 629 966 616 954 q 658 978 641 978 l 660 978 q 689 966 677 978 q 701 937 701 954 l 701 41 q 689 12 701 24 q 660 0 677 0 l 658 0 q 629 12 641 0 q 616 41 616 24 l 616 447 l 159 447 l 159 41 q 147 12 159 24 q 118 0 135 0 l 116 0 q 87 12 99 0 q 75 41 75 24 l 75 937 q 87 966 75 954 q 116 978 99 978 l 118 978 z "},"I":{"ha":275,"x_min":95,"x_max":180,"o":"m 138 978 q 168 966 155 978 q 180 937 180 954 l 180 41 q 168 12 180 24 q 138 0 155 0 l 136 0 q 107 12 119 0 q 95 41 95 24 l 95 937 q 107 966 95 954 q 136 978 119 978 l 138 978 z "},"J":{"ha":462,"x_min":7,"x_max":380,"o":"m 296 937 q 308 966 296 954 q 338 978 320 978 l 339 978 q 369 966 357 978 q 380 937 380 954 l 380 207 q 320 60 380 121 q 174 0 260 0 l 48 0 q 19 12 31 0 q 7 41 7 24 l 7 43 q 19 73 7 60 q 48 85 31 85 l 174 85 q 260 121 224 85 q 296 207 296 157 l 296 937 z "},"K":{"ha":724,"x_min":75,"x_max":650,"o":"m 118 978 q 147 966 135 978 q 159 937 159 954 l 159 565 l 271 565 q 457 642 380 565 q 536 829 535 719 l 536 937 q 548 966 536 954 q 577 978 559 978 l 579 978 q 608 966 596 978 q 621 937 621 954 l 621 829 q 455 530 621 653 q 604 389 559 467 q 650 215 650 309 l 650 41 q 638 12 650 24 q 608 0 626 0 l 607 0 q 577 12 589 0 q 566 41 566 24 l 566 215 q 487 401 565 325 q 300 479 409 479 l 159 479 l 159 41 q 147 12 159 24 q 118 0 135 0 l 116 0 q 87 12 99 0 q 75 41 75 24 l 75 937 q 87 966 75 954 q 116 978 99 978 l 118 978 z "},"L":{"ha":534,"x_min":81,"x_max":528,"o":"m 166 207 q 202 121 166 157 q 288 85 238 85 l 486 85 q 515 73 503 85 q 528 43 528 60 l 528 41 q 515 12 528 24 q 486 0 503 0 l 288 0 q 142 60 202 0 q 81 207 81 121 l 81 937 q 94 966 81 954 q 123 978 106 978 l 125 978 q 154 966 142 978 q 166 937 166 954 l 166 207 z "},"M":{"ha":1206,"x_min":75,"x_max":1132,"o":"m 159 41 q 147 12 159 24 q 118 0 135 0 l 116 0 q 87 12 99 0 q 75 41 75 24 l 75 692 q 158 895 75 811 q 360 978 241 978 q 604 845 501 978 q 846 978 705 978 q 1048 895 965 978 q 1132 692 1132 811 l 1132 41 q 1120 12 1132 24 q 1090 0 1108 0 l 1089 0 q 1060 12 1072 0 q 1048 41 1048 24 l 1048 692 q 989 835 1048 776 q 846 894 930 894 q 705 835 764 894 q 646 692 646 776 l 646 41 q 633 12 646 24 q 604 0 621 0 l 603 0 q 573 12 585 0 q 561 41 561 24 l 561 692 q 502 835 561 776 q 360 894 443 894 q 218 835 277 894 q 159 692 159 776 l 159 41 z "},"N":{"ha":770,"x_min":75,"x_max":695,"o":"m 695 41 q 683 12 695 24 q 654 0 671 0 l 652 0 q 623 12 635 0 q 610 41 610 24 l 610 668 q 545 827 610 761 q 385 894 478 894 q 225 827 292 894 q 159 668 159 761 l 159 41 q 147 12 159 24 q 118 0 135 0 l 116 0 q 87 12 99 0 q 75 41 75 24 l 75 668 q 165 888 75 797 q 385 978 256 978 q 604 888 513 978 q 695 668 695 797 l 695 41 z "},"O":{"ha":1087,"x_min":54,"x_max":1033,"o":"m 543 978 q 890 835 746 978 q 1033 489 1033 692 q 890 143 1033 286 q 543 0 746 0 q 197 143 340 0 q 54 489 54 286 q 197 835 54 692 q 543 978 340 978 m 543 894 q 258 775 376 894 q 139 489 139 656 q 258 203 139 321 q 543 85 376 85 q 829 203 711 85 q 948 489 948 321 q 829 775 948 656 q 543 894 711 894 z "},"P":{"ha":761,"x_min":75,"x_max":713,"o":"m 159 424 l 394 424 q 560 493 491 424 q 629 659 629 562 q 560 825 629 755 q 394 894 491 894 q 228 825 297 894 q 159 659 159 755 l 159 424 m 159 339 l 159 41 q 147 12 159 24 q 118 0 135 0 l 116 0 q 87 12 99 0 q 75 41 75 24 l 75 659 q 168 885 75 791 q 394 978 262 978 q 620 885 527 978 q 713 659 713 791 q 620 433 713 526 q 394 339 527 339 l 159 339 z "},"Q":{"ha":1087,"x_min":54,"x_max":1033,"o":"m 543 978 q 890 835 746 978 q 1033 489 1033 692 q 909 164 1033 302 q 586 2 786 26 l 586 -141 q 574 -171 586 -159 q 544 -182 562 -182 l 543 -182 q 513 -171 525 -182 q 501 -141 501 -159 l 501 2 q 178 164 301 26 q 54 489 54 302 q 197 835 54 692 q 543 978 340 978 m 544 319 q 574 307 562 319 q 586 278 586 295 l 586 86 q 851 227 755 113 q 948 489 948 340 q 829 775 948 656 q 543 894 711 894 q 258 775 376 894 q 139 489 139 656 q 236 226 139 339 q 501 86 332 113 l 501 278 q 513 307 501 295 q 543 319 526 319 l 544 319 z "},"R":{"ha":726,"x_min":75,"x_max":685,"o":"m 387 465 q 538 528 475 465 q 601 679 601 591 q 538 831 601 768 q 387 893 475 893 l 309 893 q 201 853 241 893 q 161 780 169 823 q 159 748 159 768 l 159 465 l 387 465 m 601 167 q 538 318 601 255 q 401 380 481 376 l 159 380 l 159 41 q 147 12 159 24 q 117 0 135 0 l 116 0 q 87 12 99 0 q 75 41 75 24 l 75 754 q 140 912 75 847 q 298 978 205 978 l 387 978 q 597 890 511 978 q 685 679 685 803 q 597 468 685 555 q 544 423 581 452 q 598 378 582 393 q 685 167 685 291 l 685 41 q 673 12 685 24 q 644 0 661 0 l 642 0 q 613 12 625 0 q 601 41 601 24 l 601 167 z "},"S":{"ha":662,"x_min":47,"x_max":614,"o":"m 319 895 q 191 842 244 895 q 138 715 138 789 q 222 574 138 623 q 395 515 254 556 q 548 441 501 484 q 614 267 614 381 q 536 78 614 156 q 347 0 458 0 l 89 0 q 60 12 72 0 q 47 41 47 24 l 47 45 q 60 75 47 62 q 89 87 72 87 l 354 87 q 481 140 428 87 q 534 267 534 193 q 451 408 534 358 q 279 472 417 429 q 125 549 171 507 q 58 715 58 608 q 136 904 58 826 q 326 982 214 982 l 508 982 q 538 970 526 982 q 549 941 549 958 l 549 937 q 538 907 549 920 q 508 895 526 895 l 319 895 z "},"T":{"ha":633,"x_min":27,"x_max":606,"o":"m 606 935 q 594 905 606 918 q 565 894 583 894 l 359 894 l 359 41 q 347 12 359 24 q 317 0 335 0 l 316 0 q 286 12 298 0 q 275 41 275 24 l 275 894 l 68 894 q 39 905 52 894 q 27 935 27 918 l 27 937 q 39 966 27 954 q 68 978 52 978 l 565 978 q 594 966 583 978 q 606 937 606 954 l 606 935 z "},"U":{"ha":770,"x_min":75,"x_max":695,"o":"m 695 310 q 604 91 695 181 q 385 0 513 0 q 165 91 256 0 q 75 310 75 181 l 75 937 q 87 966 75 954 q 116 978 99 978 l 118 978 q 147 966 135 978 q 159 937 159 954 l 159 310 q 225 151 159 217 q 385 85 292 85 q 545 151 478 85 q 610 310 610 217 l 610 937 q 623 966 610 954 q 652 978 635 978 l 654 978 q 683 966 671 978 q 695 937 695 954 l 695 310 z "},"V":{"ha":743,"x_min":29,"x_max":713,"o":"m 372 1 q 314 42 331 0 l 37 923 q 41 960 29 943 q 76 978 54 978 l 81 978 q 119 951 111 978 l 366 135 l 372 111 l 377 135 l 624 951 q 663 978 633 978 l 667 978 q 701 960 689 978 q 707 923 713 943 l 429 42 q 372 1 412 0 z "},"W":{"ha":1206,"x_min":75,"x_max":1132,"o":"m 159 286 q 218 144 159 203 q 360 85 277 85 q 502 144 443 85 q 561 286 561 203 l 561 937 q 573 966 561 954 q 603 978 585 978 l 604 978 q 633 966 622 978 q 646 937 646 954 l 646 286 q 705 144 646 203 q 846 85 764 85 q 989 144 930 85 q 1048 286 1048 203 l 1048 937 q 1060 966 1048 954 q 1089 978 1072 978 l 1090 978 q 1120 966 1108 978 q 1132 937 1132 954 l 1132 286 q 1048 83 1132 167 q 846 0 965 0 q 604 133 705 0 q 360 0 501 0 q 158 83 241 0 q 75 286 75 167 l 75 937 q 87 966 75 954 q 116 978 99 978 l 118 978 q 147 966 135 978 q 159 937 159 954 l 159 286 z "},"X":{"ha":756,"x_min":68,"x_max":688,"o":"m 688 41 q 676 12 688 24 q 647 0 664 0 l 645 0 q 616 12 628 0 q 604 41 604 24 l 604 247 q 538 406 604 340 q 378 473 471 473 q 218 406 285 473 q 153 247 153 340 l 153 41 q 140 12 153 24 q 111 0 128 0 l 109 0 q 80 12 92 0 q 68 41 68 24 l 68 247 q 219 515 68 406 q 68 783 68 624 l 68 937 q 80 966 68 954 q 109 978 92 978 l 111 978 q 140 966 128 978 q 153 937 153 954 l 153 783 q 218 623 153 690 q 378 557 285 557 q 538 623 471 557 q 604 783 604 690 l 604 937 q 616 966 604 954 q 645 978 628 978 l 647 978 q 676 966 664 978 q 688 937 688 954 l 688 783 q 537 515 688 624 q 688 247 688 406 l 688 41 z "},"Y":{"ha":756,"x_min":68,"x_max":688,"o":"m 688 635 q 616 436 688 523 q 420 328 545 351 l 420 41 q 408 12 420 24 q 379 0 396 0 l 377 0 q 348 12 360 0 q 336 41 336 24 l 336 328 q 140 436 211 351 q 68 635 68 523 l 68 937 q 80 966 68 954 q 109 978 92 978 l 111 978 q 140 966 128 978 q 153 937 153 954 l 153 635 q 218 475 153 542 q 378 410 285 410 q 538 475 471 410 q 604 635 604 542 l 604 937 q 616 966 604 954 q 645 978 628 978 l 647 978 q 676 966 664 978 q 688 937 688 954 l 688 635 z "},"Z":{"ha":660,"x_min":27,"x_max":633,"o":"m 57 937 q 68 966 57 954 q 98 978 81 978 l 518 978 q 591 947 560 977 q 621 873 621 916 q 604 816 621 842 l 94 85 l 591 85 q 621 73 608 85 q 633 43 633 60 l 633 41 q 621 12 633 24 q 591 0 608 0 l 120 0 q 54 34 81 4 q 27 105 27 64 q 40 155 27 132 l 555 894 l 98 894 q 68 905 81 894 q 57 935 57 918 l 57 937 z "},"[":{"ha":401,"x_min":68,"x_max":333,"o":"m 68 978 l 333 978 l 333 909 l 153 909 l 153 -210 l 333 -210 l 333 -279 l 68 -279 l 68 978 z "},"\\":{"ha":390,"x_min":14,"x_max":376,"o":"m 87 978 l 376 0 l 302 0 l 14 978 l 87 978 z "},"]":{"ha":401,"x_min":68,"x_max":333,"o":"m 333 -279 l 68 -279 l 68 -210 l 248 -210 l 248 909 l 68 909 l 68 978 l 333 978 l 333 -279 z "},"^":{"ha":610,"x_min":68,"x_max":542,"o":"m 336 978 q 355 965 350 978 l 538 581 q 536 564 542 572 q 520 555 530 555 l 471 555 q 454 568 458 555 l 304 893 l 155 568 q 138 555 151 555 l 89 555 q 73 564 79 555 q 71 581 68 572 l 255 965 q 273 978 260 978 l 336 978 z "},"_":{"ha":602,"x_min":-7,"x_max":608,"o":"m -7 -125 l -7 -41 l 608 -41 l 608 -125 l -7 -125 z "},"`":{"ha":380,"x_min":9,"x_max":261,"o":"m 11 951 q 18 958 9 958 l 136 958 q 139 957 138 958 l 258 787 q 260 780 261 783 q 255 777 258 777 l 193 777 q 182 782 187 777 l 11 951 z "},"a":{"ha":836,"x_min":68,"x_max":768,"o":"m 418 700 q 665 597 563 700 q 768 350 768 495 l 768 41 q 755 12 768 24 q 726 0 743 0 l 724 0 q 695 12 707 0 q 683 41 683 24 l 683 118 q 418 0 550 0 q 170 102 273 0 q 68 350 68 205 q 170 597 68 495 q 418 700 273 700 m 418 615 q 230 537 308 615 q 153 350 153 459 q 230 162 153 240 q 418 85 308 85 q 605 162 528 85 q 683 350 683 240 q 605 537 683 459 q 418 615 528 615 z "},"b":{"ha":815,"x_min":68,"x_max":768,"o":"m 418 614 q 230 536 308 614 q 153 348 153 458 q 230 161 153 239 q 418 83 308 83 q 605 161 528 83 q 683 348 683 239 q 605 536 683 458 q 418 614 528 614 m 111 978 q 140 966 128 978 q 153 937 153 954 l 153 582 q 418 700 285 700 q 665 597 563 700 q 768 350 768 495 q 665 102 768 205 q 418 0 563 0 q 171 102 273 0 q 68 348 68 204 l 68 937 q 80 966 68 954 q 109 978 92 978 l 111 978 z "},"c":{"ha":580,"x_min":47,"x_max":532,"o":"m 397 700 q 503 683 452 700 q 532 644 532 674 l 532 640 q 515 607 532 619 q 478 600 498 594 q 397 614 439 614 q 210 536 288 614 q 132 348 132 458 q 210 161 132 239 q 397 83 288 83 q 478 95 439 83 q 515 90 498 102 q 532 56 532 77 q 503 16 532 26 q 397 0 452 0 q 150 102 252 0 q 47 350 47 205 q 150 597 47 495 q 397 700 252 700 z "},"d":{"ha":815,"x_min":47,"x_max":747,"o":"m 397 614 q 210 536 288 614 q 132 348 132 458 q 210 161 132 239 q 397 83 288 83 q 585 161 508 83 q 663 348 663 239 q 585 536 663 458 q 397 614 508 614 m 706 978 q 735 966 723 978 q 747 937 747 954 l 747 348 q 644 102 747 204 q 397 0 542 0 q 150 102 252 0 q 47 350 47 205 q 150 597 47 495 q 397 700 252 700 q 663 582 530 700 l 663 937 q 675 966 663 954 q 704 978 687 978 l 706 978 z "},"e":{"ha":785,"x_min":47,"x_max":735,"o":"m 397 614 q 210 536 288 614 q 132 348 132 458 q 139 282 132 328 l 617 498 q 397 614 521 614 m 715 495 q 717 463 723 479 q 695 440 711 448 q 446 328 600 397 q 173 205 254 241 q 397 83 268 83 q 553 134 484 83 q 648 261 621 182 q 688 290 658 290 q 723 272 710 290 q 728 234 735 254 q 602 66 692 130 q 397 0 510 0 q 150 102 252 0 q 47 350 47 205 q 150 597 47 495 q 397 700 252 700 q 589 643 502 700 q 715 495 673 587 z "},"f":{"ha":433,"x_min":68,"x_max":406,"o":"m 365 978 q 395 966 382 978 q 406 937 406 954 l 406 935 q 395 905 406 918 q 365 894 382 894 l 326 894 q 203 843 254 894 q 153 720 153 792 l 153 699 l 365 699 q 395 687 382 699 q 406 658 406 675 l 406 656 q 395 627 406 639 q 365 614 382 614 l 153 614 l 153 41 q 140 12 153 24 q 111 0 128 0 l 109 0 q 80 12 92 0 q 68 41 68 24 l 68 720 q 143 903 69 828 q 326 978 218 978 l 365 978 z "},"g":{"ha":815,"x_min":47,"x_max":747,"o":"m 161 -74 q 397 -194 240 -194 q 579 -117 498 -194 q 663 71 663 -37 l 663 118 q 397 0 530 0 q 150 102 252 0 q 47 350 47 205 q 150 597 47 495 q 397 700 252 700 q 644 598 542 700 q 747 351 747 496 l 747 71 q 637 -176 747 -70 q 397 -279 530 -279 q 89 -120 191 -279 q 84 -83 78 -103 q 110 -58 91 -64 l 112 -57 q 161 -74 142 -47 m 663 354 q 583 538 661 463 q 397 615 506 615 q 210 537 288 615 q 132 350 132 459 q 210 162 132 240 q 397 85 288 85 q 585 162 507 85 q 663 350 663 240 l 663 354 z "},"h":{"ha":710,"x_min":68,"x_max":642,"o":"m 111 978 q 140 966 128 978 q 153 937 153 954 l 153 619 q 355 700 260 700 q 558 616 474 700 q 642 412 642 532 l 642 41 q 630 12 642 24 q 601 0 618 0 l 600 0 q 570 12 582 0 q 557 41 557 24 l 557 412 q 498 555 557 496 q 355 615 439 615 q 212 555 271 615 q 153 412 153 496 l 153 41 q 140 12 153 24 q 111 0 128 0 l 109 0 q 80 12 92 0 q 68 41 68 24 l 68 937 q 80 966 68 954 q 109 978 92 978 l 111 978 z "},"i":{"ha":271,"x_min":81,"x_max":190,"o":"m 136 700 q 165 688 153 700 q 178 658 178 675 l 178 41 q 165 12 178 24 q 136 0 153 0 l 135 0 q 105 12 117 0 q 93 41 93 24 l 93 658 q 105 688 93 675 q 135 700 117 700 l 136 700 m 136 869 q 97 885 113 869 q 81 924 81 901 q 97 962 81 946 q 136 977 113 977 q 174 962 158 977 q 190 924 190 945 q 174 885 190 901 q 136 869 158 869 z "},"j":{"ha":277,"x_min":-142,"x_max":208,"o":"m -101 -279 q -130 -267 -118 -279 q -142 -237 -142 -254 l -142 -235 q -130 -206 -142 -218 q -101 -194 -118 -194 l -62 -194 q 60 -143 11 -194 q 112 -20 111 -94 l 112 658 q 123 688 112 675 q 153 700 136 700 l 155 700 q 184 688 172 700 q 196 658 196 675 l 196 -20 q 121 -203 195 -129 q -62 -279 46 -279 l -101 -279 m 153 871 q 115 886 130 871 q 99 925 99 902 q 115 963 99 947 q 153 979 130 979 q 191 963 176 979 q 208 925 208 947 q 191 886 208 903 q 153 871 176 871 z "},"k":{"ha":646,"x_min":68,"x_max":599,"o":"m 111 978 q 140 966 128 978 q 153 937 153 954 l 153 426 l 219 426 q 397 494 321 426 q 483 663 473 563 q 496 689 484 678 q 524 700 509 700 l 526 700 q 557 686 545 700 q 567 654 569 673 q 404 391 552 501 q 552 250 507 328 q 599 76 599 170 l 599 41 q 587 12 599 24 q 557 0 574 0 l 555 0 q 526 12 538 0 q 514 41 514 24 l 514 76 q 436 262 513 186 q 249 340 358 340 l 153 340 l 153 41 q 140 12 153 24 q 111 0 128 0 l 109 0 q 80 12 92 0 q 68 41 68 24 l 68 937 q 80 966 68 954 q 109 978 92 978 l 111 978 z "},"l":{"ha":275,"x_min":95,"x_max":180,"o":"m 138 978 q 168 966 155 978 q 180 937 180 954 l 180 41 q 168 12 180 24 q 138 0 155 0 l 136 0 q 107 12 119 0 q 95 41 95 24 l 95 937 q 107 966 95 954 q 136 978 119 978 l 138 978 z "},"m":{"ha":1193,"x_min":68,"x_max":1125,"o":"m 153 41 q 140 12 153 24 q 111 0 128 0 l 109 0 q 80 12 92 0 q 68 41 68 24 l 68 414 q 151 616 68 532 q 353 700 235 700 q 597 566 494 700 q 840 700 699 700 q 1042 616 958 700 q 1125 414 1125 532 l 1125 41 q 1114 12 1125 24 q 1084 0 1101 0 l 1082 0 q 1053 12 1065 0 q 1041 41 1041 24 l 1041 414 q 982 556 1041 497 q 840 615 923 615 q 698 556 757 615 q 639 414 639 497 l 639 41 q 627 12 639 24 q 597 0 614 0 l 596 0 q 566 12 578 0 q 554 41 554 24 l 554 414 q 495 556 554 497 q 353 615 436 615 q 212 556 271 615 q 153 414 153 497 l 153 41 z "},"n":{"ha":710,"x_min":68,"x_max":642,"o":"m 153 41 q 140 12 153 24 q 111 0 128 0 l 109 0 q 80 12 92 0 q 68 41 68 24 l 68 412 q 152 616 68 532 q 355 700 236 700 q 558 616 474 700 q 642 412 642 532 l 642 41 q 630 12 642 24 q 601 0 618 0 l 600 0 q 570 12 582 0 q 557 41 557 24 l 557 412 q 498 555 557 496 q 355 615 439 615 q 212 555 271 615 q 153 412 153 496 l 153 41 z "},"o":{"ha":795,"x_min":47,"x_max":747,"o":"m 397 614 q 210 536 288 614 q 132 348 132 458 q 210 161 132 239 q 397 83 288 83 q 585 161 508 83 q 663 348 663 239 q 585 536 663 458 q 397 614 508 614 m 397 700 q 645 597 543 700 q 747 350 747 495 q 645 102 747 205 q 397 0 543 0 q 150 102 252 0 q 47 350 47 205 q 150 597 47 495 q 397 700 252 700 z "},"p":{"ha":815,"x_min":68,"x_max":768,"o":"m 418 86 q 605 164 528 86 q 683 351 683 242 q 605 539 683 461 q 418 616 528 616 q 230 539 308 616 q 153 351 153 461 q 230 164 153 242 q 418 86 308 86 m 109 -279 q 80 -267 92 -279 q 68 -237 68 -254 l 68 351 q 171 598 68 496 q 418 700 273 700 q 665 597 563 700 q 768 350 768 495 q 665 102 768 205 q 418 0 563 0 q 153 118 285 0 l 153 -237 q 140 -267 153 -254 q 111 -279 128 -279 l 109 -279 z "},"q":{"ha":815,"x_min":47,"x_max":747,"o":"m 397 86 q 585 164 508 86 q 663 351 663 242 q 585 539 663 461 q 397 616 507 616 q 210 539 288 616 q 132 351 132 461 q 210 164 132 242 q 397 86 288 86 m 704 -279 q 675 -267 687 -279 q 663 -237 663 -254 l 663 118 q 397 0 530 0 q 150 102 252 0 q 47 350 47 205 q 150 597 47 495 q 397 700 252 700 q 644 598 542 700 q 747 351 747 496 l 747 -237 q 735 -267 747 -254 q 706 -279 723 -279 l 704 -279 z "},"r":{"ha":413,"x_min":68,"x_max":406,"o":"m 365 700 q 395 688 382 700 q 406 658 406 675 l 406 656 q 395 627 406 639 q 365 615 382 615 l 326 615 q 203 564 254 615 q 153 441 153 513 l 153 41 q 140 12 153 24 q 111 0 128 0 l 109 0 q 80 12 92 0 q 68 41 68 24 l 68 441 q 143 625 69 549 q 326 700 218 700 l 365 700 z "},"s":{"ha":496,"x_min":41,"x_max":455,"o":"m 237 615 q 159 583 191 615 q 126 504 126 549 q 187 406 126 439 q 309 370 205 397 q 411 319 380 349 q 455 196 455 277 q 398 57 455 115 q 259 0 340 0 l 82 0 q 53 12 65 0 q 41 41 41 24 l 41 43 q 53 73 41 60 q 82 85 65 85 l 266 85 q 345 117 312 85 q 377 196 377 150 q 315 289 377 259 q 195 326 302 295 q 92 377 125 347 q 48 504 48 421 q 105 642 48 585 q 244 700 163 700 l 369 700 q 399 688 387 700 q 411 658 411 675 l 411 656 q 399 627 411 640 q 369 615 387 615 l 237 615 z "},"t":{"ha":363,"x_min":68,"x_max":336,"o":"m 111 978 q 140 966 128 978 q 153 937 153 954 l 153 700 l 295 700 q 324 688 312 700 q 336 658 336 675 l 336 656 q 324 627 336 640 q 295 615 312 615 l 153 615 l 153 172 q 178 111 153 136 q 241 85 204 85 l 295 85 q 324 73 312 85 q 336 43 336 60 l 336 41 q 324 12 336 24 q 295 0 312 0 l 241 0 q 118 50 169 0 q 68 172 68 101 l 68 937 q 80 966 68 954 q 109 978 92 978 l 111 978 z "},"u":{"ha":710,"x_min":68,"x_max":642,"o":"m 153 287 q 212 144 153 203 q 355 85 271 85 q 498 144 439 85 q 557 287 557 203 l 557 658 q 570 688 557 675 q 600 700 582 700 l 601 700 q 630 688 618 700 q 642 658 642 675 l 642 287 q 558 84 642 168 q 355 0 474 0 q 152 84 236 0 q 68 287 68 168 l 68 658 q 80 688 68 675 q 109 700 92 700 l 111 700 q 140 688 128 700 q 153 658 153 675 l 153 287 z "},"v":{"ha":690,"x_min":7,"x_max":684,"o":"m 345 109 q 350 109 345 109 q 367 137 355 109 l 370 145 l 597 674 q 635 700 608 700 l 637 700 q 671 682 659 700 q 675 642 684 663 l 422 53 q 345 0 399 0 q 268 53 291 0 l 16 642 q 19 682 7 663 q 54 700 31 700 l 55 700 q 93 674 82 700 l 320 145 l 323 137 q 345 109 335 109 z "},"w":{"ha":1193,"x_min":68,"x_max":1125,"o":"m 153 286 q 212 144 153 203 q 353 85 271 85 q 495 144 436 85 q 554 286 554 203 l 554 658 q 566 688 554 675 q 596 700 578 700 l 597 700 q 627 688 614 700 q 639 658 639 675 l 639 286 q 698 144 639 203 q 840 85 757 85 q 982 144 923 85 q 1041 286 1041 203 l 1041 658 q 1053 688 1041 675 q 1082 700 1065 700 l 1084 700 q 1114 688 1101 700 q 1125 658 1125 675 l 1125 286 q 1042 83 1125 167 q 840 0 958 0 q 597 133 699 0 q 353 0 494 0 q 151 83 235 0 q 68 286 68 167 l 68 658 q 80 688 68 675 q 109 700 92 700 l 111 700 q 140 688 128 700 q 153 658 153 675 l 153 286 z "},"x":{"ha":690,"x_min":58,"x_max":632,"o":"m 142 598 q 201 455 142 515 q 345 395 261 395 q 488 455 429 395 q 547 598 547 515 l 547 658 q 559 688 547 675 q 589 700 572 700 l 591 700 q 620 688 608 700 q 632 659 632 675 l 632 598 q 498 353 632 456 q 632 109 632 250 l 632 41 q 620 12 632 24 q 591 0 608 0 l 589 0 q 559 12 572 0 q 547 41 547 24 l 547 109 q 488 252 547 192 q 345 311 429 311 q 201 252 261 311 q 142 109 142 192 l 142 41 q 130 12 142 24 q 101 0 118 0 l 99 0 q 70 12 82 0 q 58 41 58 24 l 58 109 q 192 353 58 250 q 58 598 58 456 l 58 658 q 70 688 58 675 q 99 700 82 700 l 101 700 q 130 688 118 700 q 142 658 142 675 l 142 598 z "},"y":{"ha":710,"x_min":68,"x_max":642,"o":"m 153 302 q 212 159 153 218 q 355 99 271 99 q 498 159 439 99 q 557 302 557 217 l 557 658 q 570 688 557 675 q 600 700 582 700 l 601 700 q 630 688 618 700 q 642 658 642 675 l 642 9 q 553 -195 642 -108 q 355 -279 467 -279 q 191 -234 264 -279 q 83 -119 120 -192 q 82 -85 75 -103 q 108 -62 89 -68 l 111 -60 q 138 -61 123 -56 q 159 -81 152 -67 q 239 -163 186 -132 q 355 -194 293 -194 q 496 -134 436 -194 q 557 9 557 -75 l 557 94 q 355 15 450 15 q 152 99 236 15 q 68 302 68 182 l 68 658 q 80 688 68 675 q 109 700 92 700 l 111 700 q 140 688 128 700 q 153 658 153 675 l 153 302 z "},"z":{"ha":653,"x_min":31,"x_max":612,"o":"m 600 649 q 520 700 577 701 l 113 700 q 83 688 96 700 q 71 659 71 675 l 71 656 q 83 627 71 640 q 113 615 96 615 l 528 615 l 71 144 q 54 51 31 103 q 133 0 76 -1 l 570 0 q 600 12 588 0 q 612 41 612 24 l 612 43 q 600 73 612 60 q 570 84 588 84 l 125 84 l 582 556 q 608 615 608 583 q 600 649 607 631 z "},"{":{"ha":418,"x_min":34,"x_max":385,"o":"m 64 389 q 112 415 91 398 q 163 499 151 446 q 176 657 176 556 q 178 811 176 783 q 199 896 184 865 q 234 944 213 926 q 289 972 256 962 q 357 978 310 977 q 377 970 369 978 q 385 951 385 962 l 385 937 q 378 919 385 927 q 360 911 370 911 q 277 880 301 907 q 247 711 249 849 q 241 532 243 546 q 119 345 220 403 q 243 138 224 293 q 249 2 249 85 q 250 -117 249 -100 q 285 -195 257 -171 q 359 -217 307 -213 q 377 -225 370 -218 q 385 -243 385 -233 l 385 -256 q 376 -276 385 -268 q 357 -283 369 -283 q 277 -274 302 -283 q 215 -230 239 -260 q 182 -151 190 -199 q 174 20 174 -103 q 161 194 175 136 q 111 279 149 248 q 64 304 91 296 q 34 344 34 313 l 34 350 q 64 389 34 381 z "},"|":{"ha":356,"x_min":136,"x_max":218,"o":"m 136 978 l 218 978 l 218 -282 l 136 -282 l 136 978 z "},"}":{"ha":418,"x_min":34,"x_max":385,"o":"m 355 389 q 385 350 385 381 l 385 344 q 355 304 385 313 q 307 279 329 296 q 258 194 269 247 q 244 20 244 136 q 236 -151 244 -103 q 204 -230 229 -199 q 141 -274 179 -260 q 61 -283 117 -283 q 42 -276 50 -283 q 34 -256 34 -268 l 34 -243 q 41 -225 34 -233 q 59 -217 48 -218 q 134 -195 111 -213 q 169 -117 161 -171 q 170 2 170 -100 q 176 138 170 85 q 300 345 194 293 q 178 532 199 403 q 172 711 175 546 q 142 880 170 849 q 59 911 118 907 q 41 919 48 911 q 34 937 34 927 l 34 951 q 42 970 34 962 q 61 978 50 978 q 130 972 109 977 q 184 944 163 962 q 220 896 205 926 q 240 811 235 865 q 243 657 243 783 q 256 499 243 555 q 307 415 268 446 q 355 389 328 398 z "},"~":{"ha":633,"x_min":24,"x_max":610,"o":"m 31 449 q 170 510 84 506 q 248 503 205 513 q 322 479 275 496 q 395 454 375 460 q 471 445 438 443 q 574 484 522 447 q 595 486 584 492 q 602 477 599 484 q 608 459 607 469 q 607 440 610 449 q 602 429 605 432 q 539 387 571 401 q 463 370 506 373 q 380 379 422 368 q 295 409 353 387 q 163 436 217 439 q 59 397 109 433 q 49 393 54 394 q 39 395 44 393 q 31 404 34 397 q 26 420 26 410 q 26 439 24 430 q 31 449 28 446 z "},"¡":{"ha":285,"x_min":88,"x_max":197,"o":"m 100 205 l 121 473 l 164 473 l 185 205 l 185 -196 q 173 -226 185 -214 q 144 -237 161 -237 l 142 -237 q 113 -226 125 -237 q 100 -196 100 -214 l 100 205 m 142 701 q 181 685 165 701 q 197 646 197 669 q 181 608 197 624 q 142 593 165 593 q 104 608 120 593 q 88 646 88 625 q 104 685 88 669 q 142 701 120 701 z "},"¢":{"ha":686,"x_min":33,"x_max":654,"o":"m 310 69 q 356 65 345 65 q 572 195 499 58 l 654 176 q 557 45 627 102 q 357 -18 473 -18 q 290 -9 332 -18 l 222 -277 l 165 -277 l 239 9 q 136 90 178 44 q 33 351 33 202 q 128 613 33 505 q 357 720 223 720 q 419 715 379 720 l 481 960 l 536 960 l 471 700 q 545 659 517 679 q 644 525 618 600 l 553 509 q 483 591 527 555 q 449 616 478 595 l 310 69 m 398 635 q 357 638 366 638 q 190 550 260 638 q 123 351 123 460 q 197 152 123 247 q 260 92 216 130 l 398 635 z "},"£":{"ha":747,"x_min":68,"x_max":679,"o":"m 582 755 q 515 854 565 816 q 401 894 465 894 q 267 838 323 894 q 212 705 212 783 l 212 482 l 448 482 q 477 470 465 482 q 489 441 489 458 l 489 439 q 477 410 489 422 q 448 397 465 397 l 212 397 l 212 85 l 637 85 q 667 73 654 85 q 679 43 679 60 l 679 41 q 667 12 679 24 q 637 0 654 0 l 168 0 q 139 12 151 0 q 127 41 127 24 l 127 397 l 87 397 q 73 403 79 397 q 68 417 68 408 l 68 463 q 73 477 68 471 q 87 482 79 482 l 127 482 l 127 705 q 207 898 127 819 q 401 978 287 978 q 568 921 494 978 q 664 777 640 865 q 657 741 669 758 q 624 725 645 725 l 622 725 q 582 755 591 725 z "},"¤":{"ha":755,"x_min":42,"x_max":713,"o":"m 378 718 q 221 652 286 718 q 156 496 156 587 q 221 338 156 404 q 378 273 286 273 q 534 338 469 273 q 600 496 600 404 q 534 652 600 587 q 378 718 469 718 m 145 672 l 42 774 l 98 831 l 201 728 q 378 787 286 787 q 556 728 471 787 l 659 831 l 713 776 l 610 672 q 669 496 669 588 q 610 319 669 403 l 713 215 l 658 160 l 555 263 q 378 204 470 204 q 201 263 286 204 l 98 160 l 43 215 l 146 317 q 87 496 87 404 q 145 672 87 587 z "},"¥":{"ha":743,"x_min":20,"x_max":722,"o":"m 405 153 l 405 0 l 326 0 l 326 153 l 133 153 l 133 223 l 326 223 l 326 334 l 133 334 l 133 404 l 332 404 l 20 1021 l 106 1021 l 364 505 l 635 1021 l 722 1021 l 397 404 l 610 404 l 610 334 l 405 334 l 405 223 l 610 223 l 610 153 l 405 153 z "},"¦":{"ha":287,"x_min":102,"x_max":185,"o":"m 102 1019 l 185 1019 l 185 488 l 102 488 l 102 1019 m 102 218 l 185 218 l 185 -314 l 102 -314 l 102 218 z "},"§":{"ha":688,"x_min":54,"x_max":659,"o":"m 484 129 q 623 32 591 75 q 650 -25 641 6 q 657 -98 659 -58 q 602 -236 654 -175 q 475 -319 555 -292 q 357 -338 416 -340 q 54 -108 99 -332 l 129 -95 q 259 -256 153 -205 q 350 -278 296 -275 q 527 -218 456 -286 q 574 -139 562 -184 q 559 -18 593 -71 q 460 59 530 28 q 346 98 408 79 q 144 187 197 141 q 81 346 81 244 q 170 536 81 471 q 244 578 188 549 q 144 634 167 614 q 81 793 81 691 q 170 983 81 918 q 295 1034 222 1021 q 370 1038 331 1040 q 553 981 488 1034 q 637 833 621 926 l 559 822 q 450 959 541 914 q 359 978 410 978 q 228 937 284 978 q 162 813 164 889 q 173 741 161 773 q 208 687 184 711 q 287 636 243 651 q 410 600 331 621 q 623 479 570 552 q 650 422 641 453 q 657 349 659 389 q 602 211 654 272 q 484 129 569 172 m 354 169 q 527 229 458 163 q 574 308 562 263 q 559 429 593 376 q 460 506 530 475 q 403 527 433 517 q 359 531 381 531 q 228 490 284 531 q 162 366 164 442 q 173 294 161 326 q 208 240 184 264 q 289 189 243 204 q 354 169 314 180 z "},"¨":{"ha":490,"x_min":68,"x_max":422,"o":"m 122 802 q 83 818 99 802 q 68 857 68 833 q 83 895 68 879 q 122 910 99 910 q 160 895 144 910 q 176 857 176 878 q 160 818 176 834 q 122 802 144 802 m 368 802 q 330 818 345 802 q 314 857 314 833 q 330 895 314 879 q 368 910 345 910 q 406 895 391 910 q 422 857 422 878 q 406 818 422 834 q 368 802 391 802 z "},"©":{"ha":1187,"x_min":68,"x_max":1120,"o":"m 594 1013 q 852 945 726 1013 q 1049 750 979 877 q 1120 486 1120 623 q 1050 225 1120 351 q 856 30 981 99 q 594 -39 730 -39 q 333 30 458 -39 q 138 225 208 99 q 68 486 68 351 q 139 750 68 623 q 336 945 210 877 q 594 1013 462 1013 m 594 963 q 360 901 473 963 q 182 725 246 840 q 117 486 117 610 q 181 250 117 363 q 357 74 244 137 q 594 10 471 10 q 831 74 718 10 q 1007 250 944 137 q 1070 486 1070 363 q 1006 725 1070 610 q 828 901 942 840 q 594 963 714 963 m 798 627 q 745 714 788 671 q 604 768 688 768 q 448 702 512 768 q 385 543 385 637 l 385 422 q 448 264 385 330 q 604 197 512 197 q 743 251 686 197 q 805 363 797 303 l 845 359 q 767 221 835 284 q 604 157 698 157 q 417 237 494 157 q 340 427 340 315 l 340 539 q 417 730 340 651 q 604 809 494 809 q 768 745 698 809 q 836 635 824 692 l 798 627 z "},"ª":{"ha":584,"x_min":68,"x_max":516,"o":"m 292 978 q 451 918 385 978 q 516 776 516 859 l 516 591 q 511 580 516 585 q 496 574 505 574 l 494 574 q 479 580 485 574 q 474 591 474 585 l 474 679 q 292 574 420 574 q 133 634 199 574 q 68 776 68 693 q 133 918 68 859 q 292 978 199 978 m 292 926 q 176 883 224 926 q 128 776 128 839 q 176 669 128 713 q 292 626 224 626 q 407 669 359 626 q 456 776 456 713 q 407 883 456 839 q 292 926 359 926 z "},"«":{"ha":686,"x_min":20,"x_max":632,"o":"m 273 699 l 365 699 l 100 468 l 365 237 l 273 237 l 26 455 q 20 468 20 460 q 26 481 20 477 l 273 699 m 540 699 l 632 699 l 367 468 l 632 237 l 540 237 l 293 455 q 288 468 288 460 q 293 481 288 477 l 540 699 z "},"¬":{"ha":669,"x_min":88,"x_max":581,"o":"m 88 513 l 581 513 l 581 237 l 532 237 l 532 471 l 88 471 l 88 513 z "},"®":{"ha":1187,"x_min":68,"x_max":1120,"o":"m 594 1019 q 852 951 726 1019 q 1049 757 979 884 q 1120 493 1120 630 q 1050 232 1120 357 q 856 37 981 106 q 594 -33 730 -33 q 333 37 458 -33 q 138 232 208 106 q 68 493 68 357 q 139 757 68 630 q 336 951 210 884 q 594 1019 462 1019 m 594 970 q 360 908 473 970 q 182 732 246 846 q 117 493 117 617 q 181 257 117 370 q 357 80 244 144 q 594 17 471 17 q 831 80 718 17 q 1007 257 944 144 q 1070 493 1070 370 q 1006 732 1070 617 q 828 908 942 846 q 594 970 714 970 m 417 798 l 656 798 q 772 749 724 797 q 820 633 820 701 q 760 505 820 555 q 695 472 730 479 q 604 467 660 465 l 810 143 l 766 143 l 557 467 l 463 467 l 463 143 l 417 143 l 417 798 m 656 507 q 744 545 715 511 q 780 633 780 581 q 744 720 780 684 q 656 758 708 757 l 463 758 l 463 507 l 656 507 z "},"¯":{"ha":564,"x_min":34,"x_max":442,"o":"m 442 923 q 430 894 442 906 q 400 882 418 882 l 75 882 q 46 894 58 882 q 34 923 34 906 l 34 924 q 46 954 34 942 q 75 966 58 966 l 400 966 q 430 954 418 966 q 442 924 442 942 l 442 923 z "},"°":{"ha":530,"x_min":68,"x_max":463,"o":"m 128 802 q 167 710 128 747 q 257 671 204 671 l 272 671 q 363 710 326 671 q 402 802 402 747 q 363 892 402 854 q 272 930 326 930 l 257 930 q 167 892 205 930 q 128 802 128 854 m 68 802 q 122 932 68 878 q 254 986 176 986 l 277 986 q 408 932 353 986 q 463 802 463 878 q 408 670 463 724 q 277 616 353 616 l 254 616 q 122 670 176 616 q 68 802 68 724 z "},"±":{"ha":700,"x_min":34,"x_max":666,"o":"m 393 532 l 624 532 q 654 519 642 532 q 666 490 666 507 l 666 488 q 654 459 666 471 q 624 447 642 447 l 393 447 l 393 216 q 380 186 393 198 q 351 174 368 174 l 349 174 q 320 186 332 174 q 308 216 308 198 l 308 447 l 75 447 q 46 459 58 447 q 34 488 34 471 l 34 490 q 46 519 34 507 q 75 532 58 532 l 308 532 l 308 764 q 320 793 308 781 q 349 806 332 806 l 351 806 q 380 793 368 806 q 393 764 393 781 l 393 532 m 666 41 q 654 12 666 24 q 624 0 642 0 l 75 0 q 46 12 58 0 q 34 41 34 24 l 34 43 q 46 73 34 60 q 75 85 58 85 l 624 85 q 654 73 642 85 q 666 43 666 60 l 666 41 z "},"´":{"ha":380,"x_min":110,"x_max":361,"o":"m 189 782 q 178 777 184 777 l 116 777 q 111 780 113 777 q 113 787 110 783 l 232 957 q 235 958 233 958 l 353 958 q 360 951 361 958 l 189 782 z "},"µ":{"ha":724,"x_min":75,"x_max":649,"o":"m 159 137 l 159 -237 q 147 -267 159 -254 q 118 -279 135 -279 l 116 -279 q 87 -267 99 -279 q 75 -237 75 -254 l 75 658 q 87 688 75 675 q 116 699 99 699 l 118 699 q 147 687 135 699 q 159 657 159 675 l 159 286 q 218 143 159 203 q 362 84 278 84 q 505 143 446 84 q 564 286 564 203 l 564 658 q 576 688 564 675 q 606 699 589 699 l 608 699 q 637 688 625 699 q 649 658 649 675 l 649 -34 q 637 -63 649 -51 q 608 -75 625 -75 l 606 -75 q 576 -63 589 -75 q 564 -34 564 -51 l 564 137 q 362 -1 477 -1 q 159 137 247 -1 z "},"¶":{"ha":684,"x_min":68,"x_max":646,"o":"m 646 959 l 587 959 l 587 0 l 526 0 l 526 959 l 403 959 l 403 0 l 336 0 l 336 474 q 134 571 199 494 q 68 747 68 646 q 134 922 68 846 q 316 1019 204 1010 l 646 1019 l 646 959 z "},"·":{"ha":222,"x_min":68,"x_max":154,"o":"m 111 446 q 80 458 92 446 q 68 489 68 471 q 80 519 68 507 q 111 532 92 532 q 141 519 129 532 q 154 489 154 507 q 141 458 154 471 q 111 446 129 446 z "},"∙":{"ha":222,"x_min":68,"x_max":154,"o":"m 111 446 q 80 458 92 446 q 68 489 68 471 q 80 519 68 507 q 111 532 92 532 q 141 519 129 532 q 154 489 154 507 q 141 458 154 471 q 111 446 129 446 z "},"¸":{"ha":393,"x_min":62,"x_max":331,"o":"m 167 -111 q 161 -113 167 -111 q 149 -108 155 -115 q 145 -92 144 -100 l 163 3 l 219 3 l 205 -60 q 298 -89 268 -61 q 331 -153 329 -116 q 288 -230 331 -196 q 148 -266 243 -266 q 83 -263 116 -266 q 68 -255 74 -261 q 62 -241 62 -248 l 64 -229 q 71 -215 64 -220 q 85 -209 77 -210 q 121 -212 100 -210 q 225 -197 193 -219 q 243 -182 236 -190 q 255 -153 255 -169 q 238 -120 255 -134 q 198 -107 222 -107 q 167 -111 179 -107 z "},"»":{"ha":693,"x_min":54,"x_max":673,"o":"m 393 481 q 399 468 399 477 q 393 455 399 460 l 146 237 l 54 237 l 319 468 l 54 699 l 146 699 l 393 481 m 667 481 q 673 468 673 477 q 667 455 673 460 l 420 237 l 328 237 l 593 468 l 328 699 l 420 699 l 667 481 z "},"¼":{"ha":1126,"x_min":27,"x_max":1099,"o":"m 229 410 q 218 389 229 399 q 191 380 208 380 l 190 380 q 163 389 174 380 q 153 410 153 399 l 153 917 l 64 917 q 37 927 48 917 q 27 947 27 935 l 27 947 q 37 968 27 959 q 64 978 48 978 l 191 978 q 220 968 208 978 q 229 947 229 959 l 229 410 m 611 1025 l 283 -84 l 229 -84 l 558 1025 l 611 1025 m 857 581 q 891 597 867 597 l 957 597 q 985 587 974 597 q 995 567 995 578 l 995 180 l 1061 180 q 1089 169 1078 180 q 1099 149 1099 160 l 1099 148 q 1088 127 1099 137 q 1061 118 1078 118 l 995 118 l 995 30 q 985 11 995 19 q 957 0 974 0 l 956 0 q 928 11 939 0 q 918 30 918 19 l 918 118 l 656 118 q 629 128 640 118 q 619 148 619 137 l 619 176 q 623 190 619 184 l 857 581 m 918 180 l 918 543 l 701 180 l 918 180 z "},"½":{"ha":1066,"x_min":27,"x_max":1039,"o":"m 229 410 q 218 389 229 399 q 191 380 208 380 l 190 380 q 163 389 174 380 q 153 410 153 399 l 153 917 l 64 917 q 37 927 48 917 q 27 947 27 935 l 27 947 q 37 968 27 959 q 64 978 48 978 l 191 978 q 220 968 208 978 q 229 947 229 959 l 229 410 m 611 1025 l 283 -84 l 229 -84 l 558 1025 l 611 1025 m 856 597 q 983 551 931 597 q 1034 437 1034 503 q 984 334 1034 381 q 869 256 952 304 q 753 180 784 208 q 699 62 699 130 l 1001 62 q 1029 51 1018 62 q 1039 31 1039 42 l 1039 30 q 1029 10 1039 19 q 1001 0 1018 0 l 656 0 q 629 10 640 0 q 619 30 619 19 l 619 68 q 670 191 619 135 q 785 276 707 229 q 903 348 884 335 q 958 437 958 391 q 926 509 958 479 q 856 536 897 536 l 679 536 q 650 546 661 536 q 641 566 641 555 l 641 567 q 650 587 641 578 q 679 597 662 597 l 856 597 z "},"¾":{"ha":1274,"x_min":27,"x_max":1246,"o":"m 188 978 q 316 930 262 978 q 366 818 366 883 q 296 690 366 745 q 376 550 376 632 q 321 430 376 481 q 188 380 267 380 l 64 380 q 37 391 48 380 q 27 410 27 399 l 27 412 q 39 433 27 422 q 64 442 48 442 l 188 442 q 266 472 233 442 q 300 550 300 504 q 266 628 300 596 q 188 658 233 658 l 84 658 q 58 667 67 658 q 47 688 47 677 l 47 689 q 56 709 47 700 q 84 719 67 719 l 188 720 q 258 747 229 720 q 290 818 290 776 q 259 889 290 860 q 188 917 229 917 l 64 917 q 37 927 48 917 q 27 947 27 935 l 27 947 q 37 968 27 959 q 64 978 48 978 l 188 978 m 759 1025 l 431 -84 l 377 -84 l 706 1025 l 759 1025 m 1005 581 q 1039 597 1015 597 l 1105 597 q 1133 587 1122 597 q 1143 567 1143 578 l 1143 180 l 1209 180 q 1237 169 1225 180 q 1246 149 1246 160 l 1246 148 q 1236 127 1246 137 q 1209 118 1226 118 l 1143 118 l 1143 30 q 1133 11 1143 19 q 1105 0 1122 0 l 1104 0 q 1076 11 1087 0 q 1066 30 1066 19 l 1066 118 l 804 118 q 777 128 788 118 q 767 148 767 137 l 767 176 q 770 190 767 184 l 1005 581 m 1066 180 l 1066 543 l 849 180 l 1066 180 z "},"¿":{"ha":671,"x_min":91,"x_max":649,"o":"m 373 -227 q 173 -145 256 -227 q 91 55 91 -62 q 153 232 91 155 q 334 336 215 309 l 334 456 q 345 484 334 472 q 374 496 357 496 l 376 496 q 404 484 393 496 q 416 455 416 472 l 416 296 q 404 267 416 279 q 376 255 392 256 l 373 255 q 232 197 290 255 q 173 55 173 138 q 232 -87 173 -28 q 373 -145 290 -145 q 493 -105 440 -145 q 565 -4 545 -66 q 579 17 568 9 q 603 24 589 24 l 605 24 q 637 8 625 24 q 643 -27 649 -8 q 543 -171 616 -115 q 373 -227 467 -227 m 375 741 q 414 725 398 741 q 429 686 429 709 q 414 648 429 664 q 375 633 398 633 q 337 648 353 633 q 321 686 321 665 q 337 725 321 709 q 375 741 353 741 z "},"À":{"ha":770,"x_min":75,"x_max":695,"o":"m 695 41 q 683 12 695 24 q 654 0 671 0 l 652 0 q 623 12 635 0 q 610 41 610 24 l 610 385 l 159 385 l 159 41 q 147 12 159 24 q 118 0 135 0 l 116 0 q 87 12 99 0 q 75 41 75 24 l 75 668 q 165 888 75 797 q 385 978 256 978 q 604 888 513 978 q 695 668 695 797 l 695 41 m 610 469 l 610 668 q 545 827 610 761 q 385 894 478 894 q 225 827 292 894 q 159 668 159 761 l 159 469 l 610 469 m 224 1229 q 231 1236 222 1236 l 349 1236 q 352 1235 351 1236 l 471 1065 q 473 1058 474 1061 q 468 1055 471 1055 l 406 1055 q 395 1060 400 1055 l 224 1229 z "},"Á":{"ha":770,"x_min":75,"x_max":695,"o":"m 695 41 q 683 12 695 24 q 654 0 671 0 l 652 0 q 623 12 635 0 q 610 41 610 24 l 610 385 l 159 385 l 159 41 q 147 12 159 24 q 118 0 135 0 l 116 0 q 87 12 99 0 q 75 41 75 24 l 75 668 q 165 888 75 797 q 385 978 256 978 q 604 888 513 978 q 695 668 695 797 l 695 41 m 610 469 l 610 668 q 545 827 610 761 q 385 894 478 894 q 225 827 292 894 q 159 668 159 761 l 159 469 l 610 469 m 378 1060 q 367 1055 373 1055 l 305 1055 q 300 1058 302 1055 q 302 1065 299 1061 l 421 1235 q 425 1236 422 1236 l 543 1236 q 549 1229 551 1236 l 378 1060 z "},"Â":{"ha":770,"x_min":75,"x_max":695,"o":"m 695 41 q 683 12 695 24 q 654 0 671 0 l 652 0 q 623 12 635 0 q 610 41 610 24 l 610 385 l 159 385 l 159 41 q 147 12 159 24 q 118 0 135 0 l 116 0 q 87 12 99 0 q 75 41 75 24 l 75 668 q 165 888 75 797 q 385 978 256 978 q 604 888 513 978 q 695 668 695 797 l 695 41 m 610 469 l 610 668 q 545 827 610 761 q 385 894 478 894 q 225 827 292 894 q 159 668 159 761 l 159 469 l 610 469 m 445 1236 q 448 1235 448 1236 l 568 1065 q 569 1058 570 1061 q 564 1055 568 1055 l 503 1055 q 492 1060 496 1055 l 385 1172 l 278 1060 q 267 1055 273 1055 l 205 1055 q 201 1058 202 1055 q 202 1065 199 1061 l 321 1235 q 325 1236 322 1236 l 445 1236 z "},"Ã":{"ha":770,"x_min":75,"x_max":695,"o":"m 695 41 q 683 12 695 24 q 654 0 671 0 l 652 0 q 623 12 635 0 q 610 41 610 24 l 610 385 l 159 385 l 159 41 q 147 12 159 24 q 118 0 135 0 l 116 0 q 87 12 99 0 q 75 41 75 24 l 75 668 q 165 888 75 797 q 385 978 256 978 q 604 888 513 978 q 695 668 695 797 l 695 41 m 610 469 l 610 668 q 545 827 610 761 q 385 894 478 894 q 225 827 292 894 q 159 668 159 761 l 159 469 l 610 469 m 157 1085 q 194 1154 165 1128 q 275 1180 227 1180 q 376 1152 317 1180 q 443 1133 411 1136 q 493 1173 484 1135 q 511 1185 496 1185 l 534 1185 q 549 1179 543 1185 q 553 1165 554 1173 q 441 1068 537 1068 q 342 1099 399 1068 q 279 1114 311 1114 q 225 1078 235 1114 q 208 1065 222 1065 l 176 1065 q 161 1071 168 1065 q 157 1085 156 1078 z "},"Ä":{"ha":770,"x_min":75,"x_max":695,"o":"m 695 41 q 683 12 695 24 q 654 0 671 0 l 652 0 q 623 12 635 0 q 610 41 610 24 l 610 385 l 159 385 l 159 41 q 147 12 159 24 q 118 0 135 0 l 116 0 q 87 12 99 0 q 75 41 75 24 l 75 668 q 165 888 75 797 q 385 978 256 978 q 604 888 513 978 q 695 668 695 797 l 695 41 m 610 469 l 610 668 q 545 827 610 761 q 385 894 478 894 q 225 827 292 894 q 159 668 159 761 l 159 469 l 610 469 m 262 1080 q 223 1096 239 1080 q 208 1135 208 1112 q 223 1173 208 1157 q 262 1188 239 1188 q 300 1173 284 1188 q 316 1135 316 1156 q 300 1096 316 1112 q 262 1080 284 1080 m 508 1080 q 469 1096 485 1080 q 454 1135 454 1112 q 469 1173 454 1157 q 508 1188 485 1188 q 546 1173 530 1188 q 562 1135 562 1156 q 546 1096 562 1112 q 508 1080 530 1080 z "},"Å":{"ha":770,"x_min":75,"x_max":695,"o":"m 695 41 q 683 12 695 24 q 654 0 671 0 l 652 0 q 623 12 635 0 q 610 41 610 24 l 610 385 l 159 385 l 159 41 q 147 12 159 24 q 118 0 135 0 l 116 0 q 87 12 99 0 q 75 41 75 24 l 75 668 q 165 888 75 797 q 385 978 256 978 q 604 888 513 978 q 695 668 695 797 l 695 41 m 610 469 l 610 668 q 545 827 610 761 q 385 894 478 894 q 225 827 292 894 q 159 668 159 761 l 159 469 l 610 469 m 315 1141 q 335 1094 315 1113 q 381 1074 354 1074 l 389 1074 q 435 1094 416 1074 q 456 1141 456 1113 q 435 1189 456 1168 q 389 1208 416 1208 l 381 1208 q 335 1189 354 1208 q 315 1141 315 1168 m 254 1141 q 290 1228 254 1192 q 377 1264 326 1264 l 393 1264 q 481 1228 444 1264 q 517 1141 517 1192 q 481 1054 517 1090 q 393 1018 444 1018 l 377 1018 q 290 1054 326 1018 q 254 1141 254 1090 z "},"Æ":{"ha":1152,"x_min":75,"x_max":1101,"o":"m 610 469 l 610 668 q 545 827 610 761 q 385 894 478 894 q 225 827 292 894 q 159 668 159 761 l 159 469 l 610 469 m 611 271 q 610 279 610 275 l 610 385 l 159 385 l 159 41 q 147 12 159 24 q 118 0 135 0 l 116 0 q 87 12 99 0 q 75 41 75 24 l 75 668 q 165 888 75 797 q 385 978 256 978 q 604 888 513 978 q 630 862 608 884 q 671 918 656 901 q 818 978 732 978 l 1059 978 q 1089 966 1077 978 q 1101 937 1101 954 l 1101 935 q 1089 905 1101 918 q 1059 893 1077 893 l 818 893 q 731 857 767 893 q 695 771 695 821 l 695 531 l 1059 531 q 1089 519 1077 531 q 1101 490 1101 507 l 1101 488 q 1089 458 1101 471 q 1059 446 1077 446 l 695 446 l 695 207 q 731 120 695 156 q 818 84 767 84 l 1059 84 q 1089 73 1077 84 q 1101 43 1101 60 l 1101 41 q 1089 12 1101 24 q 1059 0 1077 0 l 818 0 q 671 60 732 0 q 611 207 611 121 l 611 271 z "},"Ç":{"ha":734,"x_min":51,"x_max":693,"o":"m 540 978 q 662 963 602 978 q 693 923 693 955 l 693 921 q 677 888 693 901 q 641 881 661 876 q 540 894 591 894 q 254 775 373 894 q 136 489 136 656 q 254 203 136 321 q 540 85 373 85 q 641 97 591 85 q 677 90 661 102 q 693 57 693 77 l 693 56 q 662 15 693 23 q 540 0 602 0 q 194 143 337 0 q 51 489 51 286 q 194 835 51 692 q 540 978 337 978 m 500 -94 q 494 -96 500 -94 q 482 -91 488 -98 q 478 -75 477 -83 l 496 20 l 552 20 l 538 -43 q 631 -72 601 -44 q 664 -136 662 -99 q 621 -213 664 -179 q 481 -249 576 -249 q 416 -246 449 -249 q 401 -238 407 -244 q 395 -224 395 -231 l 397 -212 q 404 -198 397 -203 q 418 -192 410 -193 q 454 -195 433 -193 q 558 -180 526 -202 q 576 -165 569 -173 q 588 -136 588 -152 q 571 -103 588 -117 q 531 -90 555 -90 q 500 -94 512 -90 z "},"È":{"ha":602,"x_min":75,"x_max":565,"o":"m 159 531 l 524 531 q 553 519 541 531 q 565 490 565 507 l 565 488 q 553 458 565 471 q 524 447 541 447 l 159 447 l 159 207 q 195 121 159 157 q 281 85 231 85 l 524 85 q 553 73 541 85 q 565 43 565 60 l 565 41 q 553 12 565 24 q 524 0 541 0 l 281 0 q 135 60 195 0 q 75 207 75 121 l 75 771 q 135 918 75 857 q 281 978 195 978 l 524 978 q 553 966 541 978 q 565 937 565 954 l 565 935 q 553 905 565 918 q 524 893 541 893 l 281 893 q 195 857 231 893 q 159 771 159 821 l 159 531 m 159 1229 q 165 1236 157 1236 l 283 1236 q 287 1235 286 1236 l 406 1065 q 408 1058 409 1061 q 403 1055 406 1055 l 341 1055 q 330 1060 335 1055 l 159 1229 z "},"É":{"ha":602,"x_min":75,"x_max":565,"o":"m 159 531 l 524 531 q 553 519 541 531 q 565 490 565 507 l 565 488 q 553 458 565 471 q 524 447 541 447 l 159 447 l 159 207 q 195 121 159 157 q 281 85 231 85 l 524 85 q 553 73 541 85 q 565 43 565 60 l 565 41 q 553 12 565 24 q 524 0 541 0 l 281 0 q 135 60 195 0 q 75 207 75 121 l 75 771 q 135 918 75 857 q 281 978 195 978 l 524 978 q 553 966 541 978 q 565 937 565 954 l 565 935 q 553 905 565 918 q 524 893 541 893 l 281 893 q 195 857 231 893 q 159 771 159 821 l 159 531 m 313 1060 q 302 1055 308 1055 l 240 1055 q 235 1058 237 1055 q 237 1065 234 1061 l 356 1235 q 359 1236 357 1236 l 477 1236 q 484 1229 486 1236 l 313 1060 z "},"Ê":{"ha":602,"x_min":75,"x_max":565,"o":"m 159 531 l 524 531 q 553 519 541 531 q 565 490 565 507 l 565 488 q 553 458 565 471 q 524 447 541 447 l 159 447 l 159 207 q 195 121 159 157 q 281 85 231 85 l 524 85 q 553 73 541 85 q 565 43 565 60 l 565 41 q 553 12 565 24 q 524 0 541 0 l 281 0 q 135 60 195 0 q 75 207 75 121 l 75 771 q 135 918 75 857 q 281 978 195 978 l 524 978 q 553 966 541 978 q 565 937 565 954 l 565 935 q 553 905 565 918 q 524 893 541 893 l 281 893 q 195 857 231 893 q 159 771 159 821 l 159 531 m 380 1236 q 383 1235 382 1236 l 503 1065 q 504 1058 505 1061 q 499 1055 503 1055 l 437 1055 q 427 1060 431 1055 l 320 1172 l 213 1060 q 202 1055 208 1055 l 140 1055 q 136 1058 137 1055 q 137 1065 134 1061 l 256 1235 q 260 1236 257 1236 l 380 1236 z "},"Ë":{"ha":602,"x_min":75,"x_max":565,"o":"m 159 531 l 524 531 q 553 519 541 531 q 565 490 565 507 l 565 488 q 553 458 565 471 q 524 447 541 447 l 159 447 l 159 207 q 195 121 159 157 q 281 85 231 85 l 524 85 q 553 73 541 85 q 565 43 565 60 l 565 41 q 553 12 565 24 q 524 0 541 0 l 281 0 q 135 60 195 0 q 75 207 75 121 l 75 771 q 135 918 75 857 q 281 978 195 978 l 524 978 q 553 966 541 978 q 565 937 565 954 l 565 935 q 553 905 565 918 q 524 893 541 893 l 281 893 q 195 857 231 893 q 159 771 159 821 l 159 531 m 197 1080 q 158 1096 174 1080 q 142 1135 142 1112 q 158 1173 142 1157 q 197 1188 174 1188 q 235 1173 219 1188 q 251 1135 251 1156 q 235 1096 251 1112 q 197 1080 219 1080 m 443 1080 q 404 1096 420 1080 q 389 1135 389 1112 q 404 1173 389 1157 q 443 1188 420 1188 q 481 1173 465 1188 q 497 1135 497 1156 q 481 1096 497 1112 q 443 1080 465 1080 z "},"Ì":{"ha":275,"x_min":-31,"x_max":221,"o":"m 138 978 q 168 966 155 978 q 180 937 180 954 l 180 41 q 168 12 180 24 q 138 0 155 0 l 136 0 q 107 12 119 0 q 95 41 95 24 l 95 937 q 107 966 95 954 q 136 978 119 978 l 138 978 m -29 1229 q -22 1236 -31 1236 l 96 1236 q 99 1235 98 1236 l 218 1065 q 220 1058 221 1061 q 215 1055 218 1055 l 153 1055 q 142 1060 147 1055 l -29 1229 z "},"Í":{"ha":275,"x_min":54,"x_max":305,"o":"m 138 978 q 168 966 155 978 q 180 937 180 954 l 180 41 q 168 12 180 24 q 138 0 155 0 l 136 0 q 107 12 119 0 q 95 41 95 24 l 95 937 q 107 966 95 954 q 136 978 119 978 l 138 978 m 132 1060 q 121 1055 127 1055 l 60 1055 q 55 1058 56 1055 q 56 1065 54 1061 l 176 1235 q 179 1236 176 1236 l 297 1236 q 304 1229 305 1236 l 132 1060 z "},"Î":{"ha":275,"x_min":-48,"x_max":323,"o":"m 138 978 q 168 966 155 978 q 180 937 180 954 l 180 41 q 168 12 180 24 q 138 0 155 0 l 136 0 q 107 12 119 0 q 95 41 95 24 l 95 937 q 107 966 95 954 q 136 978 119 978 l 138 978 m 197 1236 q 201 1235 200 1236 l 320 1065 q 321 1058 323 1061 q 317 1055 320 1055 l 255 1055 q 244 1060 249 1055 l 138 1172 l 31 1060 q 20 1055 26 1055 l -42 1055 q -47 1058 -45 1055 q -45 1065 -48 1061 l 74 1235 q 77 1236 75 1236 l 197 1236 z "},"Ï":{"ha":275,"x_min":-40,"x_max":315,"o":"m 138 978 q 168 966 155 978 q 180 937 180 954 l 180 41 q 168 12 180 24 q 138 0 155 0 l 136 0 q 107 12 119 0 q 95 41 95 24 l 95 937 q 107 966 95 954 q 136 978 119 978 l 138 978 m 14 1080 q -24 1096 -9 1080 q -40 1135 -40 1112 q -24 1173 -40 1157 q 14 1188 -9 1188 q 52 1173 37 1188 q 68 1135 68 1156 q 52 1096 68 1112 q 14 1080 37 1080 m 260 1080 q 222 1096 237 1080 q 206 1135 206 1112 q 222 1173 206 1157 q 260 1188 237 1188 q 298 1173 283 1188 q 315 1135 315 1156 q 298 1096 315 1112 q 260 1080 283 1080 z "},"Ð":{"ha":878,"x_min":7,"x_max":830,"o":"m 88 532 l 88 827 q 132 935 88 890 q 239 978 176 978 l 341 978 q 687 835 544 978 q 830 489 830 692 q 687 143 830 286 q 341 0 544 0 l 239 0 q 132 44 176 0 q 88 151 88 88 l 88 447 l 7 447 l 7 532 l 88 532 m 173 532 l 380 532 l 380 447 l 173 447 l 173 151 q 192 104 173 123 q 239 85 212 85 l 341 85 q 627 203 509 85 q 746 489 746 321 q 627 775 746 656 q 341 894 509 894 l 239 894 q 192 874 212 894 q 173 827 173 854 l 173 532 z "},"Ñ":{"ha":770,"x_min":75,"x_max":695,"o":"m 695 41 q 683 12 695 24 q 654 0 671 0 l 652 0 q 623 12 635 0 q 610 41 610 24 l 610 668 q 545 827 610 761 q 385 894 478 894 q 225 827 292 894 q 159 668 159 761 l 159 41 q 147 12 159 24 q 118 0 135 0 l 116 0 q 87 12 99 0 q 75 41 75 24 l 75 668 q 165 888 75 797 q 385 978 256 978 q 604 888 513 978 q 695 668 695 797 l 695 41 m 157 1085 q 194 1154 165 1128 q 275 1180 227 1180 q 376 1152 317 1180 q 443 1133 411 1136 q 493 1173 484 1135 q 511 1185 496 1185 l 534 1185 q 549 1179 543 1185 q 553 1165 554 1173 q 441 1068 537 1068 q 342 1099 399 1068 q 279 1114 311 1114 q 225 1078 235 1114 q 208 1065 222 1065 l 176 1065 q 161 1071 168 1065 q 157 1085 156 1078 z "},"Ò":{"ha":1087,"x_min":54,"x_max":1033,"o":"m 543 978 q 890 835 746 978 q 1033 489 1033 692 q 890 143 1033 286 q 543 0 746 0 q 197 143 340 0 q 54 489 54 286 q 197 835 54 692 q 543 978 340 978 m 543 894 q 258 775 376 894 q 139 489 139 656 q 258 203 139 321 q 543 85 376 85 q 829 203 711 85 q 948 489 948 321 q 829 775 948 656 q 543 894 711 894 m 382 1229 q 389 1236 381 1236 l 507 1236 q 511 1235 510 1236 l 630 1065 q 631 1058 633 1061 q 627 1055 630 1055 l 565 1055 q 554 1060 559 1055 l 382 1229 z "},"Ó":{"ha":1087,"x_min":54,"x_max":1033,"o":"m 543 978 q 890 835 746 978 q 1033 489 1033 692 q 890 143 1033 286 q 543 0 746 0 q 197 143 340 0 q 54 489 54 286 q 197 835 54 692 q 543 978 340 978 m 543 894 q 258 775 376 894 q 139 489 139 656 q 258 203 139 321 q 543 85 376 85 q 829 203 711 85 q 948 489 948 321 q 829 775 948 656 q 543 894 711 894 m 536 1060 q 526 1055 532 1055 l 464 1055 q 459 1058 460 1055 q 460 1065 458 1061 l 580 1235 q 583 1236 581 1236 l 701 1236 q 708 1229 709 1236 l 536 1060 z "},"Ô":{"ha":1087,"x_min":54,"x_max":1033,"o":"m 543 978 q 890 835 746 978 q 1033 489 1033 692 q 890 143 1033 286 q 543 0 746 0 q 197 143 340 0 q 54 489 54 286 q 197 835 54 692 q 543 978 340 978 m 543 894 q 258 775 376 894 q 139 489 139 656 q 258 203 139 321 q 543 85 376 85 q 829 203 711 85 q 948 489 948 321 q 829 775 948 656 q 543 894 711 894 m 604 1236 q 607 1235 606 1236 l 726 1065 q 728 1058 729 1061 q 723 1055 726 1055 l 661 1055 q 650 1060 655 1055 l 544 1172 l 437 1060 q 426 1055 432 1055 l 364 1055 q 359 1058 361 1055 q 361 1065 358 1061 l 480 1235 q 484 1236 481 1236 l 604 1236 z "},"Õ":{"ha":1087,"x_min":54,"x_max":1033,"o":"m 543 978 q 890 835 746 978 q 1033 489 1033 692 q 890 143 1033 286 q 543 0 746 0 q 197 143 340 0 q 54 489 54 286 q 197 835 54 692 q 543 978 340 978 m 543 894 q 258 775 376 894 q 139 489 139 656 q 258 203 139 321 q 543 85 376 85 q 829 203 711 85 q 948 489 948 321 q 829 775 948 656 q 543 894 711 894 m 316 1085 q 353 1154 323 1128 q 433 1180 385 1180 q 534 1152 475 1180 q 602 1133 570 1136 q 652 1173 643 1135 q 670 1185 655 1185 l 693 1185 q 707 1179 702 1185 q 711 1165 713 1173 q 600 1068 696 1068 q 501 1099 558 1068 q 437 1114 469 1114 q 384 1078 393 1114 q 366 1065 381 1065 l 334 1065 q 319 1071 326 1065 q 316 1085 315 1078 z "},"Ö":{"ha":1087,"x_min":54,"x_max":1033,"o":"m 543 978 q 890 835 746 978 q 1033 489 1033 692 q 890 143 1033 286 q 543 0 746 0 q 197 143 340 0 q 54 489 54 286 q 197 835 54 692 q 543 978 340 978 m 543 894 q 258 775 376 894 q 139 489 139 656 q 258 203 139 321 q 543 85 376 85 q 829 203 711 85 q 948 489 948 321 q 829 775 948 656 q 543 894 711 894 m 420 1080 q 382 1096 397 1080 q 366 1135 366 1112 q 382 1173 366 1157 q 420 1188 397 1188 q 458 1173 443 1188 q 475 1135 475 1156 q 458 1096 475 1112 q 420 1080 443 1080 m 667 1080 q 628 1096 644 1080 q 612 1135 612 1112 q 628 1173 612 1157 q 667 1188 644 1188 q 705 1173 689 1188 q 721 1135 721 1156 q 705 1096 721 1112 q 667 1080 689 1080 z "},"×":{"ha":541,"x_min":34,"x_max":507,"o":"m 271 550 l 434 713 q 464 726 446 726 q 491 715 481 726 l 492 714 q 507 683 507 700 q 494 653 507 665 l 331 490 l 494 326 q 507 296 507 314 q 496 269 507 279 l 495 269 q 464 254 481 254 q 434 266 446 254 l 271 429 l 106 265 q 77 254 94 253 q 47 265 60 253 l 47 266 q 35 296 35 278 q 46 326 34 313 l 210 490 l 46 654 q 35 684 34 666 q 46 713 34 701 l 47 713 q 77 726 59 726 q 106 714 94 726 l 271 550 z "},"Ø":{"ha":1087,"x_min":54,"x_max":1033,"o":"m 679 873 q 543 894 603 894 q 258 775 376 894 q 139 489 139 656 q 258 203 139 321 q 351 131 292 168 l 679 873 m 412 105 q 543 85 486 85 q 829 203 711 85 q 948 489 948 321 q 829 775 948 656 q 739 846 796 809 l 412 105 m 773 923 q 890 835 842 882 q 1033 489 1033 692 q 890 143 1033 286 q 543 0 746 0 q 376 28 464 0 l 299 -147 l 228 -147 l 317 54 q 197 143 245 95 q 54 489 54 286 q 197 835 54 692 q 543 978 340 978 q 714 949 625 978 l 766 1066 l 836 1066 l 773 923 z "},"Ù":{"ha":770,"x_min":75,"x_max":695,"o":"m 695 310 q 604 91 695 181 q 385 0 513 0 q 165 91 256 0 q 75 310 75 181 l 75 937 q 87 966 75 954 q 116 978 99 978 l 118 978 q 147 966 135 978 q 159 937 159 954 l 159 310 q 225 151 159 217 q 385 85 292 85 q 545 151 478 85 q 610 310 610 217 l 610 937 q 623 966 610 954 q 652 978 635 978 l 654 978 q 683 966 671 978 q 695 937 695 954 l 695 310 m 224 1229 q 231 1236 222 1236 l 349 1236 q 352 1235 351 1236 l 471 1065 q 473 1058 474 1061 q 468 1055 471 1055 l 406 1055 q 395 1060 400 1055 l 224 1229 z "},"Ú":{"ha":770,"x_min":75,"x_max":695,"o":"m 695 310 q 604 91 695 181 q 385 0 513 0 q 165 91 256 0 q 75 310 75 181 l 75 937 q 87 966 75 954 q 116 978 99 978 l 118 978 q 147 966 135 978 q 159 937 159 954 l 159 310 q 225 151 159 217 q 385 85 292 85 q 545 151 478 85 q 610 310 610 217 l 610 937 q 623 966 610 954 q 652 978 635 978 l 654 978 q 683 966 671 978 q 695 937 695 954 l 695 310 m 378 1060 q 367 1055 373 1055 l 305 1055 q 300 1058 302 1055 q 302 1065 299 1061 l 421 1235 q 425 1236 422 1236 l 543 1236 q 549 1229 551 1236 l 378 1060 z "},"Û":{"ha":770,"x_min":75,"x_max":695,"o":"m 695 310 q 604 91 695 181 q 385 0 513 0 q 165 91 256 0 q 75 310 75 181 l 75 937 q 87 966 75 954 q 116 978 99 978 l 118 978 q 147 966 135 978 q 159 937 159 954 l 159 310 q 225 151 159 217 q 385 85 292 85 q 545 151 478 85 q 610 310 610 217 l 610 937 q 623 966 610 954 q 652 978 635 978 l 654 978 q 683 966 671 978 q 695 937 695 954 l 695 310 m 445 1236 q 448 1235 448 1236 l 568 1065 q 569 1058 570 1061 q 564 1055 568 1055 l 503 1055 q 492 1060 496 1055 l 385 1172 l 278 1060 q 267 1055 273 1055 l 205 1055 q 201 1058 202 1055 q 202 1065 199 1061 l 321 1235 q 325 1236 322 1236 l 445 1236 z "},"Ü":{"ha":770,"x_min":75,"x_max":695,"o":"m 695 310 q 604 91 695 181 q 385 0 513 0 q 165 91 256 0 q 75 310 75 181 l 75 937 q 87 966 75 954 q 116 978 99 978 l 118 978 q 147 966 135 978 q 159 937 159 954 l 159 310 q 225 151 159 217 q 385 85 292 85 q 545 151 478 85 q 610 310 610 217 l 610 937 q 623 966 610 954 q 652 978 635 978 l 654 978 q 683 966 671 978 q 695 937 695 954 l 695 310 m 262 1080 q 223 1096 239 1080 q 208 1135 208 1112 q 223 1173 208 1157 q 262 1188 239 1188 q 300 1173 284 1188 q 316 1135 316 1156 q 300 1096 316 1112 q 262 1080 284 1080 m 508 1080 q 469 1096 485 1080 q 454 1135 454 1112 q 469 1173 454 1157 q 508 1188 485 1188 q 546 1173 530 1188 q 562 1135 562 1156 q 546 1096 562 1112 q 508 1080 530 1080 z "},"Ý":{"ha":756,"x_min":68,"x_max":688,"o":"m 688 635 q 616 436 688 523 q 420 328 545 351 l 420 41 q 408 12 420 24 q 379 0 396 0 l 377 0 q 348 12 360 0 q 336 41 336 24 l 336 328 q 140 436 211 351 q 68 635 68 523 l 68 937 q 80 966 68 954 q 109 978 92 978 l 111 978 q 140 966 128 978 q 153 937 153 954 l 153 635 q 218 475 153 542 q 378 410 285 410 q 538 475 471 410 q 604 635 604 542 l 604 937 q 616 966 604 954 q 645 978 628 978 l 647 978 q 676 966 664 978 q 688 937 688 954 l 688 635 m 371 1060 q 360 1055 366 1055 l 298 1055 q 294 1058 295 1055 q 295 1065 292 1061 l 414 1235 q 418 1236 415 1236 l 536 1236 q 543 1229 544 1236 l 371 1060 z "},"Þ":{"ha":787,"x_min":95,"x_max":736,"o":"m 180 202 l 180 41 q 168 12 180 24 q 138 0 155 0 l 136 0 q 107 12 119 0 q 95 41 95 24 l 95 937 q 107 966 95 954 q 136 978 119 978 l 138 978 q 168 966 155 978 q 180 937 180 954 l 180 777 l 448 777 q 652 692 568 777 q 736 490 736 608 q 652 286 736 370 q 448 202 568 202 l 180 202 m 180 692 l 180 287 l 448 287 q 591 346 532 287 q 651 490 651 406 q 591 633 651 573 q 448 692 532 692 l 180 692 z "},"ß":{"ha":722,"x_min":68,"x_max":654,"o":"m 153 41 q 140 12 153 24 q 111 0 128 0 l 109 0 q 80 12 92 0 q 68 41 68 24 l 68 827 q 112 935 68 890 q 218 978 156 978 l 380 978 q 563 903 488 978 q 638 720 638 827 q 526 506 638 600 q 654 273 654 408 q 574 80 654 160 q 380 0 494 0 l 338 0 q 309 12 321 0 q 297 41 297 24 l 297 43 q 309 73 297 60 q 338 85 321 85 l 380 85 q 513 140 458 85 q 568 273 568 195 q 513 407 568 351 q 380 463 458 463 l 341 463 q 311 475 323 463 q 300 504 300 486 l 300 505 q 311 535 300 523 q 341 547 323 547 l 380 547 q 503 597 452 547 q 553 720 553 648 q 503 842 553 791 q 380 894 452 894 l 218 894 q 172 874 191 894 q 153 827 153 854 l 153 41 z "},"à":{"ha":836,"x_min":68,"x_max":768,"o":"m 418 700 q 665 597 563 700 q 768 350 768 495 l 768 41 q 755 12 768 24 q 726 0 743 0 l 724 0 q 695 12 707 0 q 683 41 683 24 l 683 118 q 418 0 550 0 q 170 102 273 0 q 68 350 68 205 q 170 597 68 495 q 418 700 273 700 m 418 615 q 230 537 308 615 q 153 350 153 459 q 230 162 153 240 q 418 85 308 85 q 605 162 528 85 q 683 350 683 240 q 605 537 683 459 q 418 615 528 615 m 256 951 q 263 958 255 958 l 381 958 q 385 957 384 958 l 504 787 q 505 780 507 783 q 500 777 504 777 l 439 777 q 428 782 433 777 l 256 951 z "},"á":{"ha":836,"x_min":68,"x_max":768,"o":"m 418 700 q 665 597 563 700 q 768 350 768 495 l 768 41 q 755 12 768 24 q 726 0 743 0 l 724 0 q 695 12 707 0 q 683 41 683 24 l 683 118 q 418 0 550 0 q 170 102 273 0 q 68 350 68 205 q 170 597 68 495 q 418 700 273 700 m 418 615 q 230 537 308 615 q 153 350 153 459 q 230 162 153 240 q 418 85 308 85 q 605 162 528 85 q 683 350 683 240 q 605 537 683 459 q 418 615 528 615 m 410 782 q 399 777 406 777 l 338 777 q 333 780 334 777 q 334 787 332 783 l 454 957 q 457 958 454 958 l 575 958 q 582 951 583 958 l 410 782 z "},"â":{"ha":836,"x_min":68,"x_max":768,"o":"m 418 700 q 665 597 563 700 q 768 350 768 495 l 768 41 q 755 12 768 24 q 726 0 743 0 l 724 0 q 695 12 707 0 q 683 41 683 24 l 683 118 q 418 0 550 0 q 170 102 273 0 q 68 350 68 205 q 170 597 68 495 q 418 700 273 700 m 418 615 q 230 537 308 615 q 153 350 153 459 q 230 162 153 240 q 418 85 308 85 q 605 162 528 85 q 683 350 683 240 q 605 537 683 459 q 418 615 528 615 m 477 958 q 481 957 480 958 l 600 787 q 602 780 603 783 q 597 777 600 777 l 535 777 q 524 782 529 777 l 418 894 l 311 782 q 300 777 306 777 l 238 777 q 233 780 235 777 q 235 787 232 783 l 354 957 q 357 958 355 958 l 477 958 z "},"ã":{"ha":836,"x_min":68,"x_max":768,"o":"m 418 700 q 665 597 563 700 q 768 350 768 495 l 768 41 q 755 12 768 24 q 726 0 743 0 l 724 0 q 695 12 707 0 q 683 41 683 24 l 683 118 q 418 0 550 0 q 170 102 273 0 q 68 350 68 205 q 170 597 68 495 q 418 700 273 700 m 418 615 q 230 537 308 615 q 153 350 153 459 q 230 162 153 240 q 418 85 308 85 q 605 162 528 85 q 683 350 683 240 q 605 537 683 459 q 418 615 528 615 m 190 807 q 227 876 197 850 q 307 902 259 902 q 408 874 349 902 q 475 855 444 858 q 526 895 517 857 q 544 907 529 907 l 567 907 q 581 901 576 907 q 585 887 587 895 q 473 790 570 790 q 375 821 432 790 q 311 836 343 836 q 258 800 267 836 q 240 787 255 787 l 208 787 q 193 793 200 787 q 190 807 189 800 z "},"ä":{"ha":836,"x_min":68,"x_max":768,"o":"m 418 700 q 665 597 563 700 q 768 350 768 495 l 768 41 q 755 12 768 24 q 726 0 743 0 l 724 0 q 695 12 707 0 q 683 41 683 24 l 683 118 q 418 0 550 0 q 170 102 273 0 q 68 350 68 205 q 170 597 68 495 q 418 700 273 700 m 418 615 q 230 537 308 615 q 153 350 153 459 q 230 162 153 240 q 418 85 308 85 q 605 162 528 85 q 683 350 683 240 q 605 537 683 459 q 418 615 528 615 m 294 802 q 256 818 271 802 q 240 857 240 833 q 256 895 240 879 q 294 910 271 910 q 332 895 317 910 q 349 857 349 878 q 332 818 349 834 q 294 802 317 802 m 541 802 q 502 818 517 802 q 486 857 486 833 q 502 895 486 879 q 541 910 517 910 q 578 895 563 910 q 595 857 595 878 q 578 818 595 834 q 541 802 563 802 z "},"å":{"ha":836,"x_min":68,"x_max":768,"o":"m 418 700 q 665 597 563 700 q 768 350 768 495 l 768 41 q 755 12 768 24 q 726 0 743 0 l 724 0 q 695 12 707 0 q 683 41 683 24 l 683 118 q 418 0 550 0 q 170 102 273 0 q 68 350 68 205 q 170 597 68 495 q 418 700 273 700 m 418 615 q 230 537 308 615 q 153 350 153 459 q 230 162 153 240 q 418 85 308 85 q 605 162 528 85 q 683 350 683 240 q 605 537 683 459 q 418 615 528 615 m 347 863 q 368 816 347 835 q 414 796 387 796 l 421 796 q 468 816 449 796 q 488 863 488 835 q 468 911 488 890 q 421 930 449 930 l 414 930 q 368 911 387 930 q 347 863 347 890 m 286 863 q 322 950 286 914 q 410 986 358 986 l 426 986 q 513 950 477 986 q 549 863 549 914 q 513 776 549 812 q 426 740 477 740 l 410 740 q 322 776 358 740 q 286 863 286 812 z "},"æ":{"ha":1441,"x_min":68,"x_max":1371,"o":"m 230 537 q 153 350 153 459 q 230 162 153 240 q 418 85 308 85 q 605 162 528 85 q 683 350 683 240 q 605 537 683 459 q 418 615 528 615 q 230 537 308 615 m 1034 614 q 846 536 924 614 q 768 348 768 458 q 775 282 768 328 l 1253 498 q 1034 614 1157 614 m 768 118 l 768 41 q 755 12 768 24 q 726 0 743 0 l 724 0 q 695 12 707 0 q 683 41 683 24 l 683 118 q 418 0 550 0 q 170 102 273 0 q 68 350 68 205 q 170 597 68 495 q 418 700 273 700 q 665 597 563 700 q 726 521 690 572 q 786 597 761 572 q 1034 700 888 700 q 1225 643 1138 700 q 1352 495 1310 587 q 1353 463 1359 479 q 1331 440 1347 448 q 1082 328 1236 397 q 809 205 890 241 q 1034 83 904 83 q 1190 134 1120 83 q 1284 261 1257 182 q 1324 290 1294 290 q 1359 272 1346 290 q 1364 234 1371 254 q 1238 66 1328 130 q 1034 0 1146 0 q 768 118 899 0 z "},"ç":{"ha":580,"x_min":47,"x_max":532,"o":"m 397 700 q 503 683 452 700 q 532 644 532 674 l 532 640 q 515 607 532 619 q 478 600 498 594 q 397 614 439 614 q 210 536 288 614 q 132 348 132 458 q 210 161 132 239 q 397 83 288 83 q 478 95 439 83 q 515 90 498 102 q 532 56 532 77 q 503 16 532 26 q 397 0 452 0 q 150 102 252 0 q 47 350 47 205 q 150 597 47 495 q 397 700 252 700 m 367 -105 q 361 -107 367 -105 q 349 -102 355 -109 q 345 -85 344 -94 l 363 9 l 419 9 l 406 -54 q 498 -82 468 -55 q 531 -147 529 -110 q 488 -224 531 -190 q 348 -260 444 -260 q 283 -257 316 -260 q 268 -249 274 -255 q 262 -235 262 -242 l 264 -223 q 271 -209 264 -214 q 286 -203 277 -203 q 321 -205 300 -203 q 425 -191 393 -213 q 444 -176 436 -184 q 455 -146 455 -163 q 438 -114 455 -127 q 398 -101 422 -101 q 367 -105 379 -101 z "},"è":{"ha":785,"x_min":47,"x_max":735,"o":"m 397 614 q 210 536 288 614 q 132 348 132 458 q 139 282 132 328 l 617 498 q 397 614 521 614 m 715 495 q 717 463 723 479 q 695 440 711 448 q 446 328 600 397 q 173 205 254 241 q 397 83 268 83 q 553 134 484 83 q 648 261 621 182 q 688 290 658 290 q 723 272 710 290 q 728 234 735 254 q 602 66 692 130 q 397 0 510 0 q 150 102 252 0 q 47 350 47 205 q 150 597 47 495 q 397 700 252 700 q 589 643 502 700 q 715 495 673 587 m 228 951 q 235 958 227 958 l 353 958 q 356 957 355 958 l 475 787 q 477 780 478 783 q 472 777 475 777 l 410 777 q 399 782 404 777 l 228 951 z "},"é":{"ha":785,"x_min":47,"x_max":735,"o":"m 397 614 q 210 536 288 614 q 132 348 132 458 q 139 282 132 328 l 617 498 q 397 614 521 614 m 715 495 q 717 463 723 479 q 695 440 711 448 q 446 328 600 397 q 173 205 254 241 q 397 83 268 83 q 553 134 484 83 q 648 261 621 182 q 688 290 658 290 q 723 272 710 290 q 728 234 735 254 q 602 66 692 130 q 397 0 510 0 q 150 102 252 0 q 47 350 47 205 q 150 597 47 495 q 397 700 252 700 q 589 643 502 700 q 715 495 673 587 m 382 782 q 371 777 377 777 l 309 777 q 304 780 306 777 q 306 787 303 783 l 425 957 q 429 958 426 958 l 547 958 q 553 951 555 958 l 382 782 z "},"ê":{"ha":785,"x_min":47,"x_max":735,"o":"m 397 614 q 210 536 288 614 q 132 348 132 458 q 139 282 132 328 l 617 498 q 397 614 521 614 m 715 495 q 717 463 723 479 q 695 440 711 448 q 446 328 600 397 q 173 205 254 241 q 397 83 268 83 q 553 134 484 83 q 648 261 621 182 q 688 290 658 290 q 723 272 710 290 q 728 234 735 254 q 602 66 692 130 q 397 0 510 0 q 150 102 252 0 q 47 350 47 205 q 150 597 47 495 q 397 700 252 700 q 589 643 502 700 q 715 495 673 587 m 448 958 q 452 957 451 958 l 571 787 q 572 780 574 783 q 568 777 571 777 l 506 777 q 495 782 500 777 l 389 894 l 281 782 q 271 777 277 777 l 209 777 q 204 780 205 777 q 205 787 203 783 l 325 957 q 328 958 326 958 l 448 958 z "},"ë":{"ha":785,"x_min":47,"x_max":735,"o":"m 397 614 q 210 536 288 614 q 132 348 132 458 q 139 282 132 328 l 617 498 q 397 614 521 614 m 715 495 q 717 463 723 479 q 695 440 711 448 q 446 328 600 397 q 173 205 254 241 q 397 83 268 83 q 553 134 484 83 q 648 261 621 182 q 688 290 658 290 q 723 272 710 290 q 728 234 735 254 q 602 66 692 130 q 397 0 510 0 q 150 102 252 0 q 47 350 47 205 q 150 597 47 495 q 397 700 252 700 q 589 643 502 700 q 715 495 673 587 m 266 802 q 227 818 243 802 q 212 857 212 833 q 227 895 212 879 q 266 910 243 910 q 304 895 288 910 q 320 857 320 878 q 304 818 320 834 q 266 802 288 802 m 512 802 q 473 818 489 802 q 458 857 458 833 q 473 895 458 879 q 512 910 489 910 q 550 895 534 910 q 566 857 566 878 q 550 818 566 834 q 512 802 534 802 z "},"ì":{"ha":271,"x_min":-33,"x_max":219,"o":"m 136 700 q 165 688 153 700 q 178 658 178 675 l 178 41 q 165 12 178 24 q 136 0 153 0 l 135 0 q 105 12 117 0 q 93 41 93 24 l 93 658 q 105 688 93 675 q 135 700 117 700 l 136 700 m -31 951 q -24 958 -33 958 l 94 958 q 97 957 96 958 l 216 787 q 218 780 219 783 q 213 777 216 777 l 151 777 q 140 782 145 777 l -31 951 z "},"í":{"ha":271,"x_min":52,"x_max":303,"o":"m 136 700 q 165 688 153 700 q 178 658 178 675 l 178 41 q 165 12 178 24 q 136 0 153 0 l 135 0 q 105 12 117 0 q 93 41 93 24 l 93 658 q 105 688 93 675 q 135 700 117 700 l 136 700 m 130 782 q 119 777 125 777 l 58 777 q 53 780 54 777 q 54 787 52 783 l 174 957 q 177 958 174 958 l 295 958 q 302 951 303 958 l 130 782 z "},"î":{"ha":271,"x_min":-50,"x_max":321,"o":"m 136 700 q 165 688 153 700 q 178 658 178 675 l 178 41 q 165 12 178 24 q 136 0 153 0 l 135 0 q 105 12 117 0 q 93 41 93 24 l 93 658 q 105 688 93 675 q 135 700 117 700 l 136 700 m 195 958 q 199 957 198 958 l 318 787 q 319 780 321 783 q 315 777 318 777 l 253 777 q 242 782 247 777 l 136 894 l 28 782 q 18 777 24 777 l -44 777 q -49 780 -47 777 q -47 787 -50 783 l 72 957 q 75 958 73 958 l 195 958 z "},"ï":{"ha":271,"x_min":-42,"x_max":313,"o":"m 136 700 q 165 688 153 700 q 178 658 178 675 l 178 41 q 165 12 178 24 q 136 0 153 0 l 135 0 q 105 12 117 0 q 93 41 93 24 l 93 658 q 105 688 93 675 q 135 700 117 700 l 136 700 m 12 802 q -26 818 -11 802 q -42 857 -42 833 q -26 895 -42 879 q 12 910 -11 910 q 50 895 35 910 q 66 857 66 878 q 50 818 66 834 q 12 802 35 802 m 258 802 q 220 818 235 802 q 204 857 204 833 q 220 895 204 879 q 258 910 235 910 q 296 895 281 910 q 313 857 313 878 q 296 818 313 834 q 258 802 281 802 z "},"ð":{"ha":836,"x_min":68,"x_max":768,"o":"m 418 614 q 230 536 308 614 q 153 348 153 458 q 230 161 153 239 q 418 83 308 83 q 605 161 528 83 q 683 348 683 239 q 605 536 683 458 q 418 614 528 614 m 456 1018 l 488 994 q 489 986 492 990 l 430 907 q 721 565 639 768 q 766 389 762 463 q 768 350 768 369 q 665 102 768 205 q 418 0 563 0 q 170 102 273 0 q 68 350 68 205 q 170 597 68 495 q 418 700 273 700 q 587 665 470 700 q 389 851 480 785 l 320 761 q 313 760 317 756 l 280 784 q 279 792 276 787 l 345 880 q 275 917 300 905 q 273 921 273 918 q 273 926 272 924 l 302 969 q 309 971 304 973 q 386 933 340 958 l 448 1017 q 456 1018 451 1021 z "},"ñ":{"ha":710,"x_min":68,"x_max":642,"o":"m 153 41 q 140 12 153 24 q 111 0 128 0 l 109 0 q 80 12 92 0 q 68 41 68 24 l 68 412 q 152 616 68 532 q 355 700 236 700 q 558 616 474 700 q 642 412 642 532 l 642 41 q 630 12 642 24 q 601 0 618 0 l 600 0 q 570 12 582 0 q 557 41 557 24 l 557 412 q 498 555 557 496 q 355 615 439 615 q 212 555 271 615 q 153 412 153 496 l 153 41 m 127 807 q 164 876 135 850 q 245 902 197 902 q 346 874 287 902 q 413 855 381 858 q 463 895 454 857 q 481 907 467 907 l 505 907 q 519 901 513 907 q 523 887 524 895 q 411 790 507 790 q 313 821 370 790 q 249 836 281 836 q 195 800 205 836 q 178 787 193 787 l 146 787 q 131 793 138 787 q 127 807 126 800 z "},"ò":{"ha":795,"x_min":47,"x_max":747,"o":"m 397 614 q 210 536 288 614 q 132 348 132 458 q 210 161 132 239 q 397 83 288 83 q 585 161 508 83 q 663 348 663 239 q 585 536 663 458 q 397 614 508 614 m 397 700 q 645 597 543 700 q 747 350 747 495 q 645 102 747 205 q 397 0 543 0 q 150 102 252 0 q 47 350 47 205 q 150 597 47 495 q 397 700 252 700 m 236 951 q 243 958 235 958 l 361 958 q 364 957 363 958 l 484 787 q 485 780 486 783 q 480 777 484 777 l 418 777 q 408 782 412 777 l 236 951 z "},"ó":{"ha":795,"x_min":47,"x_max":747,"o":"m 397 614 q 210 536 288 614 q 132 348 132 458 q 210 161 132 239 q 397 83 288 83 q 585 161 508 83 q 663 348 663 239 q 585 536 663 458 q 397 614 508 614 m 397 700 q 645 597 543 700 q 747 350 747 495 q 645 102 747 205 q 397 0 543 0 q 150 102 252 0 q 47 350 47 205 q 150 597 47 495 q 397 700 252 700 m 390 782 q 379 777 385 777 l 317 777 q 313 780 314 777 q 314 787 311 783 l 433 957 q 437 958 434 958 l 555 958 q 562 951 563 958 l 390 782 z "},"ô":{"ha":795,"x_min":47,"x_max":747,"o":"m 397 614 q 210 536 288 614 q 132 348 132 458 q 210 161 132 239 q 397 83 288 83 q 585 161 508 83 q 663 348 663 239 q 585 536 663 458 q 397 614 508 614 m 397 700 q 645 597 543 700 q 747 350 747 495 q 645 102 747 205 q 397 0 543 0 q 150 102 252 0 q 47 350 47 205 q 150 597 47 495 q 397 700 252 700 m 457 958 q 460 957 460 958 l 580 787 q 581 780 583 783 q 576 777 580 777 l 515 777 q 504 782 509 777 l 397 894 l 290 782 q 279 777 286 777 l 218 777 q 213 780 214 777 q 214 787 212 783 l 334 957 q 337 958 334 958 l 457 958 z "},"õ":{"ha":795,"x_min":47,"x_max":747,"o":"m 397 614 q 210 536 288 614 q 132 348 132 458 q 210 161 132 239 q 397 83 288 83 q 585 161 508 83 q 663 348 663 239 q 585 536 663 458 q 397 614 508 614 m 397 700 q 645 597 543 700 q 747 350 747 495 q 645 102 747 205 q 397 0 543 0 q 150 102 252 0 q 47 350 47 205 q 150 597 47 495 q 397 700 252 700 m 170 807 q 206 876 177 850 q 287 902 239 902 q 388 874 329 902 q 455 855 423 858 q 505 895 496 857 q 524 907 509 907 l 547 907 q 561 901 555 907 q 565 887 566 895 q 453 790 549 790 q 355 821 412 790 q 291 836 323 836 q 237 800 247 836 q 220 787 235 787 l 188 787 q 173 793 180 787 q 170 807 168 800 z "},"ö":{"ha":795,"x_min":47,"x_max":747,"o":"m 397 614 q 210 536 288 614 q 132 348 132 458 q 210 161 132 239 q 397 83 288 83 q 585 161 508 83 q 663 348 663 239 q 585 536 663 458 q 397 614 508 614 m 397 700 q 645 597 543 700 q 747 350 747 495 q 645 102 747 205 q 397 0 543 0 q 150 102 252 0 q 47 350 47 205 q 150 597 47 495 q 397 700 252 700 m 274 802 q 235 818 251 802 q 220 857 220 833 q 235 895 220 879 q 274 910 251 910 q 312 895 296 910 q 328 857 328 878 q 312 818 328 834 q 274 802 296 802 m 520 802 q 481 818 497 802 q 466 857 466 833 q 481 895 466 879 q 520 910 497 910 q 558 895 543 910 q 574 857 574 878 q 558 818 574 834 q 520 802 543 802 z "},"÷":{"ha":564,"x_min":34,"x_max":530,"o":"m 530 488 q 518 459 530 471 q 488 447 506 447 l 75 447 q 46 459 58 447 q 34 488 34 471 l 34 490 q 46 519 34 507 q 75 532 58 532 l 488 532 q 518 519 506 532 q 530 490 530 507 l 530 488 m 282 208 q 243 223 259 208 q 228 262 228 239 q 243 300 228 284 q 282 315 259 315 q 320 300 304 315 q 336 262 336 283 q 320 223 336 239 q 282 208 304 208 m 282 664 q 243 680 259 664 q 228 718 228 695 q 243 756 228 741 q 282 772 259 772 q 320 756 304 772 q 336 718 336 740 q 320 680 336 696 q 282 664 304 664 z "},"ø":{"ha":795,"x_min":47,"x_max":747,"o":"m 224 44 q 150 102 178 74 q 47 350 47 205 q 150 597 47 495 q 397 700 252 700 q 516 681 451 700 l 586 836 l 656 836 l 574 654 q 645 597 618 625 q 747 350 747 495 q 645 102 747 205 q 397 0 543 0 q 283 18 346 0 l 211 -142 l 140 -142 l 224 44 m 538 574 l 318 93 q 397 83 370 83 q 585 161 508 83 q 663 348 663 239 q 585 536 663 458 q 538 574 572 549 m 259 119 l 480 603 q 397 614 427 614 q 210 536 288 614 q 132 348 132 458 q 210 161 132 239 q 259 119 223 146 z "},"ù":{"ha":710,"x_min":68,"x_max":642,"o":"m 153 287 q 212 144 153 203 q 355 85 271 85 q 498 144 439 85 q 557 287 557 203 l 557 658 q 570 688 557 675 q 600 700 582 700 l 601 700 q 630 688 618 700 q 642 658 642 675 l 642 287 q 558 84 642 168 q 355 0 474 0 q 152 84 236 0 q 68 287 68 168 l 68 658 q 80 688 68 675 q 109 700 92 700 l 111 700 q 140 688 128 700 q 153 658 153 675 l 153 287 m 194 951 q 201 958 193 958 l 319 958 q 322 957 321 958 l 441 787 q 443 780 444 783 q 438 777 441 777 l 376 777 q 366 782 370 777 l 194 951 z "},"ú":{"ha":710,"x_min":68,"x_max":642,"o":"m 153 287 q 212 144 153 203 q 355 85 271 85 q 498 144 439 85 q 557 287 557 203 l 557 658 q 570 688 557 675 q 600 700 582 700 l 601 700 q 630 688 618 700 q 642 658 642 675 l 642 287 q 558 84 642 168 q 355 0 474 0 q 152 84 236 0 q 68 287 68 168 l 68 658 q 80 688 68 675 q 109 700 92 700 l 111 700 q 140 688 128 700 q 153 658 153 675 l 153 287 m 348 782 q 337 777 343 777 l 275 777 q 271 780 272 777 q 272 787 269 783 l 391 957 q 395 958 392 958 l 513 958 q 519 951 521 958 l 348 782 z "},"û":{"ha":710,"x_min":68,"x_max":642,"o":"m 153 287 q 212 144 153 203 q 355 85 271 85 q 498 144 439 85 q 557 287 557 203 l 557 658 q 570 688 557 675 q 600 700 582 700 l 601 700 q 630 688 618 700 q 642 658 642 675 l 642 287 q 558 84 642 168 q 355 0 474 0 q 152 84 236 0 q 68 287 68 168 l 68 658 q 80 688 68 675 q 109 700 92 700 l 111 700 q 140 688 128 700 q 153 658 153 675 l 153 287 m 415 958 q 418 957 418 958 l 538 787 q 539 780 541 783 q 534 777 538 777 l 473 777 q 462 782 467 777 l 355 894 l 248 782 q 237 777 243 777 l 176 777 q 171 780 172 777 q 172 787 170 783 l 292 957 q 295 958 292 958 l 415 958 z "},"ü":{"ha":710,"x_min":68,"x_max":642,"o":"m 153 287 q 212 144 153 203 q 355 85 271 85 q 498 144 439 85 q 557 287 557 203 l 557 658 q 570 688 557 675 q 600 700 582 700 l 601 700 q 630 688 618 700 q 642 658 642 675 l 642 287 q 558 84 642 168 q 355 0 474 0 q 152 84 236 0 q 68 287 68 168 l 68 658 q 80 688 68 675 q 109 700 92 700 l 111 700 q 140 688 128 700 q 153 658 153 675 l 153 287 m 232 802 q 193 818 209 802 q 178 857 178 833 q 193 895 178 879 q 232 910 209 910 q 270 895 254 910 q 286 857 286 878 q 270 818 286 834 q 232 802 254 802 m 478 802 q 439 818 455 802 q 424 857 424 833 q 439 895 424 879 q 478 910 455 910 q 516 895 500 910 q 532 857 532 878 q 516 818 532 834 q 478 802 500 802 z "},"ý":{"ha":710,"x_min":68,"x_max":642,"o":"m 153 302 q 212 159 153 218 q 355 99 271 99 q 498 159 439 99 q 557 302 557 217 l 557 658 q 570 688 557 675 q 600 700 582 700 l 601 700 q 630 688 618 700 q 642 658 642 675 l 642 9 q 553 -195 642 -108 q 355 -279 467 -279 q 191 -234 264 -279 q 83 -119 120 -192 q 82 -85 75 -103 q 108 -62 89 -68 l 111 -60 q 138 -61 123 -56 q 159 -81 152 -67 q 239 -163 186 -132 q 355 -194 293 -194 q 496 -134 436 -194 q 557 9 557 -75 l 557 94 q 355 15 450 15 q 152 99 236 15 q 68 302 68 182 l 68 658 q 80 688 68 675 q 109 700 92 700 l 111 700 q 140 688 128 700 q 153 658 153 675 l 153 302 m 348 782 q 337 777 343 777 l 275 777 q 271 780 272 777 q 272 787 269 783 l 391 957 q 395 958 392 958 l 513 958 q 519 951 521 958 l 348 782 z "},"þ":{"ha":815,"x_min":68,"x_max":768,"o":"m 153 583 q 418 700 283 700 q 665 597 563 700 q 768 350 768 495 q 665 102 768 205 q 418 0 563 0 q 153 118 285 0 l 153 -237 q 140 -267 153 -254 q 111 -279 128 -279 l 109 -279 q 80 -267 92 -279 q 68 -237 68 -254 l 68 937 q 80 966 68 954 q 109 978 92 978 l 111 978 q 140 966 128 978 q 153 937 153 954 l 153 583 m 153 351 q 230 164 153 242 q 418 86 308 86 q 605 164 528 86 q 683 351 683 242 q 605 539 683 461 q 418 616 528 616 q 230 539 308 616 q 153 351 153 461 z "},"ÿ":{"ha":710,"x_min":68,"x_max":642,"o":"m 153 302 q 212 159 153 218 q 355 99 271 99 q 498 159 439 99 q 557 302 557 217 l 557 658 q 570 688 557 675 q 600 700 582 700 l 601 700 q 630 688 618 700 q 642 658 642 675 l 642 9 q 553 -195 642 -108 q 355 -279 467 -279 q 191 -234 264 -279 q 83 -119 120 -192 q 82 -85 75 -103 q 108 -62 89 -68 l 111 -60 q 138 -61 123 -56 q 159 -81 152 -67 q 239 -163 186 -132 q 355 -194 293 -194 q 496 -134 436 -194 q 557 9 557 -75 l 557 94 q 355 15 450 15 q 152 99 236 15 q 68 302 68 182 l 68 658 q 80 688 68 675 q 109 700 92 700 l 111 700 q 140 688 128 700 q 153 658 153 675 l 153 302 m 232 802 q 193 818 209 802 q 178 857 178 833 q 193 895 178 879 q 232 910 209 910 q 270 895 254 910 q 286 857 286 878 q 270 818 286 834 q 232 802 254 802 m 478 802 q 439 818 455 802 q 424 857 424 833 q 439 895 424 879 q 478 910 455 910 q 516 895 500 910 q 532 857 532 878 q 516 818 532 834 q 478 802 500 802 z "},"ı":{"ha":271,"x_min":93,"x_max":178,"o":"m 136 700 q 165 688 153 700 q 178 658 178 675 l 178 41 q 165 12 178 24 q 136 0 153 0 l 135 0 q 105 12 117 0 q 93 41 93 24 l 93 658 q 105 688 93 675 q 135 700 117 700 l 136 700 z "},"ˆ":{"ha":557,"x_min":93,"x_max":464,"o":"m 338 958 q 342 957 341 958 l 461 787 q 463 780 464 783 q 458 777 461 777 l 396 777 q 385 782 390 777 l 279 894 l 172 782 q 161 777 167 777 l 99 777 q 94 780 96 777 q 96 787 93 783 l 215 957 q 218 958 216 958 l 338 958 z "},"ˇ":{"ha":557,"x_min":93,"x_max":464,"o":"m 218 777 q 215 779 216 777 l 96 949 q 94 956 93 953 q 99 958 96 958 l 161 958 q 172 954 167 958 l 279 842 l 385 954 q 396 958 390 958 l 458 958 q 463 956 461 958 q 461 949 464 953 l 342 779 q 338 777 341 777 l 218 777 z "},"ˉ":{"ha":361,"x_min":34,"x_max":327,"o":"m 327 840 q 315 814 327 825 q 285 802 302 802 l 75 802 q 46 814 58 802 q 34 840 34 825 l 34 842 q 46 869 34 858 q 75 880 58 880 l 285 880 q 315 869 302 880 q 327 842 327 858 l 327 840 z "},"˘":{"ha":467,"x_min":34,"x_max":433,"o":"m 401 960 q 425 947 416 960 q 429 922 433 936 q 351 820 406 857 q 233 786 298 786 q 116 820 168 786 q 39 922 61 857 q 42 947 34 936 q 66 960 52 960 l 80 960 q 106 942 99 960 q 233 858 140 858 q 361 941 328 858 q 388 960 368 960 l 401 960 z "},"˙":{"ha":244,"x_min":68,"x_max":176,"o":"m 122 802 q 83 818 99 802 q 68 857 68 833 q 83 895 68 879 q 122 910 99 910 q 160 895 144 910 q 176 857 176 878 q 160 818 176 834 q 122 802 144 802 z "},"˚":{"ha":399,"x_min":68,"x_max":331,"o":"m 129 863 q 149 816 129 835 q 195 796 168 796 l 203 796 q 250 816 231 796 q 270 863 270 835 q 250 911 270 890 q 203 930 231 930 l 195 930 q 149 911 168 930 q 129 863 129 890 m 68 863 q 104 950 68 914 q 191 986 140 986 l 208 986 q 295 950 258 986 q 331 863 331 914 q 295 776 331 812 q 208 740 258 740 l 191 740 q 104 776 140 740 q 68 863 68 812 z "},"˛":{"ha":314,"x_min":68,"x_max":253,"o":"m 253 -240 q 177 -248 236 -248 q 97 -223 132 -248 q 68 -151 68 -197 q 97 -52 68 -110 q 124 -12 109 -33 q 134 0 128 -5 l 194 0 q 172 -28 180 -16 q 149 -155 127 -106 q 253 -193 176 -201 l 253 -240 z "},"˜":{"ha":530,"x_min":58,"x_max":456,"o":"m 60 807 q 96 876 67 850 q 177 902 129 902 q 278 874 219 902 q 345 855 313 858 q 395 895 387 857 q 414 907 399 907 l 437 907 q 451 901 446 907 q 455 887 456 895 q 343 790 439 790 q 245 821 302 790 q 181 836 213 836 q 127 800 137 836 q 110 787 125 787 l 78 787 q 63 793 70 787 q 60 807 58 800 z "},"˝":{"ha":694,"x_min":-8,"x_max":479,"o":"m 71 782 q 60 777 66 777 l -2 777 q -7 780 -5 777 q -5 787 -8 783 l 114 957 q 117 958 115 958 l 235 958 q 242 951 243 958 l 71 782 m 307 782 q 296 777 302 777 l 234 777 q 229 780 231 777 q 231 787 228 783 l 350 957 q 353 958 351 958 l 471 958 q 478 951 479 958 l 307 782 z "},"–":{"ha":730,"x_min":68,"x_max":663,"o":"m 68 386 l 663 386 l 663 312 l 68 312 l 68 386 z "},"—":{"ha":1002,"x_min":68,"x_max":934,"o":"m 68 386 l 934 386 l 934 312 l 68 312 l 68 386 z "},"‘":{"ha":227,"x_min":68,"x_max":159,"o":"m 141 977 q 113 869 112 937 l 118 869 q 147 857 135 869 q 159 828 159 845 l 159 783 q 147 753 159 766 q 118 742 135 742 l 110 742 q 80 753 92 742 q 68 783 68 766 l 68 890 q 100 977 75 953 l 141 977 z "},"’":{"ha":227,"x_min":68,"x_max":159,"o":"m 86 742 q 114 850 115 782 l 110 850 q 80 862 92 850 q 68 891 68 874 l 68 936 q 80 966 68 954 q 109 977 92 977 l 117 977 q 147 966 135 977 q 159 936 159 954 l 159 829 q 127 742 153 766 l 86 742 z "},"‚":{"ha":227,"x_min":68,"x_max":159,"o":"m 86 -117 q 114 -9 115 -77 l 110 -9 q 80 3 92 -9 q 68 32 68 15 l 68 77 q 80 106 68 94 q 109 118 92 118 l 117 118 q 147 106 135 118 q 159 77 159 94 l 159 -30 q 127 -117 153 -93 l 86 -117 z "},"“":{"ha":355,"x_min":68,"x_max":288,"o":"m 141 977 q 113 869 112 937 l 118 869 q 147 857 135 869 q 159 828 159 845 l 159 783 q 147 753 159 766 q 118 742 135 742 l 110 742 q 80 753 92 742 q 68 783 68 766 l 68 890 q 100 977 75 953 l 141 977 m 269 977 q 241 869 240 937 l 246 869 q 275 857 263 869 q 288 828 288 845 l 288 783 q 275 753 288 766 q 246 742 263 742 l 238 742 q 208 753 220 742 q 196 783 196 766 l 196 890 q 229 977 203 953 l 269 977 z "},"”":{"ha":355,"x_min":68,"x_max":288,"o":"m 86 742 q 114 850 115 782 l 110 850 q 80 862 92 850 q 68 891 68 874 l 68 936 q 80 966 68 954 q 109 977 92 977 l 117 977 q 147 966 135 977 q 159 936 159 954 l 159 829 q 127 742 153 766 l 86 742 m 214 742 q 242 850 243 782 l 238 850 q 208 862 220 850 q 196 891 196 874 l 196 936 q 208 966 196 954 q 237 977 220 977 l 245 977 q 275 966 263 977 q 288 936 288 954 l 288 829 q 255 742 281 766 l 214 742 z "},"„":{"ha":355,"x_min":68,"x_max":288,"o":"m 86 -117 q 114 -9 115 -77 l 110 -9 q 80 3 92 -9 q 68 32 68 15 l 68 77 q 80 106 68 94 q 109 118 92 118 l 117 118 q 147 106 135 118 q 159 77 159 94 l 159 -30 q 127 -117 153 -93 l 86 -117 m 214 -117 q 242 -9 243 -77 l 238 -9 q 208 3 220 -9 q 196 32 196 15 l 196 77 q 208 106 196 94 q 237 118 220 118 l 245 118 q 275 106 263 118 q 288 77 288 94 l 288 -30 q 255 -117 281 -93 l 214 -117 z "},"†":{"ha":692,"x_min":7,"x_max":685,"o":"m 380 646 l 380 -189 l 312 -189 l 312 646 l 7 646 l 7 713 l 312 713 l 312 1019 l 380 1019 l 380 713 l 685 713 l 685 646 l 380 646 z "},"‡":{"ha":692,"x_min":7,"x_max":685,"o":"m 312 707 l 312 1019 l 380 1019 l 380 707 l 685 707 l 685 639 l 380 639 l 380 191 l 685 191 l 685 123 l 380 123 l 380 -189 l 312 -189 l 312 123 l 7 123 l 7 191 l 312 191 l 312 639 l 7 639 l 7 707 l 312 707 z "},"•":{"ha":524,"x_min":68,"x_max":456,"o":"m 262 651 q 400 594 343 651 q 456 457 456 538 q 400 319 456 376 q 262 262 343 262 q 124 319 181 262 q 68 457 68 376 q 124 594 68 538 q 262 651 181 651 z "},"…":{"ha":1348,"x_min":68,"x_max":1103,"o":"m 122 0 q 83 16 99 0 q 68 54 68 31 q 83 92 68 77 q 122 108 99 108 q 160 92 144 108 q 176 54 176 76 q 160 16 176 32 q 122 0 144 0 m 585 0 q 547 16 562 0 q 531 54 531 31 q 547 92 531 77 q 585 108 562 108 q 623 92 608 108 q 640 54 640 76 q 623 16 640 32 q 585 0 608 0 m 1048 0 q 1010 16 1025 0 q 994 54 994 31 q 1010 92 994 77 q 1048 108 1025 108 q 1086 92 1071 108 q 1103 54 1103 76 q 1086 16 1103 32 q 1048 0 1071 0 z "},"‹":{"ha":419,"x_min":20,"x_max":365,"o":"m 273 699 l 365 699 l 100 468 l 365 237 l 273 237 l 26 455 q 20 468 20 460 q 26 481 20 477 l 273 699 z "},"›":{"ha":419,"x_min":54,"x_max":399,"o":"m 393 481 q 399 468 399 477 q 393 455 399 460 l 146 237 l 54 237 l 319 468 l 54 699 l 146 699 l 393 481 z "},"⁄":{"ha":255,"x_min":-67,"x_max":315,"o":"m 315 1025 l -14 -84 l -67 -84 l 262 1025 l 315 1025 z "},"∕":{"ha":255,"x_min":-67,"x_max":315,"o":"m 315 1025 l -14 -84 l -67 -84 l 262 1025 l 315 1025 z "},"₣":{"ha":617,"x_min":7,"x_max":583,"o":"m 308 277 q 334 265 323 276 q 347 235 347 253 l 347 234 q 334 204 347 216 q 288 192 323 193 l 288 192 l 212 192 l 212 41 q 199 12 212 24 q 170 0 187 0 l 168 0 q 139 12 151 0 q 127 41 127 24 l 127 192 l 66 192 l 66 192 q 19 204 31 193 q 7 234 7 216 l 7 235 q 19 265 7 253 q 45 277 31 276 l 127 277 l 127 771 q 187 918 127 857 q 334 978 248 978 l 542 978 q 571 966 559 978 q 583 937 583 954 l 583 935 q 571 905 583 918 q 542 894 559 894 l 334 894 q 248 858 283 894 q 212 771 212 822 l 212 531 l 535 531 q 564 519 552 531 q 576 490 576 507 l 576 488 q 564 459 576 471 q 535 447 552 447 l 212 447 l 212 277 l 308 277 z "},"₤":{"ha":747,"x_min":68,"x_max":679,"o":"m 582 755 q 515 854 565 816 q 401 894 465 894 q 267 838 323 894 q 212 705 212 783 l 212 482 l 448 482 q 477 470 465 482 q 489 441 489 458 l 489 439 q 477 410 489 422 q 448 397 465 397 l 212 397 l 212 85 l 637 85 q 667 73 654 85 q 679 43 679 60 l 679 41 q 667 12 679 24 q 637 0 654 0 l 168 0 q 139 12 151 0 q 127 41 127 24 l 127 397 l 87 397 q 73 403 79 397 q 68 417 68 408 l 68 463 q 73 477 68 471 q 87 482 79 482 l 127 482 l 127 705 q 207 898 127 819 q 401 978 287 978 q 568 921 494 978 q 664 777 640 865 q 657 741 669 758 q 624 725 645 725 l 622 725 q 582 755 591 725 z "},"₧":{"ha":1596,"x_min":109,"x_max":1586,"o":"m 559 558 q 606 720 606 611 q 559 882 606 829 q 446 937 513 935 l 186 937 l 186 503 l 446 503 q 559 558 513 505 m 1034 -9 q 856 14 893 -10 q 791 222 792 56 l 791 637 l 669 637 q 591 488 646 541 q 423 427 536 427 l 186 427 l 186 0 l 109 0 l 109 1019 l 425 1019 l 425 1019 q 608 941 540 1017 q 675 703 673 867 l 805 703 l 805 954 l 882 1002 l 882 703 l 1176 703 q 1303 720 1234 722 q 1548 560 1518 714 l 1468 550 q 1293 658 1444 658 q 1187 633 1237 658 q 1121 543 1124 600 q 1191 444 1118 474 q 1339 401 1225 431 q 1512 333 1464 368 q 1577 186 1586 280 q 1480 43 1569 96 q 1305 -9 1405 -3 l 1034 -9 m 1306 60 q 1401 76 1358 60 q 1487 152 1469 101 q 1421 282 1516 235 q 1280 324 1396 294 q 1114 387 1162 354 q 1038 526 1038 436 q 1071 637 1038 572 l 882 637 l 882 208 q 928 77 886 103 q 1014 62 951 64 l 1014 60 l 1306 60 z "},"€":{"ha":892,"x_min":68,"x_max":825,"o":"m 672 978 q 794 963 734 978 q 825 923 825 955 l 825 921 q 809 888 825 901 q 773 881 793 876 q 672 894 724 894 q 434 817 541 894 q 280 593 330 741 l 627 593 q 641 587 635 593 q 646 574 646 582 l 646 558 q 640 545 646 550 q 627 538 635 538 l 271 538 q 267 489 267 505 q 272 423 267 465 l 583 423 q 597 417 591 423 q 602 404 602 412 l 602 389 q 597 375 602 380 q 583 369 591 369 l 284 369 q 441 156 340 227 q 672 85 545 85 q 772 97 724 85 q 809 90 793 102 q 825 57 825 77 l 825 56 q 794 15 825 23 q 672 0 734 0 q 375 100 506 0 q 197 369 245 199 l 87 369 q 74 374 79 369 q 68 389 68 380 l 68 404 q 73 418 68 412 q 87 423 79 423 l 187 423 q 183 489 183 467 q 184 538 183 503 l 87 538 q 74 544 79 538 q 68 558 68 550 l 68 574 q 73 587 68 582 q 87 593 79 593 l 193 593 q 369 873 238 770 q 672 978 502 978 z "},"№":{"ha":1471,"x_min":109,"x_max":1440,"o":"m 208 1019 q 726 111 566 416 l 726 1019 l 816 1019 l 816 0 l 717 0 q 199 918 359 604 l 199 0 l 109 0 l 109 1019 l 208 1019 m 967 1 l 967 79 l 1419 79 l 1419 1 l 967 1 m 962 507 q 1038 713 962 638 q 1202 781 1105 781 q 1366 713 1299 781 q 1440 507 1440 638 q 1366 302 1440 377 q 1202 235 1299 235 q 1038 302 1105 235 q 962 507 962 378 m 1045 508 q 1093 369 1045 420 q 1201 321 1137 321 q 1309 369 1265 321 q 1357 508 1357 420 q 1309 647 1357 595 q 1201 695 1265 695 q 1093 647 1137 695 q 1045 508 1045 595 z "},"™":{"ha":838,"x_min":27,"x_max":764,"o":"m 288 955 q 282 943 288 948 q 269 939 277 939 l 176 939 l 176 598 q 171 586 176 591 q 158 581 166 581 l 157 581 q 144 586 149 581 q 139 598 139 591 l 139 939 l 46 939 q 33 943 38 939 q 27 955 27 948 l 27 956 q 33 968 27 963 q 46 972 38 972 l 269 972 q 282 968 277 972 q 288 956 288 963 l 288 955 m 326 598 q 321 586 326 591 q 307 581 315 581 l 306 581 q 293 586 299 581 q 288 598 288 591 l 288 858 q 325 939 288 906 q 416 972 363 972 q 526 919 480 972 q 635 972 572 972 q 726 939 689 972 q 764 858 764 906 l 764 598 q 758 586 764 591 q 745 581 753 581 l 744 581 q 731 586 737 581 q 726 598 726 591 l 726 858 q 699 915 726 892 q 635 939 673 939 q 571 915 598 939 q 545 858 545 892 l 545 598 q 539 586 545 591 q 526 581 534 581 l 526 581 q 512 586 518 581 q 507 598 507 591 l 507 858 q 480 915 507 892 q 416 939 454 939 q 353 915 379 939 q 326 858 326 892 l 326 598 z "},"∂":{"ha":682,"x_min":68,"x_max":614,"o":"m 525 545 q 297 486 386 537 q 172 301 185 423 q 214 162 159 192 q 349 181 267 132 q 486 352 445 238 q 525 543 516 433 q 525 545 525 544 m 613 589 q 613 584 613 586 q 610 536 612 559 q 567 322 601 414 q 393 108 515 180 q 172 87 269 34 q 86 311 68 144 q 241 553 104 469 q 528 631 355 623 q 528 686 528 645 q 511 801 528 755 q 429 869 486 869 q 347 826 389 869 q 292 748 313 791 q 268 726 284 732 q 235 727 251 720 q 213 751 219 734 q 214 784 207 768 q 268 867 234 826 q 429 954 342 954 q 526 923 484 954 q 614 686 614 857 q 613 591 614 620 l 613 589 z "},"∆":{"ha":861,"x_min":68,"x_max":793,"o":"m 404 899 q 430 916 412 916 q 456 899 449 916 l 786 162 q 784 135 793 148 q 760 122 776 122 l 100 122 q 76 135 85 122 q 74 162 68 148 l 404 899 m 672 210 l 430 750 l 188 210 l 672 210 z "},"∏":{"ha":912,"x_min":68,"x_max":844,"o":"m 758 934 l 154 934 l 154 -83 q 141 -113 154 -101 q 111 -126 128 -126 q 81 -113 93 -126 q 68 -83 68 -101 l 68 977 q 81 1007 68 994 q 111 1020 93 1020 l 801 1020 q 831 1007 819 1020 q 844 977 844 994 l 844 -83 q 831 -113 844 -101 q 801 -126 819 -126 q 771 -113 783 -126 q 758 -83 758 -101 l 758 934 z "},"∑":{"ha":928,"x_min":68,"x_max":861,"o":"m 207 932 l 555 492 q 555 439 576 465 l 207 -2 l 818 -2 q 848 -15 836 -2 q 861 -45 861 -28 q 848 -75 861 -63 q 818 -88 836 -88 l 118 -88 q 79 -64 92 -88 q 85 -18 68 -40 l 467 465 l 85 949 q 79 994 68 970 q 118 1019 92 1019 l 818 1019 q 848 1006 836 1019 q 861 975 861 993 q 848 945 861 958 q 818 932 836 932 l 207 932 z "},"−":{"ha":564,"x_min":34,"x_max":530,"o":"m 530 488 q 518 459 530 471 q 488 447 506 447 l 75 447 q 46 459 58 447 q 34 488 34 471 l 34 490 q 46 519 34 507 q 75 532 58 532 l 488 532 q 518 519 506 532 q 530 490 530 507 l 530 488 z "},"√":{"ha":787,"x_min":68,"x_max":720,"o":"m 632 1065 q 650 1093 635 1082 q 682 1101 664 1103 q 709 1084 699 1098 q 717 1051 720 1069 l 553 37 q 517 1 549 6 q 473 25 486 -3 l 233 515 l 131 473 q 98 473 114 467 q 75 497 81 480 q 75 530 68 513 q 98 553 81 546 l 237 610 q 269 611 253 617 q 292 589 285 605 l 490 184 l 632 1065 z "},"∞":{"ha":824,"x_min":68,"x_max":756,"o":"m 386 583 q 585 709 478 709 q 720 656 679 709 q 756 512 756 610 q 715 369 756 420 q 580 315 669 315 q 385 437 475 315 q 214 348 310 348 q 102 397 140 348 q 68 517 68 441 q 103 629 68 587 q 210 679 141 675 l 212 679 q 386 583 307 681 m 422 509 q 487 427 463 450 q 580 386 530 386 q 649 405 625 386 q 685 512 685 433 q 658 618 685 593 q 585 637 637 637 q 519 620 549 637 q 422 509 481 597 m 352 509 q 213 608 281 608 q 139 517 139 604 q 214 419 139 419 q 352 509 286 419 z "},"∫":{"ha":412,"x_min":1,"x_max":412,"o":"m 349 920 q 293 933 321 931 q 267 928 270 935 q 256 845 260 914 q 250 688 252 784 q 249 427 249 654 q 248 165 249 199 q 242 -1 247 63 q 222 -114 235 -87 q 135 -165 197 -161 q 31 -146 86 -168 q 7 -123 14 -139 q 7 -90 1 -106 q 31 -66 14 -73 q 63 -66 47 -60 q 119 -79 92 -77 q 145 -75 142 -81 q 157 9 151 -60 q 163 166 161 70 q 163 427 163 200 q 164 689 163 654 q 170 854 165 791 q 191 968 177 941 q 277 1019 215 1015 q 381 1000 326 1022 q 405 977 397 993 q 405 943 412 960 q 382 920 398 927 q 349 920 366 913 z "},"≈":{"ha":812,"x_min":68,"x_max":745,"o":"m 84 581 q 277 656 171 656 q 414 625 328 656 q 552 583 529 583 q 673 637 608 583 q 705 647 686 648 q 733 631 722 645 q 743 600 745 618 q 728 571 742 583 q 552 497 640 497 q 385 544 514 497 q 277 570 313 570 q 140 515 203 570 q 109 505 126 504 q 79 520 91 507 q 69 551 68 534 q 84 581 71 569 m 84 397 q 277 471 171 471 q 414 440 328 471 q 552 399 529 399 q 673 452 608 399 q 704 463 686 464 q 733 447 722 461 q 743 416 745 433 q 728 387 741 398 q 552 313 640 313 q 385 359 514 313 q 277 385 313 385 q 140 332 203 385 q 109 321 126 320 q 79 336 91 323 q 69 368 68 349 q 84 397 71 385 z "},"≤":{"ha":747,"x_min":68,"x_max":680,"o":"m 633 243 q 663 230 651 243 q 676 200 676 218 q 663 170 676 182 q 633 157 651 157 l 111 157 q 81 170 93 157 q 68 200 68 182 q 81 230 68 218 q 111 243 93 243 l 633 243 m 650 416 q 673 393 666 410 q 673 360 680 376 q 650 337 666 344 q 616 337 633 330 l 94 557 q 68 597 68 568 q 94 636 68 625 l 616 856 q 650 856 633 863 q 673 833 666 849 q 673 800 680 817 q 650 777 666 783 l 222 597 l 650 416 z "},"≥":{"ha":747,"x_min":64,"x_max":676,"o":"m 633 243 q 664 230 651 243 q 676 200 676 218 q 664 170 676 182 q 633 157 651 157 l 111 157 q 81 170 93 157 q 68 200 68 182 q 81 230 68 218 q 111 243 93 243 l 633 243 m 522 597 l 94 777 q 71 800 78 783 q 71 833 64 817 q 95 856 78 849 q 127 856 111 863 l 650 636 q 676 597 676 625 q 650 557 676 568 l 127 337 q 95 337 111 330 q 71 360 78 344 q 71 393 64 376 q 94 416 78 410 l 522 597 z "},"":{"ha":745,"x_min":68,"x_max":664,"o":"m 365 978 q 395 966 382 978 q 406 937 406 954 l 406 935 q 395 905 406 918 q 365 894 382 894 l 326 894 q 203 843 254 894 q 153 720 153 792 l 153 699 l 365 699 q 395 687 382 699 q 406 658 406 675 l 406 656 q 395 627 406 639 q 365 614 382 614 l 153 614 l 153 41 q 140 12 153 24 q 111 0 128 0 l 109 0 q 80 12 92 0 q 68 41 68 24 l 68 720 q 143 903 69 828 q 326 978 218 978 l 365 978 m 610 700 q 640 688 627 700 q 652 658 652 675 l 652 41 q 640 12 652 24 q 610 0 627 0 l 609 0 q 579 12 591 0 q 567 41 567 24 l 567 658 q 579 688 567 675 q 609 700 591 700 l 610 700 m 610 869 q 571 885 587 869 q 555 924 555 901 q 571 962 555 946 q 610 977 587 977 q 648 962 632 977 q 664 924 664 945 q 648 885 664 901 q 610 869 632 869 z "},"ﬁ":{"ha":745,"x_min":68,"x_max":664,"o":"m 365 978 q 395 966 382 978 q 406 937 406 954 l 406 935 q 395 905 406 918 q 365 894 382 894 l 326 894 q 203 843 254 894 q 153 720 153 792 l 153 699 l 365 699 q 395 687 382 699 q 406 658 406 675 l 406 656 q 395 627 406 639 q 365 614 382 614 l 153 614 l 153 41 q 140 12 153 24 q 111 0 128 0 l 109 0 q 80 12 92 0 q 68 41 68 24 l 68 720 q 143 903 69 828 q 326 978 218 978 l 365 978 m 610 700 q 640 688 627 700 q 652 658 652 675 l 652 41 q 640 12 652 24 q 610 0 627 0 l 609 0 q 579 12 591 0 q 567 41 567 24 l 567 658 q 579 688 567 675 q 609 700 591 700 l 610 700 m 610 869 q 571 885 587 869 q 555 924 555 901 q 571 962 555 946 q 610 977 587 977 q 648 962 632 977 q 664 924 664 945 q 648 885 664 901 q 610 869 632 869 z "},"":{"ha":814,"x_min":68,"x_max":654,"o":"m 365 978 q 395 966 382 978 q 406 937 406 954 l 406 935 q 395 905 406 918 q 365 894 382 894 l 326 894 q 203 843 254 894 q 153 720 153 792 l 153 699 l 365 699 q 395 687 382 699 q 406 658 406 675 l 406 656 q 395 627 406 639 q 365 614 382 614 l 153 614 l 153 41 q 140 12 153 24 q 111 0 128 0 l 109 0 q 80 12 92 0 q 68 41 68 24 l 68 720 q 143 903 69 828 q 326 978 218 978 l 365 978 m 612 978 q 642 966 629 978 q 654 937 654 954 l 654 41 q 642 12 654 24 q 612 0 629 0 l 610 0 q 581 12 593 0 q 569 41 569 24 l 569 937 q 581 966 569 954 q 610 978 593 978 l 612 978 z "},"ﬂ":{"ha":814,"x_min":68,"x_max":654,"o":"m 365 978 q 395 966 382 978 q 406 937 406 954 l 406 935 q 395 905 406 918 q 365 894 382 894 l 326 894 q 203 843 254 894 q 153 720 153 792 l 153 699 l 365 699 q 395 687 382 699 q 406 658 406 675 l 406 656 q 395 627 406 639 q 365 614 382 614 l 153 614 l 153 41 q 140 12 153 24 q 111 0 128 0 l 109 0 q 80 12 92 0 q 68 41 68 24 l 68 720 q 143 903 69 828 q 326 978 218 978 l 365 978 m 612 978 q 642 966 629 978 q 654 937 654 954 l 654 41 q 642 12 654 24 q 612 0 629 0 l 610 0 q 581 12 593 0 q 569 41 569 24 l 569 937 q 581 966 569 954 q 610 978 593 978 l 612 978 z "},"⁰":{"ha":496,"x_min":27,"x_max":469,"o":"m 248 979 q 405 920 340 979 q 469 779 469 860 l 469 581 q 405 439 469 499 q 248 380 340 380 q 92 439 156 380 q 27 581 27 499 l 27 779 q 92 920 27 860 q 248 979 156 979 m 248 915 q 147 876 189 915 q 103 777 103 835 l 103 583 q 147 484 103 525 q 248 445 189 445 q 350 485 307 445 q 393 583 393 525 l 393 777 q 350 874 393 835 q 248 915 307 915 z "},"¹":{"ha":256,"x_min":27,"x_max":229,"o":"m 229 410 q 218 389 229 399 q 191 380 208 380 l 190 380 q 163 389 174 380 q 153 410 153 399 l 153 917 l 64 917 q 37 927 48 917 q 27 947 27 935 l 27 947 q 37 968 27 959 q 64 978 48 978 l 191 978 q 220 968 208 978 q 229 947 229 959 l 229 410 z "},"²":{"ha":474,"x_min":27,"x_max":447,"o":"m 264 978 q 391 931 339 978 q 442 818 442 883 q 392 715 442 762 q 277 637 360 684 q 161 560 192 588 q 106 442 106 510 l 409 442 q 437 431 426 442 q 447 412 447 422 l 447 410 q 437 391 447 399 q 409 380 426 380 l 64 380 q 37 391 48 380 q 27 410 27 399 l 27 449 q 78 571 27 515 q 193 656 115 610 q 311 728 292 715 q 366 818 366 771 q 334 889 366 860 q 264 917 305 917 l 87 917 q 58 926 69 917 q 49 947 49 935 l 49 947 q 58 968 49 959 q 87 978 70 978 l 264 978 z "},"³":{"ha":404,"x_min":27,"x_max":376,"o":"m 188 978 q 316 930 262 978 q 366 818 366 883 q 296 690 366 745 q 376 550 376 632 q 321 430 376 481 q 188 380 267 380 l 64 380 q 37 391 48 380 q 27 410 27 399 l 27 412 q 39 433 27 422 q 64 442 48 442 l 188 442 q 266 472 233 442 q 300 550 300 504 q 266 628 300 596 q 188 658 233 658 l 84 658 q 58 667 67 658 q 47 688 47 677 l 47 689 q 56 709 47 700 q 84 719 67 719 l 188 720 q 258 747 229 720 q 290 818 290 776 q 259 889 290 860 q 188 917 229 917 l 64 917 q 37 927 48 917 q 27 947 27 935 l 27 947 q 37 968 27 959 q 64 978 48 978 l 188 978 z "},"⁴":{"ha":534,"x_min":27,"x_max":507,"o":"m 265 961 q 299 978 275 978 l 365 978 q 393 968 382 978 q 403 947 403 959 l 403 560 l 469 560 q 497 549 486 560 q 507 530 507 541 l 507 528 q 496 507 507 517 q 469 498 486 498 l 403 498 l 403 410 q 393 391 403 399 q 365 380 382 380 l 364 380 q 336 391 347 380 q 326 410 326 399 l 326 498 l 64 498 q 37 509 48 498 q 27 528 27 517 l 27 557 q 31 570 27 564 l 265 961 m 326 560 l 326 923 l 109 560 l 326 560 z "},"⁵":{"ha":456,"x_min":27,"x_max":429,"o":"m 64 658 q 37 668 48 658 q 27 688 27 677 l 27 947 q 37 968 27 959 q 64 978 48 978 l 334 978 q 361 968 350 978 q 371 947 371 959 l 371 947 q 361 927 371 935 q 334 917 350 917 l 103 917 l 103 719 l 241 719 q 376 668 319 719 q 429 550 429 619 q 374 430 429 481 q 241 380 319 380 l 64 380 q 37 391 48 380 q 27 410 27 399 l 27 412 q 39 433 27 422 q 64 442 48 442 l 241 442 q 318 472 286 442 q 353 550 353 504 q 318 628 353 596 q 241 658 286 658 l 64 658 z "},"⁶":{"ha":489,"x_min":27,"x_max":462,"o":"m 103 658 l 103 550 q 138 472 103 504 q 215 442 170 442 l 273 442 q 351 472 319 442 q 385 550 385 504 q 351 628 385 596 q 273 658 319 658 l 103 658 m 215 380 q 82 430 136 380 q 27 550 27 481 l 27 808 q 81 926 27 878 q 215 978 136 978 l 350 978 q 378 968 367 978 q 388 947 388 959 l 388 947 q 378 927 388 935 q 350 917 367 917 l 215 917 q 136 885 170 917 q 103 808 103 854 l 103 719 l 273 719 q 408 668 352 719 q 462 550 462 619 q 407 430 462 481 q 273 380 352 380 l 215 380 z "},"⁷":{"ha":428,"x_min":27,"x_max":401,"o":"m 401 410 q 391 389 401 399 q 363 380 380 380 l 363 380 q 334 391 346 380 q 325 410 325 399 l 325 917 l 64 917 q 37 927 48 917 q 27 947 27 935 l 27 947 q 37 968 27 959 q 64 978 48 978 l 363 978 q 392 968 380 978 q 401 947 401 959 l 401 410 z "},"⁸":{"ha":496,"x_min":27,"x_max":469,"o":"m 281 978 q 409 930 356 978 q 460 818 460 883 q 389 690 460 745 q 469 550 469 633 q 416 431 469 481 q 281 380 361 380 l 215 380 q 82 430 136 380 q 27 550 27 481 q 108 690 27 632 q 37 818 37 745 q 89 931 37 883 q 215 978 140 978 l 281 978 m 281 442 q 360 473 327 442 q 393 550 393 504 q 359 628 393 595 q 281 658 327 658 l 215 658 q 136 627 170 658 q 103 550 103 595 q 138 472 103 504 q 215 442 170 442 l 281 442 m 281 720 q 352 747 323 720 q 383 818 383 776 q 351 889 383 860 q 281 917 322 917 l 215 917 q 145 889 174 917 q 113 818 113 860 q 145 747 113 776 q 215 720 174 720 l 281 720 z "},"⁹":{"ha":489,"x_min":27,"x_max":462,"o":"m 385 701 l 385 808 q 353 885 385 854 q 273 917 319 917 l 215 917 q 136 885 170 917 q 103 808 103 854 q 136 732 103 762 q 215 701 170 701 l 385 701 m 273 978 q 408 926 352 978 q 462 808 462 878 l 462 550 q 407 430 462 481 q 273 380 352 380 l 100 380 q 74 389 83 380 q 63 410 63 399 l 63 412 q 73 431 63 422 q 100 442 83 442 l 273 442 q 351 472 319 442 q 385 550 385 504 l 385 639 l 215 639 q 82 689 136 639 q 27 808 27 740 q 81 926 27 878 q 215 978 136 978 l 273 978 z "},"⁺":{"ha":486,"x_min":27,"x_max":459,"o":"m 281 642 l 421 642 q 448 632 438 642 q 459 610 459 622 l 459 610 q 450 590 459 599 q 421 580 438 580 l 281 580 l 281 446 q 271 425 281 435 q 243 416 260 416 l 243 416 q 215 426 226 416 q 205 446 205 435 l 205 580 l 64 580 q 37 590 47 580 q 27 610 27 599 l 27 610 q 37 631 27 622 q 64 642 47 642 l 205 642 l 205 775 q 215 795 205 787 q 243 806 226 806 l 243 806 q 272 795 260 806 q 281 775 281 787 l 281 642 z "},"⁻":{"ha":398,"x_min":27,"x_max":371,"o":"m 371 500 q 361 480 371 489 q 333 470 350 470 l 64 470 q 37 481 47 470 q 27 500 27 490 l 27 501 q 37 521 27 512 q 64 532 47 532 l 333 532 q 360 522 350 532 q 371 501 371 512 l 371 500 z "},"⁼":{"ha":486,"x_min":27,"x_max":459,"o":"m 459 466 q 450 446 459 454 q 421 435 438 435 l 64 435 q 37 446 47 435 q 27 466 27 455 l 27 467 q 37 486 27 477 q 64 497 47 497 l 421 497 q 448 488 438 497 q 459 467 459 477 l 459 466 m 459 643 q 450 623 459 631 q 421 612 438 612 l 64 612 q 37 623 47 612 q 27 643 27 632 l 27 644 q 37 663 27 654 q 64 674 47 674 l 421 674 q 448 665 438 674 q 459 644 459 654 l 459 643 z "},"ⁱ":{"ha":146,"x_min":27,"x_max":119,"o":"m 73 811 q 101 800 90 811 q 111 780 111 791 l 111 410 q 101 391 111 399 q 73 380 90 380 l 73 380 q 44 391 56 380 q 35 410 35 399 l 35 780 q 46 802 35 791 q 73 811 56 811 l 73 811 m 73 902 q 40 913 52 902 q 27 940 27 925 q 40 966 27 954 q 73 977 53 977 q 106 965 93 977 q 119 940 119 954 q 106 914 119 925 q 73 902 93 902 z "},"⁽":{"ha":275,"x_min":27,"x_max":248,"o":"m 201 216 q 76 288 125 231 q 27 412 27 342 l 27 782 q 76 907 27 852 q 201 979 125 963 q 235 972 220 983 q 248 949 248 963 l 248 945 q 239 926 248 936 q 219 916 233 918 q 136 869 169 905 q 99 779 99 830 l 99 415 q 136 326 99 364 q 219 279 169 289 q 239 268 233 276 q 248 249 248 259 l 248 245 q 235 222 248 232 q 201 216 220 212 z "},"⁾":{"ha":275,"x_min":27,"x_max":248,"o":"m 74 216 q 40 222 55 212 q 27 245 27 232 l 27 249 q 35 268 27 259 q 56 279 42 276 q 140 326 106 289 q 176 415 176 364 l 176 779 q 140 869 176 830 q 56 916 106 905 q 35 926 42 918 q 27 945 27 936 l 27 949 q 40 972 27 963 q 74 979 55 983 q 199 907 150 963 q 248 782 248 852 l 248 412 q 199 288 248 342 q 74 216 150 231 z "},"ⁿ":{"ha":449,"x_min":27,"x_max":422,"o":"m 103 577 q 94 557 103 566 q 66 547 82 547 l 64 547 q 37 557 48 547 q 27 577 27 566 l 27 800 q 85 926 27 872 q 224 978 142 978 q 364 926 307 978 q 422 800 422 872 l 422 577 q 412 557 422 566 q 384 547 401 547 l 383 547 q 355 558 366 547 q 345 577 345 566 l 345 800 q 309 884 345 849 q 224 916 273 916 q 140 884 175 916 q 103 800 103 849 l 103 577 z "},"₀":{"ha":496,"x_min":27,"x_max":469,"o":"m 248 279 q 405 220 340 279 q 469 79 469 160 l 469 -119 q 405 -260 469 -201 q 248 -319 340 -319 q 92 -260 156 -319 q 27 -119 27 -201 l 27 79 q 92 220 27 160 q 248 279 156 279 m 248 215 q 147 176 189 215 q 103 77 103 135 l 103 -117 q 147 -216 103 -175 q 248 -255 189 -255 q 350 -215 307 -255 q 393 -117 393 -175 l 393 77 q 350 174 393 135 q 248 215 307 215 z "},"₁":{"ha":256,"x_min":27,"x_max":229,"o":"m 229 -289 q 218 -310 229 -300 q 191 -319 208 -319 l 190 -319 q 163 -310 174 -319 q 153 -289 153 -300 l 153 217 l 64 217 q 37 227 48 217 q 27 248 27 236 l 27 248 q 37 269 27 260 q 64 279 48 279 l 191 279 q 220 269 208 279 q 229 248 229 260 l 229 -289 z "},"₂":{"ha":474,"x_min":27,"x_max":447,"o":"m 264 279 q 391 231 339 279 q 442 119 442 184 q 392 16 442 62 q 277 -62 360 -15 q 161 -140 192 -112 q 106 -258 106 -189 l 409 -258 q 437 -268 426 -258 q 447 -288 447 -277 l 447 -289 q 437 -309 447 -300 q 409 -319 426 -319 l 64 -319 q 37 -309 48 -319 q 27 -289 27 -300 l 27 -251 q 78 -129 27 -184 q 193 -43 115 -90 q 311 29 293 16 q 366 119 366 72 q 334 189 366 160 q 264 217 305 217 l 87 217 q 58 227 70 217 q 49 248 49 236 l 49 248 q 58 269 49 260 q 87 279 70 279 l 264 279 z "},"₃":{"ha":404,"x_min":27,"x_max":376,"o":"m 188 279 q 316 230 262 279 q 366 119 366 184 q 296 -10 366 45 q 376 -150 376 -68 q 321 -269 376 -218 q 188 -319 267 -319 l 64 -319 q 37 -309 48 -319 q 27 -289 27 -300 l 27 -288 q 38 -267 27 -277 q 64 -258 48 -258 l 188 -258 q 266 -228 233 -258 q 300 -150 300 -196 q 267 -72 300 -104 q 188 -41 233 -41 l 84 -41 q 57 -33 67 -41 q 47 -12 47 -23 l 47 -11 q 56 9 47 1 q 84 20 67 20 l 188 20 q 258 47 229 20 q 290 119 290 76 q 259 189 290 160 q 188 217 229 217 l 64 217 q 37 227 48 217 q 27 248 27 236 l 27 248 q 37 269 27 260 q 64 279 48 279 l 188 279 z "},"₄":{"ha":534,"x_min":27,"x_max":507,"o":"m 265 261 q 299 279 275 279 l 365 279 q 393 269 382 279 q 403 248 403 260 l 403 -140 l 469 -140 q 498 -150 486 -140 q 507 -170 507 -159 l 507 -171 q 496 -192 507 -182 q 469 -201 486 -201 l 403 -201 l 403 -289 q 393 -309 403 -300 q 365 -319 381 -319 l 364 -319 q 336 -309 348 -319 q 326 -289 326 -300 l 326 -201 l 64 -201 q 37 -191 48 -201 q 27 -171 27 -182 l 27 -142 q 31 -130 27 -136 l 265 261 m 326 -140 l 326 224 l 109 -140 l 326 -140 z "},"₅":{"ha":456,"x_min":27,"x_max":429,"o":"m 64 -41 q 37 -31 48 -41 q 27 -12 27 -22 l 27 248 q 37 269 27 260 q 64 279 48 279 l 334 279 q 361 269 350 279 q 371 248 371 260 l 371 248 q 361 227 371 236 q 334 217 350 217 l 103 217 l 103 20 l 241 20 q 376 -31 319 20 q 429 -150 429 -81 q 374 -269 429 -218 q 241 -319 319 -319 l 64 -319 q 37 -309 48 -319 q 27 -289 27 -300 l 27 -288 q 38 -267 27 -277 q 64 -258 48 -258 l 241 -258 q 318 -228 286 -258 q 353 -150 353 -196 q 319 -72 353 -104 q 241 -41 286 -41 l 64 -41 z "},"₆":{"ha":489,"x_min":27,"x_max":462,"o":"m 103 -41 l 103 -150 q 138 -228 103 -196 q 215 -258 170 -258 l 273 -258 q 351 -228 319 -258 q 385 -150 385 -196 q 351 -72 385 -104 q 273 -41 319 -41 l 103 -41 m 215 -319 q 82 -269 136 -319 q 27 -150 27 -218 l 27 109 q 81 227 27 178 q 215 279 136 279 l 350 279 q 378 269 367 279 q 388 248 388 260 l 388 248 q 378 227 388 236 q 350 217 367 217 l 215 217 q 136 186 170 217 q 103 109 103 155 l 103 20 l 273 20 q 408 -31 352 20 q 462 -150 462 -81 q 407 -269 462 -218 q 273 -319 352 -319 l 215 -319 z "},"₇":{"ha":428,"x_min":27,"x_max":401,"o":"m 401 -289 q 391 -310 401 -300 q 363 -319 380 -319 l 363 -319 q 334 -309 346 -319 q 325 -289 325 -300 l 325 217 l 64 217 q 37 227 48 217 q 27 248 27 236 l 27 248 q 37 269 27 260 q 64 279 48 279 l 363 279 q 392 269 380 279 q 401 248 401 260 l 401 -289 z "},"₈":{"ha":496,"x_min":27,"x_max":469,"o":"m 281 279 q 409 230 356 279 q 460 119 460 184 q 389 -10 460 45 q 469 -150 469 -67 q 416 -268 469 -218 q 281 -319 361 -319 l 215 -319 q 82 -269 136 -319 q 27 -150 27 -218 q 108 -10 27 -68 q 37 119 37 45 q 89 231 37 184 q 215 279 140 279 l 281 279 m 281 -258 q 360 -227 327 -258 q 393 -150 393 -196 q 359 -72 393 -104 q 281 -41 327 -41 l 215 -41 q 136 -73 170 -41 q 103 -150 103 -104 q 138 -228 103 -196 q 215 -258 170 -258 l 281 -258 m 281 20 q 352 47 322 20 q 383 119 383 76 q 351 189 383 160 q 281 217 322 217 l 215 217 q 145 189 174 217 q 113 119 113 160 q 145 47 113 76 q 215 20 175 20 l 281 20 z "},"₉":{"ha":489,"x_min":27,"x_max":462,"o":"m 385 1 l 385 109 q 352 186 385 155 q 273 217 319 217 l 215 217 q 136 186 170 217 q 103 109 103 155 q 136 33 103 63 q 215 1 170 1 l 385 1 m 273 279 q 408 227 352 279 q 462 109 462 178 l 462 -150 q 407 -269 462 -218 q 273 -319 352 -319 l 100 -319 q 74 -310 83 -319 q 63 -289 63 -300 l 63 -288 q 73 -268 63 -277 q 100 -258 83 -258 l 273 -258 q 351 -228 319 -258 q 385 -150 385 -196 l 385 -60 l 215 -60 q 82 -10 136 -60 q 27 109 27 40 q 81 227 27 178 q 215 279 136 279 l 273 279 z "},"₊":{"ha":486,"x_min":27,"x_max":459,"o":"m 281 10 l 421 10 q 448 1 438 10 q 459 -20 459 -9 l 459 -21 q 450 -41 459 -32 q 421 -52 438 -52 l 281 -52 l 281 -184 q 270 -206 281 -196 q 243 -216 260 -216 l 243 -216 q 215 -205 226 -216 q 205 -184 205 -196 l 205 -52 l 64 -52 q 37 -41 47 -52 q 27 -21 27 -32 l 27 -20 q 37 0 27 -9 q 64 10 47 10 l 205 10 l 205 144 q 215 164 205 156 q 243 175 226 175 l 243 175 q 272 164 260 175 q 281 144 281 155 l 281 10 z "},"₋":{"ha":398,"x_min":27,"x_max":371,"o":"m 371 -21 q 361 -41 371 -32 q 333 -51 350 -51 l 64 -51 q 37 -41 47 -51 q 27 -21 27 -32 l 27 -20 q 37 0 27 -9 q 64 11 47 11 l 333 11 q 359 1 350 11 q 371 -20 371 -9 l 371 -21 z "},"₌":{"ha":486,"x_min":27,"x_max":459,"o":"m 459 -109 q 450 -130 459 -121 q 421 -140 438 -140 l 64 -140 q 37 -129 47 -140 q 27 -109 27 -120 l 27 -109 q 37 -89 27 -98 q 64 -78 47 -78 l 421 -78 q 448 -87 438 -78 q 459 -109 459 -98 l 459 -109 m 459 68 q 450 47 459 56 q 421 37 438 37 l 64 37 q 37 48 47 37 q 27 68 27 57 l 27 68 q 37 88 27 79 q 64 99 47 99 l 421 99 q 448 90 438 99 q 459 68 459 79 l 459 68 z "},"₍":{"ha":275,"x_min":27,"x_max":248,"o":"m 201 -279 q 75 -208 125 -264 q 27 -83 27 -153 l 27 287 q 76 412 27 357 q 201 484 125 468 q 235 476 220 488 q 248 454 248 467 l 248 450 q 239 431 248 440 q 219 420 233 423 q 136 374 169 410 q 99 284 99 334 l 99 -81 q 136 -170 99 -131 q 219 -216 169 -206 q 239 -227 233 -219 q 248 -246 248 -237 l 248 -250 q 235 -273 248 -263 q 201 -279 220 -283 z "},"₎":{"ha":275,"x_min":27,"x_max":248,"o":"m 74 -279 q 40 -273 55 -283 q 27 -250 27 -263 l 27 -246 q 35 -227 27 -237 q 56 -216 42 -219 q 140 -170 106 -206 q 176 -80 176 -131 l 176 284 q 140 374 176 334 q 56 420 106 410 q 35 431 42 423 q 27 450 27 440 l 27 454 q 40 476 27 467 q 74 484 55 488 q 199 412 150 468 q 248 287 248 357 l 248 -83 q 199 -208 248 -153 q 74 -279 150 -264 z "},"⃝":{"ha":1316,"x_min":68,"x_max":1249,"o":"m 659 978 q 1076 805 903 978 q 1249 387 1249 633 q 1076 -30 1249 142 q 659 -203 903 -203 q 240 -30 413 -203 q 68 387 68 142 q 240 805 68 633 q 659 978 413 978 m 659 916 q 284 761 439 916 q 130 387 130 606 q 284 14 130 169 q 659 -141 439 -141 q 1032 14 877 -141 q 1187 387 1187 169 q 1032 761 1187 606 q 659 916 877 916 z "},"Ⓐ":{"ha":1276,"x_min":68,"x_max":1249,"o":"m 892 36 q 882 13 892 22 q 852 0 870 0 l 851 0 q 822 13 833 0 q 812 36 812 22 l 812 300 l 490 300 l 490 36 q 481 13 490 22 q 451 0 468 0 l 449 0 q 419 13 432 0 q 410 36 410 22 l 410 525 q 479 696 410 625 q 650 770 550 770 q 823 696 752 770 q 892 525 892 625 l 892 36 m 812 373 l 812 525 q 763 648 812 597 q 650 697 716 697 q 538 648 585 697 q 490 525 490 597 l 490 373 l 812 373 m 659 978 q 1076 805 903 978 q 1249 387 1249 633 q 1076 -30 1249 142 q 659 -203 903 -203 q 240 -30 413 -203 q 68 387 68 142 q 240 805 68 633 q 659 978 413 978 m 659 916 q 284 761 439 916 q 130 387 130 606 q 284 14 130 169 q 659 -141 439 -141 q 1032 14 877 -141 q 1187 387 1187 169 q 1032 761 1187 606 q 659 916 877 916 z "},"Ⓑ":{"ha":1276,"x_min":68,"x_max":1249,"o":"m 511 434 l 672 434 q 757 470 722 434 q 794 566 794 509 q 757 660 794 621 q 673 697 722 697 l 551 697 q 524 684 536 697 q 511 649 511 669 l 511 434 m 430 649 q 464 733 430 698 q 551 770 500 770 l 673 770 q 815 710 758 770 q 875 566 875 649 q 791 398 875 471 q 886 217 886 322 q 823 64 886 129 q 673 0 762 0 l 551 0 q 466 35 500 0 q 430 121 430 73 l 430 649 m 673 73 q 765 113 726 73 q 806 217 806 156 q 765 321 806 278 q 673 361 726 361 l 511 361 l 511 121 q 524 85 511 100 q 551 73 536 73 l 673 73 m 659 978 q 1076 805 903 978 q 1249 387 1249 633 q 1076 -30 1249 142 q 659 -203 903 -203 q 240 -30 413 -203 q 68 387 68 142 q 240 805 68 633 q 659 978 413 978 m 659 916 q 284 761 439 916 q 130 387 130 606 q 284 14 130 169 q 659 -141 439 -141 q 1032 14 877 -141 q 1187 387 1187 169 q 1032 761 1187 606 q 659 916 877 916 z "},"Ⓒ":{"ha":1276,"x_min":68,"x_max":1249,"o":"m 669 764 q 764 751 718 764 q 793 717 793 743 l 793 715 q 779 688 793 699 q 743 681 763 675 q 669 690 707 690 q 461 599 549 690 q 375 378 375 509 q 463 155 375 248 q 669 66 549 66 q 743 76 707 66 q 779 68 763 81 q 793 41 793 58 l 793 40 q 764 5 793 13 q 669 -7 718 -7 q 405 106 513 -7 q 294 378 294 220 q 405 650 294 536 q 669 764 513 764 m 659 978 q 1076 805 903 978 q 1249 387 1249 633 q 1076 -30 1249 142 q 659 -203 903 -203 q 240 -30 413 -203 q 68 387 68 142 q 240 805 68 633 q 659 978 413 978 m 659 916 q 284 761 439 916 q 130 387 130 606 q 284 14 130 169 q 659 -141 439 -141 q 1032 14 877 -141 q 1187 387 1187 169 q 1032 761 1187 606 q 659 916 877 916 z "},"Ⓓ":{"ha":1276,"x_min":68,"x_max":1249,"o":"m 511 121 q 524 85 511 100 q 551 73 536 73 l 628 73 q 836 162 749 73 q 924 385 924 254 q 838 606 924 516 q 628 697 749 697 l 551 697 q 524 684 536 697 q 511 649 511 669 l 511 121 m 628 770 q 893 657 785 770 q 1004 385 1004 543 q 893 113 1004 227 q 628 0 785 0 l 551 0 q 466 35 500 0 q 430 121 430 73 l 430 649 q 464 733 430 698 q 551 770 500 770 l 628 770 m 659 978 q 1076 805 903 978 q 1249 387 1249 633 q 1076 -30 1249 142 q 659 -203 903 -203 q 240 -30 413 -203 q 68 387 68 142 q 240 805 68 633 q 659 978 413 978 m 659 916 q 284 761 439 916 q 130 387 130 606 q 284 14 130 169 q 659 -141 439 -141 q 1032 14 877 -141 q 1187 387 1187 169 q 1032 761 1187 606 q 659 916 877 916 z "},"Ⓔ":{"ha":1276,"x_min":68,"x_max":1249,"o":"m 531 422 l 795 422 q 825 410 813 422 q 835 386 835 399 l 835 385 q 825 361 835 371 q 795 349 813 349 l 531 349 l 531 165 q 555 100 531 125 q 614 73 581 73 l 795 73 q 823 63 813 73 q 835 37 835 51 l 835 36 q 825 13 835 22 q 795 0 813 0 l 614 0 q 498 48 545 0 q 450 165 450 98 l 450 605 q 498 722 450 672 q 614 770 545 770 l 795 770 q 825 758 813 770 q 835 734 835 748 l 835 733 q 823 707 835 720 q 795 696 813 696 l 614 696 q 555 670 582 696 q 531 605 531 644 l 531 422 m 659 978 q 1076 805 903 978 q 1249 387 1249 633 q 1076 -30 1249 142 q 659 -203 903 -203 q 240 -30 413 -203 q 68 387 68 142 q 240 805 68 633 q 659 978 413 978 m 659 916 q 284 761 439 916 q 130 387 130 606 q 284 14 130 169 q 659 -141 439 -141 q 1032 14 877 -141 q 1187 387 1187 169 q 1032 761 1187 606 q 659 916 877 916 z "},"Ⓕ":{"ha":1276,"x_min":68,"x_max":1249,"o":"m 545 422 l 779 422 q 808 410 796 422 q 818 386 818 399 l 818 385 q 808 361 818 371 q 779 349 796 349 l 545 349 l 545 36 q 535 13 545 22 q 505 0 522 0 l 503 0 q 473 13 486 0 q 464 36 464 22 l 464 605 q 512 722 464 672 q 627 770 558 770 l 784 770 q 814 758 802 770 q 823 734 823 748 l 823 733 q 814 709 823 720 q 784 697 802 697 l 627 697 q 568 670 595 697 q 545 605 545 645 l 545 422 m 659 978 q 1076 805 903 978 q 1249 387 1249 633 q 1076 -30 1249 142 q 659 -203 903 -203 q 240 -30 413 -203 q 68 387 68 142 q 240 805 68 633 q 659 978 413 978 m 659 916 q 284 761 439 916 q 130 387 130 606 q 284 14 130 169 q 659 -141 439 -141 q 1032 14 877 -141 q 1187 387 1187 169 q 1032 761 1187 606 q 659 916 877 916 z "},"Ⓖ":{"ha":1276,"x_min":68,"x_max":1249,"o":"m 663 764 q 941 637 829 764 q 949 611 951 626 q 937 589 948 596 l 936 588 q 905 578 921 576 q 878 591 888 580 q 663 690 791 690 q 454 599 543 690 q 368 378 368 509 q 456 155 368 248 q 663 66 543 66 q 853 140 770 66 q 956 342 936 214 l 675 342 q 648 353 658 342 q 636 378 636 364 l 636 379 q 646 403 636 393 q 675 415 657 415 l 998 415 q 1028 403 1017 415 q 1038 379 1038 393 l 1038 378 q 930 108 1038 220 q 663 -7 819 -7 q 398 106 506 -7 q 288 378 288 220 q 398 650 288 536 q 663 764 506 764 m 659 978 q 1076 805 903 978 q 1249 387 1249 633 q 1076 -30 1249 142 q 659 -203 903 -203 q 240 -30 413 -203 q 68 387 68 142 q 240 805 68 633 q 659 978 413 978 m 659 916 q 284 761 439 916 q 130 387 130 606 q 284 14 130 169 q 659 -141 439 -141 q 1032 14 877 -141 q 1187 387 1187 169 q 1032 761 1187 606 q 659 916 877 916 z "},"Ⓗ":{"ha":1276,"x_min":68,"x_max":1249,"o":"m 444 770 q 474 758 462 770 q 484 734 484 748 l 484 422 l 809 422 l 809 734 q 819 758 809 748 q 849 770 831 770 l 850 770 q 880 758 868 770 q 890 734 890 748 l 890 36 q 880 13 890 22 q 850 0 867 0 l 849 0 q 819 13 831 0 q 809 36 809 22 l 809 349 l 484 349 l 484 36 q 474 13 484 22 q 444 0 461 0 l 442 0 q 412 13 425 0 q 403 36 403 22 l 403 734 q 412 758 403 748 q 442 770 425 770 l 444 770 m 659 978 q 1076 805 903 978 q 1249 387 1249 633 q 1076 -30 1249 142 q 659 -203 903 -203 q 240 -30 413 -203 q 68 387 68 142 q 240 805 68 633 q 659 978 413 978 m 659 916 q 284 761 439 916 q 130 387 130 606 q 284 14 130 169 q 659 -141 439 -141 q 1032 14 877 -141 q 1187 387 1187 169 q 1032 761 1187 606 q 659 916 877 916 z "},"Ⓘ":{"ha":1276,"x_min":68,"x_max":1249,"o":"m 637 770 q 667 758 654 770 q 676 734 676 748 l 676 36 q 667 13 676 22 q 637 0 654 0 l 635 0 q 605 13 618 0 q 595 36 595 22 l 595 734 q 605 758 595 748 q 635 770 617 770 l 637 770 m 659 978 q 1076 805 903 978 q 1249 387 1249 633 q 1076 -30 1249 142 q 659 -203 903 -203 q 240 -30 413 -203 q 68 387 68 142 q 240 805 68 633 q 659 978 413 978 m 659 916 q 284 761 439 916 q 130 387 130 606 q 284 14 130 169 q 659 -141 439 -141 q 1032 14 877 -141 q 1187 387 1187 169 q 1032 761 1187 606 q 659 916 877 916 z "},"Ⓙ":{"ha":1276,"x_min":68,"x_max":1249,"o":"m 689 734 q 699 758 689 748 q 729 770 711 770 l 730 770 q 760 758 748 770 q 769 734 769 748 l 769 165 q 721 48 769 98 q 606 0 675 0 l 511 0 q 481 13 494 0 q 472 36 472 22 l 472 37 q 484 63 472 51 q 511 73 494 73 l 606 73 q 665 100 639 73 q 689 165 689 125 l 689 734 m 659 978 q 1076 805 903 978 q 1249 387 1249 633 q 1076 -30 1249 142 q 659 -203 903 -203 q 240 -30 413 -203 q 68 387 68 142 q 240 805 68 633 q 659 978 413 978 m 659 916 q 284 761 439 916 q 130 387 130 606 q 284 14 130 169 q 659 -141 439 -141 q 1032 14 877 -141 q 1187 387 1187 169 q 1032 761 1187 606 q 659 916 877 916 z "},"Ⓚ":{"ha":1276,"x_min":68,"x_max":1249,"o":"m 464 770 q 494 758 481 770 q 503 734 503 748 l 503 448 l 578 448 q 711 505 655 448 q 768 650 768 565 l 768 734 q 781 760 768 748 q 808 770 790 770 l 810 770 q 840 758 827 770 q 849 734 849 748 l 849 650 q 726 417 849 513 q 836 308 802 370 q 871 172 871 244 l 871 36 q 859 11 871 22 q 831 0 849 0 l 830 0 q 802 11 812 0 q 791 36 791 22 l 791 172 q 734 314 790 256 q 600 374 677 374 l 503 374 l 503 36 q 494 13 503 22 q 464 0 481 0 l 462 0 q 432 13 445 0 q 422 36 422 22 l 422 734 q 432 758 422 748 q 462 770 444 770 l 464 770 m 659 978 q 1076 805 903 978 q 1249 387 1249 633 q 1076 -30 1249 142 q 659 -203 903 -203 q 240 -30 413 -203 q 68 387 68 142 q 240 805 68 633 q 659 978 413 978 m 659 916 q 284 761 439 916 q 130 387 130 606 q 284 14 130 169 q 659 -141 439 -141 q 1032 14 877 -141 q 1187 387 1187 169 q 1032 761 1187 606 q 659 916 877 916 z "},"Ⓛ":{"ha":1276,"x_min":68,"x_max":1249,"o":"m 557 165 q 581 100 557 125 q 640 73 607 73 l 788 73 q 817 63 806 73 q 828 37 828 51 l 828 36 q 818 13 828 23 q 788 0 806 0 l 640 0 q 524 48 570 0 q 476 165 476 98 l 476 734 q 486 758 476 748 q 515 770 498 770 l 517 770 q 547 758 535 770 q 557 734 557 748 l 557 165 m 659 978 q 1076 805 903 978 q 1249 387 1249 633 q 1076 -30 1249 142 q 659 -203 903 -203 q 240 -30 413 -203 q 68 387 68 142 q 240 805 68 633 q 659 978 413 978 m 659 916 q 284 761 439 916 q 130 387 130 606 q 284 14 130 169 q 659 -141 439 -141 q 1032 14 877 -141 q 1187 387 1187 169 q 1032 761 1187 606 q 659 916 877 916 z "},"Ⓜ":{"ha":1276,"x_min":68,"x_max":1249,"o":"m 313 63 q 303 40 313 50 q 273 27 290 27 l 271 27 q 241 40 254 27 q 232 63 232 50 l 232 571 q 298 731 232 663 q 454 798 361 798 q 637 701 566 798 q 819 798 707 798 q 977 731 913 798 q 1042 571 1042 663 l 1042 63 q 1030 38 1042 50 q 1002 27 1020 27 l 1002 27 q 972 40 983 27 q 962 63 962 50 l 962 571 q 920 680 962 636 q 819 724 877 724 q 718 680 762 724 q 677 571 677 636 l 677 63 q 667 40 677 50 q 637 27 656 27 l 637 27 q 607 40 618 27 q 597 63 597 50 l 597 571 q 555 680 597 636 q 454 724 512 724 q 354 680 397 724 q 313 571 313 636 l 313 63 m 659 978 q 1076 805 903 978 q 1249 387 1249 633 q 1076 -30 1249 142 q 659 -203 903 -203 q 240 -30 413 -203 q 68 387 68 142 q 240 805 68 633 q 659 978 413 978 m 659 916 q 284 761 439 916 q 130 387 130 606 q 284 14 130 169 q 659 -141 439 -141 q 1032 14 877 -141 q 1187 387 1187 169 q 1032 761 1187 606 q 659 916 877 916 z "},"Ⓝ":{"ha":1276,"x_min":68,"x_max":1249,"o":"m 892 36 q 882 13 892 22 q 852 0 870 0 l 851 0 q 822 13 833 0 q 812 36 812 22 l 812 525 q 763 648 812 597 q 650 697 716 697 q 538 648 585 697 q 490 525 490 597 l 490 36 q 481 13 490 22 q 451 0 468 0 l 449 0 q 419 13 432 0 q 410 36 410 22 l 410 525 q 479 696 410 625 q 650 770 550 770 q 823 696 752 770 q 892 525 892 625 l 892 36 m 659 978 q 1076 805 903 978 q 1249 387 1249 633 q 1076 -30 1249 142 q 659 -203 903 -203 q 240 -30 413 -203 q 68 387 68 142 q 240 805 68 633 q 659 978 413 978 m 659 916 q 284 761 439 916 q 130 387 130 606 q 284 14 130 169 q 659 -141 439 -141 q 1032 14 877 -141 q 1187 387 1187 169 q 1032 761 1187 606 q 659 916 877 916 z "},"Ⓞ":{"ha":1276,"x_min":68,"x_max":1249,"o":"m 649 770 q 916 655 806 770 q 1025 385 1025 543 q 916 115 1025 227 q 649 0 806 0 q 385 113 492 0 q 274 385 274 227 q 385 657 274 543 q 649 770 492 770 m 649 697 q 441 606 529 697 q 355 385 355 516 q 442 162 355 254 q 649 73 529 73 q 857 162 770 73 q 945 385 945 254 q 859 606 945 516 q 649 697 770 697 m 659 978 q 1076 805 903 978 q 1249 387 1249 633 q 1076 -30 1249 142 q 659 -203 903 -203 q 240 -30 413 -203 q 68 387 68 142 q 240 805 68 633 q 659 978 413 978 m 659 916 q 284 761 439 916 q 130 387 130 606 q 284 14 130 169 q 659 -141 439 -141 q 1032 14 877 -141 q 1187 387 1187 169 q 1032 761 1187 606 q 659 916 877 916 z "},"Ⓟ":{"ha":1276,"x_min":68,"x_max":1249,"o":"m 497 338 l 665 338 q 783 391 732 338 q 832 517 832 441 q 782 646 832 593 q 665 697 732 697 q 547 646 596 697 q 497 517 497 593 l 497 338 m 497 264 l 497 36 q 488 13 497 22 q 458 0 475 0 l 456 0 q 426 13 439 0 q 416 36 416 22 l 416 517 q 488 694 416 621 q 665 770 561 770 q 840 696 769 770 q 913 517 913 621 q 841 340 913 414 q 665 264 769 264 l 497 264 m 659 978 q 1076 805 903 978 q 1249 387 1249 633 q 1076 -30 1249 142 q 659 -203 903 -203 q 240 -30 413 -203 q 68 387 68 142 q 240 805 68 633 q 659 978 413 978 m 659 916 q 284 761 439 916 q 130 387 130 606 q 284 14 130 169 q 659 -141 439 -141 q 1032 14 877 -141 q 1187 387 1187 169 q 1032 761 1187 606 q 659 916 877 916 z "},"Ⓠ":{"ha":1276,"x_min":68,"x_max":1249,"o":"m 642 770 q 909 655 799 770 q 1018 385 1018 543 q 924 132 1018 239 q 683 2 831 21 l 683 -106 q 673 -130 683 -120 q 643 -142 661 -142 l 642 -142 q 614 -132 624 -142 q 602 -106 602 -120 l 602 2 q 361 132 454 21 q 267 385 267 240 q 378 657 267 543 q 642 770 486 770 m 643 256 q 671 245 661 256 q 683 220 683 234 l 683 77 q 865 180 795 95 q 938 385 938 269 q 852 606 938 516 q 642 697 764 697 q 434 606 522 697 q 348 385 348 516 q 420 180 348 268 q 602 77 490 95 l 602 220 q 612 243 602 234 q 642 256 624 256 l 643 256 m 659 978 q 1076 805 903 978 q 1249 387 1249 633 q 1076 -30 1249 142 q 659 -203 903 -203 q 240 -30 413 -203 q 68 387 68 142 q 240 805 68 633 q 659 978 413 978 m 659 916 q 284 761 439 916 q 130 387 130 606 q 284 14 130 169 q 659 -141 439 -141 q 1032 14 877 -141 q 1187 387 1187 169 q 1032 761 1187 606 q 659 916 877 916 z "},"Ⓡ":{"ha":1276,"x_min":68,"x_max":1249,"o":"m 652 370 q 758 416 713 370 q 804 533 804 465 q 758 651 804 602 q 652 696 713 696 l 593 696 q 521 669 549 696 q 491 612 497 646 q 490 587 490 603 l 490 370 l 652 370 m 804 134 q 758 251 804 203 q 663 297 718 294 l 490 297 l 490 36 q 478 11 490 22 q 450 0 468 0 l 449 0 q 420 13 431 0 q 410 36 410 22 l 410 592 q 461 718 410 664 q 586 770 511 770 l 652 770 q 818 699 750 770 q 884 533 884 630 q 817 366 884 437 q 779 333 806 355 q 817 301 806 311 q 884 134 884 231 l 884 36 q 875 13 884 22 q 845 0 862 0 l 844 0 q 814 13 827 0 q 804 36 804 22 l 804 134 m 659 978 q 1076 805 903 978 q 1249 387 1249 633 q 1076 -30 1249 142 q 659 -203 903 -203 q 240 -30 413 -203 q 68 387 68 142 q 240 805 68 633 q 659 978 413 978 m 659 916 q 284 761 439 916 q 130 387 130 606 q 284 14 130 169 q 659 -141 439 -141 q 1032 14 877 -141 q 1187 387 1187 169 q 1032 761 1187 606 q 659 916 877 916 z "},"Ⓢ":{"ha":1276,"x_min":68,"x_max":1249,"o":"m 635 699 q 545 658 584 699 q 509 562 509 619 q 569 454 509 490 q 695 409 591 440 q 814 349 778 383 q 865 212 865 301 q 805 64 865 125 q 656 0 744 0 l 463 0 q 435 11 446 0 q 423 36 423 23 l 423 39 q 435 64 423 52 q 463 75 446 75 l 662 75 q 749 113 711 75 q 789 212 789 154 q 728 319 789 283 q 601 368 704 335 q 481 431 518 397 q 431 562 431 478 q 493 711 431 648 q 640 773 552 773 l 777 773 q 805 762 795 773 q 817 737 817 751 l 817 734 q 807 711 817 721 q 777 699 795 699 l 635 699 m 659 978 q 1076 805 903 978 q 1249 387 1249 633 q 1076 -30 1249 142 q 659 -203 903 -203 q 240 -30 413 -203 q 68 387 68 142 q 240 805 68 633 q 659 978 413 978 m 659 916 q 284 761 439 916 q 130 387 130 606 q 284 14 130 169 q 659 -141 439 -141 q 1032 14 877 -141 q 1187 387 1187 169 q 1032 761 1187 606 q 659 916 877 916 z "},"Ⓣ":{"ha":1276,"x_min":68,"x_max":1249,"o":"m 861 713 q 849 687 861 699 q 821 677 840 677 l 675 677 l 675 16 q 664 -9 675 2 q 636 -20 654 -20 l 635 -20 q 607 -9 617 -20 q 595 16 595 2 l 595 677 l 449 677 q 419 689 431 677 q 410 713 410 699 l 410 714 q 419 738 410 728 q 449 750 431 750 l 821 750 q 849 740 840 750 q 861 714 861 728 l 861 713 m 659 978 q 1076 805 903 978 q 1249 387 1249 633 q 1076 -30 1249 142 q 659 -203 903 -203 q 240 -30 413 -203 q 68 387 68 142 q 240 805 68 633 q 659 978 413 978 m 659 916 q 284 761 439 916 q 130 387 130 606 q 284 14 130 169 q 659 -141 439 -141 q 1032 14 877 -141 q 1187 387 1187 169 q 1032 761 1187 606 q 659 916 877 916 z "},"Ⓤ":{"ha":1276,"x_min":68,"x_max":1249,"o":"m 878 245 q 809 74 878 145 q 637 0 739 0 q 465 74 536 0 q 396 245 396 145 l 396 734 q 406 758 396 748 q 435 770 418 770 l 437 770 q 467 758 455 770 q 477 734 477 748 l 477 245 q 525 121 477 173 q 637 73 572 73 q 749 121 703 73 q 798 245 798 173 l 798 734 q 808 758 798 748 q 838 770 820 770 l 839 770 q 869 758 857 770 q 878 734 878 748 l 878 245 m 659 978 q 1076 805 903 978 q 1249 387 1249 633 q 1076 -30 1249 142 q 659 -203 903 -203 q 240 -30 413 -203 q 68 387 68 142 q 240 805 68 633 q 659 978 413 978 m 659 916 q 284 761 439 916 q 130 387 130 606 q 284 14 130 169 q 659 -141 439 -141 q 1032 14 877 -141 q 1187 387 1187 169 q 1032 761 1187 606 q 659 916 877 916 z "},"Ⓥ":{"ha":1276,"x_min":68,"x_max":1249,"o":"m 659 97 q 854 745 682 165 q 892 770 863 770 l 895 770 q 928 753 917 770 q 932 724 939 739 l 725 45 q 660 0 707 1 l 659 0 q 591 45 609 0 l 384 724 q 387 753 378 740 q 421 770 399 770 l 425 770 q 463 745 454 770 q 659 97 635 161 m 659 978 q 1076 805 903 978 q 1249 387 1249 633 q 1076 -30 1249 142 q 659 -203 903 -203 q 240 -30 413 -203 q 68 387 68 142 q 240 805 68 633 q 659 978 413 978 m 659 916 q 284 761 439 916 q 130 387 130 606 q 284 14 130 169 q 659 -141 439 -141 q 1032 14 877 -141 q 1187 387 1187 169 q 1032 761 1187 606 q 659 916 877 916 z "},"Ⓦ":{"ha":1276,"x_min":68,"x_max":1249,"o":"m 328 179 q 369 71 328 114 q 469 26 412 26 q 570 71 527 26 q 612 179 612 114 l 612 687 q 621 711 612 701 q 652 723 633 723 l 652 723 q 680 713 671 723 q 692 687 692 701 l 692 179 q 733 71 692 114 q 834 26 777 26 q 935 71 892 26 q 977 179 977 114 l 977 687 q 989 713 977 701 q 1017 723 998 723 l 1017 723 q 1047 711 1036 723 q 1057 687 1057 701 l 1057 179 q 991 19 1057 86 q 834 -47 928 -47 q 652 49 722 -47 q 469 -47 581 -47 q 313 19 376 -47 q 247 179 247 86 l 247 687 q 256 711 247 701 q 286 723 269 723 l 288 723 q 318 711 306 723 q 328 687 328 701 l 328 179 m 659 978 q 1076 805 903 978 q 1249 387 1249 633 q 1076 -30 1249 142 q 659 -203 903 -203 q 240 -30 413 -203 q 68 387 68 142 q 240 805 68 633 q 659 978 413 978 m 659 916 q 284 761 439 916 q 130 387 130 606 q 284 14 130 169 q 659 -141 439 -141 q 1032 14 877 -141 q 1187 387 1187 169 q 1032 761 1187 606 q 659 916 877 916 z "},"Ⓧ":{"ha":1276,"x_min":68,"x_max":1249,"o":"m 885 36 q 875 13 885 22 q 846 0 863 0 l 844 0 q 815 13 827 0 q 805 36 805 22 l 805 196 q 756 320 805 269 q 644 369 709 369 q 532 320 578 369 q 484 196 484 269 l 484 36 q 474 13 484 22 q 444 0 461 0 l 442 0 q 412 13 425 0 q 403 36 403 22 l 403 196 q 516 405 403 320 q 403 614 403 490 l 403 734 q 412 758 403 748 q 442 770 425 770 l 444 770 q 474 758 462 770 q 484 734 484 748 l 484 614 q 532 490 484 541 q 644 441 578 441 q 756 490 709 441 q 805 614 805 541 l 805 734 q 815 758 805 748 q 844 770 827 770 l 846 770 q 876 758 863 770 q 885 734 885 748 l 885 614 q 772 405 885 490 q 885 196 885 320 l 885 36 m 659 978 q 1076 805 903 978 q 1249 387 1249 633 q 1076 -30 1249 142 q 659 -203 903 -203 q 240 -30 413 -203 q 68 387 68 142 q 240 805 68 633 q 659 978 413 978 m 659 916 q 284 761 439 916 q 130 387 130 606 q 284 14 130 169 q 659 -141 439 -141 q 1032 14 877 -141 q 1187 387 1187 169 q 1032 761 1187 606 q 659 916 877 916 z "},"Ⓨ":{"ha":1276,"x_min":68,"x_max":1249,"o":"m 885 499 q 831 344 885 411 q 684 256 775 275 l 684 36 q 675 13 684 22 q 645 0 662 0 l 644 0 q 613 13 626 0 q 604 36 604 22 l 604 256 q 457 344 513 275 q 403 499 403 412 l 403 734 q 412 758 403 748 q 442 770 425 770 l 444 770 q 474 758 462 770 q 484 734 484 748 l 484 499 q 532 375 484 426 q 644 327 578 327 q 756 375 709 327 q 805 499 805 426 l 805 734 q 815 758 805 748 q 844 770 827 770 l 846 770 q 876 758 863 770 q 885 734 885 748 l 885 499 m 659 978 q 1076 805 903 978 q 1249 387 1249 633 q 1076 -30 1249 142 q 659 -203 903 -203 q 240 -30 413 -203 q 68 387 68 142 q 240 805 68 633 q 659 978 413 978 m 659 916 q 284 761 439 916 q 130 387 130 606 q 284 14 130 169 q 659 -141 439 -141 q 1032 14 877 -141 q 1187 387 1187 169 q 1032 761 1187 606 q 659 916 877 916 z "},"Ⓩ":{"ha":1276,"x_min":68,"x_max":1249,"o":"m 425 734 q 435 758 425 748 q 465 770 446 770 l 780 770 q 840 745 817 770 q 865 685 865 718 q 852 640 865 660 l 473 73 l 835 73 q 864 61 852 73 q 874 37 874 51 l 874 36 q 864 13 874 22 q 835 0 852 0 l 481 0 q 426 28 447 4 q 403 85 403 54 q 412 125 403 106 l 796 697 l 465 697 q 435 709 446 697 q 425 733 425 720 l 425 734 m 659 978 q 1076 805 903 978 q 1249 387 1249 633 q 1076 -30 1249 142 q 659 -203 903 -203 q 240 -30 413 -203 q 68 387 68 142 q 240 805 68 633 q 659 978 413 978 m 659 916 q 284 761 439 916 q 130 387 130 606 q 284 14 130 169 q 659 -141 439 -141 q 1032 14 877 -141 q 1187 387 1187 169 q 1032 761 1187 606 q 659 916 877 916 z "},"ⓐ":{"ha":1316,"x_min":68,"x_max":1249,"o":"m 659 978 q 1076 805 903 978 q 1249 387 1249 633 q 1076 -30 1249 142 q 659 -203 903 -203 q 240 -30 413 -203 q 68 387 68 142 q 240 805 68 633 q 659 978 413 978 m 659 916 q 284 761 439 916 q 130 387 130 606 q 284 14 130 169 q 659 -141 439 -141 q 1032 14 877 -141 q 1187 387 1187 169 q 1032 761 1187 606 q 659 916 877 916 m 664 638 q 837 567 766 638 q 909 393 909 495 l 909 177 q 900 157 909 166 q 880 149 892 149 l 879 149 q 858 157 867 149 q 850 177 850 166 l 850 231 q 664 149 757 149 q 491 220 562 149 q 419 393 419 292 q 491 567 419 495 q 664 638 562 638 m 664 579 q 533 525 587 579 q 478 393 478 470 q 533 262 478 317 q 664 208 587 208 q 795 262 741 208 q 850 393 850 317 q 795 525 850 470 q 664 579 741 579 z "},"ⓑ":{"ha":1316,"x_min":68,"x_max":1249,"o":"m 659 978 q 1076 805 903 978 q 1249 387 1249 633 q 1076 -30 1249 142 q 659 -203 903 -203 q 240 -30 413 -203 q 68 387 68 142 q 240 805 68 633 q 659 978 413 978 m 659 916 q 284 761 439 916 q 130 387 130 606 q 284 14 130 169 q 659 -141 439 -141 q 1032 14 877 -141 q 1187 387 1187 169 q 1032 761 1187 606 q 659 916 877 916 m 684 481 q 553 427 608 481 q 499 295 499 372 q 553 164 499 219 q 684 109 608 109 q 815 164 762 109 q 870 295 870 219 q 815 427 870 372 q 684 481 762 481 m 470 736 q 490 728 482 736 q 499 707 499 719 l 499 459 q 684 541 591 541 q 858 470 786 541 q 929 296 929 398 q 858 123 929 195 q 684 52 786 52 q 512 123 583 52 q 439 295 440 194 l 439 707 q 448 728 439 719 q 468 736 457 736 l 470 736 z "},"ⓒ":{"ha":1316,"x_min":68,"x_max":1249,"o":"m 659 978 q 1076 805 903 978 q 1249 387 1249 633 q 1076 -30 1249 142 q 659 -203 903 -203 q 240 -30 413 -203 q 68 387 68 142 q 240 805 68 633 q 659 978 413 978 m 659 916 q 284 761 439 916 q 130 387 130 606 q 284 14 130 169 q 659 -141 439 -141 q 1032 14 877 -141 q 1187 387 1187 169 q 1032 761 1187 606 q 659 916 877 916 m 712 638 q 786 627 750 638 q 807 599 807 620 l 807 597 q 795 573 807 582 q 769 569 783 564 q 712 578 742 578 q 581 524 635 578 q 527 392 527 469 q 581 261 527 316 q 712 206 635 206 q 769 215 742 206 q 795 211 783 220 q 807 187 807 203 q 786 160 807 167 q 712 149 750 149 q 539 220 611 149 q 467 393 467 292 q 539 567 467 495 q 712 638 611 638 z "},"ⓓ":{"ha":1316,"x_min":68,"x_max":1249,"o":"m 659 978 q 1076 805 903 978 q 1249 387 1249 633 q 1076 -30 1249 142 q 659 -203 903 -203 q 240 -30 413 -203 q 68 387 68 142 q 240 805 68 633 q 659 978 413 978 m 659 916 q 284 761 439 916 q 130 387 130 606 q 284 14 130 169 q 659 -141 439 -141 q 1032 14 877 -141 q 1187 387 1187 169 q 1032 761 1187 606 q 659 916 877 916 m 630 481 q 499 427 553 481 q 445 295 445 372 q 499 164 445 219 q 630 109 553 109 q 761 164 708 109 q 816 295 816 219 q 761 427 816 372 q 630 481 708 481 m 846 736 q 867 728 858 736 q 875 707 875 719 l 875 295 q 803 123 875 194 q 630 52 731 52 q 457 123 529 52 q 385 296 385 195 q 457 470 385 398 q 630 541 529 541 q 816 459 723 541 l 816 707 q 824 728 816 719 q 845 736 833 736 l 846 736 z "},"ⓔ":{"ha":1316,"x_min":68,"x_max":1249,"o":"m 659 978 q 1076 805 903 978 q 1249 387 1249 633 q 1076 -30 1249 142 q 659 -203 903 -203 q 240 -30 413 -203 q 68 387 68 142 q 240 805 68 633 q 659 978 413 978 m 659 916 q 284 761 439 916 q 130 387 130 606 q 284 14 130 169 q 659 -141 439 -141 q 1032 14 877 -141 q 1187 387 1187 169 q 1032 761 1187 606 q 659 916 877 916 m 670 578 q 539 524 593 578 q 485 392 485 469 q 489 346 485 378 l 824 497 q 670 578 757 578 m 893 495 q 894 473 898 484 q 879 457 889 462 q 704 378 812 427 q 513 292 570 317 q 670 206 579 206 q 779 242 730 206 q 845 331 826 276 q 874 351 852 351 q 898 339 889 351 q 901 312 907 327 q 814 195 876 240 q 670 149 749 149 q 497 220 569 149 q 425 393 425 292 q 497 567 425 495 q 670 638 569 638 q 804 599 743 638 q 893 495 863 560 z "},"ⓕ":{"ha":1316,"x_min":68,"x_max":1249,"o":"m 659 978 q 1076 805 903 978 q 1249 387 1249 633 q 1076 -30 1249 142 q 659 -203 903 -203 q 240 -30 413 -203 q 68 387 68 142 q 240 805 68 633 q 659 978 413 978 m 659 916 q 284 761 439 916 q 130 387 130 606 q 284 14 130 169 q 659 -141 439 -141 q 1032 14 877 -141 q 1187 387 1187 169 q 1032 761 1187 606 q 659 916 877 916 m 754 736 q 775 728 766 736 q 783 707 783 719 l 783 706 q 775 685 783 694 q 754 677 766 677 l 727 677 q 641 642 676 677 q 605 556 606 606 l 605 541 l 754 541 q 775 532 766 541 q 783 512 783 524 l 783 511 q 775 490 783 499 q 754 482 766 482 l 605 482 l 605 80 q 597 60 605 69 q 576 52 588 52 l 575 52 q 554 60 563 52 q 546 80 546 69 l 546 556 q 599 683 547 631 q 727 736 651 736 l 754 736 z "},"ⓖ":{"ha":1316,"x_min":68,"x_max":1249,"o":"m 659 978 q 1076 805 903 978 q 1249 387 1249 633 q 1076 -30 1249 142 q 659 -203 903 -203 q 240 -30 413 -203 q 68 387 68 142 q 240 805 68 633 q 659 978 413 978 m 659 916 q 284 761 439 916 q 130 387 130 606 q 284 14 130 169 q 659 -141 439 -141 q 1032 14 877 -141 q 1187 387 1187 169 q 1032 761 1187 606 q 659 916 877 916 m 498 194 q 664 110 554 110 q 791 165 735 110 q 850 296 850 221 l 850 329 q 664 246 757 246 q 491 318 562 246 q 419 491 419 390 q 491 664 419 593 q 664 736 562 736 q 837 665 765 736 q 909 492 909 593 l 909 296 q 832 123 909 197 q 664 51 757 51 q 448 162 519 51 q 445 188 440 174 q 463 206 449 201 l 464 206 q 498 194 486 213 m 850 494 q 794 623 849 570 q 664 677 740 677 q 533 622 587 677 q 478 491 478 568 q 533 360 478 414 q 664 306 587 306 q 795 360 741 306 q 850 491 850 414 l 850 494 z "},"ⓗ":{"ha":1316,"x_min":68,"x_max":1249,"o":"m 659 978 q 1076 805 903 978 q 1249 387 1249 633 q 1076 -30 1249 142 q 659 -203 903 -203 q 240 -30 413 -203 q 68 387 68 142 q 240 805 68 633 q 659 978 413 978 m 659 916 q 284 761 439 916 q 130 387 130 606 q 284 14 130 169 q 659 -141 439 -141 q 1032 14 877 -141 q 1187 387 1187 169 q 1032 761 1187 606 q 659 916 877 916 m 494 736 q 514 728 505 736 q 523 707 523 719 l 523 485 q 664 541 598 541 q 806 483 748 541 q 865 340 865 424 l 865 80 q 857 60 865 69 q 836 52 848 52 l 835 52 q 814 60 823 52 q 806 80 806 69 l 806 340 q 765 440 806 399 q 664 482 723 482 q 564 440 606 482 q 523 340 523 399 l 523 80 q 514 60 523 69 q 494 52 505 52 l 492 52 q 472 60 480 52 q 463 80 463 69 l 463 707 q 472 728 463 719 q 492 736 480 736 l 494 736 z "},"ⓘ":{"ha":1316,"x_min":68,"x_max":1249,"o":"m 659 978 q 1076 805 903 978 q 1249 387 1249 633 q 1076 -30 1249 142 q 659 -203 903 -203 q 240 -30 413 -203 q 68 387 68 142 q 240 805 68 633 q 659 978 413 978 m 659 916 q 284 761 439 916 q 130 387 130 606 q 284 14 130 169 q 659 -141 439 -141 q 1032 14 877 -141 q 1187 387 1187 169 q 1032 761 1187 606 q 659 916 877 916 m 665 541 q 685 533 677 541 q 694 512 694 524 l 694 80 q 685 60 694 69 q 665 52 677 52 l 664 52 q 643 60 652 52 q 635 80 635 69 l 635 512 q 643 533 635 524 q 664 541 652 541 l 665 541 m 665 660 q 638 671 648 660 q 627 698 627 682 q 638 725 627 714 q 665 736 648 736 q 691 725 680 736 q 703 698 703 713 q 691 671 703 682 q 665 660 680 660 z "},"ⓙ":{"ha":1316,"x_min":68,"x_max":1249,"o":"m 659 978 q 1076 805 903 978 q 1249 387 1249 633 q 1076 -30 1249 142 q 659 -203 903 -203 q 240 -30 413 -203 q 68 387 68 142 q 240 805 68 633 q 659 978 413 978 m 659 916 q 284 761 439 916 q 130 387 130 606 q 284 14 130 169 q 659 -141 439 -141 q 1032 14 877 -141 q 1187 387 1187 169 q 1032 761 1187 606 q 659 916 877 916 m 544 -47 q 523 -38 532 -47 q 515 -18 515 -30 l 515 -16 q 523 4 515 -4 q 544 13 532 13 l 571 13 q 657 48 622 13 q 693 134 692 83 l 693 609 q 701 630 693 621 q 722 638 709 638 l 723 638 q 744 630 735 638 q 752 609 752 621 l 752 134 q 699 6 751 58 q 571 -47 647 -47 l 544 -47 m 722 758 q 695 769 706 758 q 684 796 684 780 q 695 823 684 812 q 722 834 706 834 q 748 823 737 834 q 760 796 760 811 q 748 769 760 780 q 722 758 737 758 z "},"ⓚ":{"ha":1316,"x_min":68,"x_max":1249,"o":"m 659 978 q 1076 805 903 978 q 1249 387 1249 633 q 1076 -30 1249 142 q 659 -203 903 -203 q 240 -30 413 -203 q 68 387 68 142 q 240 805 68 633 q 659 978 413 978 m 659 916 q 284 761 439 916 q 130 387 130 606 q 284 14 130 169 q 659 -141 439 -141 q 1032 14 877 -141 q 1187 387 1187 169 q 1032 761 1187 606 q 659 916 877 916 m 536 736 q 557 728 548 736 q 565 707 565 719 l 565 350 l 612 350 q 737 398 683 350 q 796 515 789 446 q 806 534 797 526 q 825 541 814 541 l 827 541 q 848 532 840 541 q 855 509 857 522 q 741 325 845 402 q 845 227 814 281 q 878 105 878 170 l 878 80 q 869 60 878 69 q 849 52 861 52 l 847 52 q 827 60 835 52 q 818 80 818 69 l 818 105 q 764 235 818 182 q 633 289 709 289 l 565 289 l 565 80 q 557 60 565 69 q 536 52 548 52 l 535 52 q 514 60 523 52 q 506 80 506 69 l 506 707 q 514 728 506 719 q 535 736 523 736 l 536 736 z "},"ⓛ":{"ha":1316,"x_min":68,"x_max":1249,"o":"m 659 978 q 1076 805 903 978 q 1249 387 1249 633 q 1076 -30 1249 142 q 659 -203 903 -203 q 240 -30 413 -203 q 68 387 68 142 q 240 805 68 633 q 659 978 413 978 m 659 916 q 284 761 439 916 q 130 387 130 606 q 284 14 130 169 q 659 -141 439 -141 q 1032 14 877 -141 q 1187 387 1187 169 q 1032 761 1187 606 q 659 916 877 916 m 645 736 q 665 728 657 736 q 674 707 674 719 l 674 80 q 665 60 674 69 q 645 52 657 52 l 643 52 q 623 60 632 52 q 614 80 614 69 l 614 707 q 623 728 614 719 q 643 736 632 736 l 645 736 z "},"ⓜ":{"ha":1316,"x_min":68,"x_max":1249,"o":"m 659 978 q 1076 805 903 978 q 1249 387 1249 633 q 1076 -30 1249 142 q 659 -203 903 -203 q 240 -30 413 -203 q 68 387 68 142 q 240 805 68 633 q 659 978 413 978 m 659 916 q 284 761 439 916 q 130 387 130 606 q 284 14 130 169 q 659 -141 439 -141 q 1032 14 877 -141 q 1187 387 1187 169 q 1032 761 1187 606 q 659 916 877 916 m 354 177 q 345 157 354 166 q 325 149 337 149 l 323 149 q 303 157 311 149 q 294 177 294 166 l 294 439 q 353 580 294 521 q 494 638 411 638 q 665 544 593 638 q 835 638 736 638 q 976 580 918 638 q 1034 439 1034 521 l 1034 177 q 1026 157 1034 165 q 1005 149 1018 149 l 1005 149 q 984 157 993 149 q 976 177 976 166 l 976 439 q 934 538 976 496 q 835 579 893 579 q 735 538 777 579 q 694 439 694 496 l 694 177 q 686 157 694 166 q 665 149 677 149 l 664 149 q 643 157 652 149 q 635 177 635 166 l 635 439 q 593 538 635 496 q 494 579 552 579 q 395 538 436 579 q 354 439 354 496 l 354 177 z "},"ⓝ":{"ha":1316,"x_min":68,"x_max":1249,"o":"m 659 978 q 1076 805 903 978 q 1249 387 1249 633 q 1076 -30 1249 142 q 659 -203 903 -203 q 240 -30 413 -203 q 68 387 68 142 q 240 805 68 633 q 659 978 413 978 m 659 916 q 284 761 439 916 q 130 387 130 606 q 284 14 130 169 q 659 -141 439 -141 q 1032 14 877 -141 q 1187 387 1187 169 q 1032 761 1187 606 q 659 916 877 916 m 523 177 q 514 157 523 166 q 494 149 505 149 l 492 149 q 472 157 480 149 q 463 177 463 166 l 463 437 q 522 580 463 521 q 664 638 581 638 q 806 580 748 638 q 865 437 865 521 l 865 177 q 857 157 865 166 q 836 149 848 149 l 835 149 q 814 157 823 149 q 806 177 806 166 l 806 437 q 765 537 806 496 q 664 579 723 579 q 564 537 606 579 q 523 437 523 496 l 523 177 z "},"ⓞ":{"ha":1316,"x_min":68,"x_max":1249,"o":"m 659 978 q 1076 805 903 978 q 1249 387 1249 633 q 1076 -30 1249 142 q 659 -203 903 -203 q 240 -30 413 -203 q 68 387 68 142 q 240 805 68 633 q 659 978 413 978 m 659 916 q 284 761 439 916 q 130 387 130 606 q 284 14 130 169 q 659 -141 439 -141 q 1032 14 877 -141 q 1187 387 1187 169 q 1032 761 1187 606 q 659 916 877 916 m 664 578 q 533 524 587 578 q 478 392 478 469 q 533 261 478 316 q 664 206 587 206 q 795 261 741 206 q 850 392 850 316 q 795 524 850 469 q 664 578 741 578 m 664 638 q 837 567 766 638 q 909 393 909 495 q 837 220 909 292 q 664 149 766 149 q 491 220 562 149 q 419 393 419 292 q 491 567 419 495 q 664 638 562 638 z "},"ⓟ":{"ha":1316,"x_min":68,"x_max":1249,"o":"m 659 978 q 1076 805 903 978 q 1249 387 1249 633 q 1076 -30 1249 142 q 659 -203 903 -203 q 240 -30 413 -203 q 68 387 68 142 q 240 805 68 633 q 659 978 413 978 m 659 916 q 284 761 439 916 q 130 387 130 606 q 284 14 130 169 q 659 -141 439 -141 q 1032 14 877 -141 q 1187 387 1187 169 q 1032 761 1187 606 q 659 916 877 916 m 691 266 q 822 320 769 266 q 877 451 877 375 q 822 583 877 528 q 691 637 768 637 q 560 583 614 637 q 506 451 506 528 q 560 320 506 375 q 691 266 614 266 m 475 10 q 455 19 463 10 q 446 39 446 27 l 446 451 q 518 624 447 553 q 691 695 590 695 q 864 624 793 695 q 936 450 936 552 q 864 277 936 349 q 691 205 793 205 q 506 288 598 205 l 506 39 q 497 19 506 27 q 477 10 488 10 l 475 10 z "},"ⓠ":{"ha":1316,"x_min":68,"x_max":1249,"o":"m 659 978 q 1076 805 903 978 q 1249 387 1249 633 q 1076 -30 1249 142 q 659 -203 903 -203 q 240 -30 413 -203 q 68 387 68 142 q 240 805 68 633 q 659 978 413 978 m 659 916 q 284 761 439 916 q 130 387 130 606 q 284 14 130 169 q 659 -141 439 -141 q 1032 14 877 -141 q 1187 387 1187 169 q 1032 761 1187 606 q 659 916 877 916 m 651 279 q 782 334 728 279 q 836 465 836 389 q 782 596 836 542 q 651 651 727 651 q 519 596 574 651 q 465 465 465 542 q 519 334 465 389 q 651 279 574 279 m 865 24 q 845 32 853 24 q 836 53 836 41 l 836 302 q 651 219 743 219 q 477 291 549 219 q 406 464 406 362 q 477 637 406 566 q 651 709 549 709 q 823 638 752 709 q 895 465 895 566 l 895 53 q 887 32 895 41 q 867 24 878 24 l 865 24 z "},"ⓡ":{"ha":1316,"x_min":68,"x_max":1249,"o":"m 659 978 q 1076 805 903 978 q 1249 387 1249 633 q 1076 -30 1249 142 q 659 -203 903 -203 q 240 -30 413 -203 q 68 387 68 142 q 240 805 68 633 q 659 978 413 978 m 659 916 q 284 761 439 916 q 130 387 130 606 q 284 14 130 169 q 659 -141 439 -141 q 1032 14 877 -141 q 1187 387 1187 169 q 1032 761 1187 606 q 659 916 877 916 m 761 638 q 782 630 773 638 q 790 609 790 621 l 790 608 q 782 588 790 596 q 761 579 773 579 l 734 579 q 648 543 683 579 q 612 458 613 508 l 612 177 q 604 157 612 166 q 583 149 595 149 l 582 149 q 561 157 570 149 q 553 177 553 166 l 553 458 q 605 586 554 533 q 734 638 658 638 l 761 638 z "},"ⓢ":{"ha":1316,"x_min":68,"x_max":1249,"o":"m 659 978 q 1076 805 903 978 q 1249 387 1249 633 q 1076 -30 1249 142 q 659 -203 903 -203 q 240 -30 413 -203 q 68 387 68 142 q 240 805 68 633 q 659 978 413 978 m 659 916 q 284 761 439 916 q 130 387 130 606 q 284 14 130 169 q 659 -141 439 -141 q 1032 14 877 -141 q 1187 387 1187 169 q 1032 761 1187 606 q 659 916 877 916 m 657 579 q 602 556 625 579 q 579 501 579 533 q 622 433 579 456 q 707 407 634 427 q 779 372 757 393 q 810 286 810 343 q 770 188 810 229 q 672 149 729 149 l 548 149 q 528 157 537 149 q 519 177 519 166 l 519 178 q 528 199 519 191 q 548 208 537 208 l 677 208 q 732 231 709 208 q 755 286 755 253 q 712 351 755 330 q 627 376 703 355 q 556 412 578 391 q 525 501 525 443 q 565 598 525 558 q 662 638 605 638 l 749 638 q 770 630 762 638 q 779 609 779 621 l 779 608 q 770 588 779 596 q 749 579 762 579 l 657 579 z "},"ⓣ":{"ha":1316,"x_min":68,"x_max":1249,"o":"m 659 978 q 1076 805 903 978 q 1249 387 1249 633 q 1076 -30 1249 142 q 659 -203 903 -203 q 240 -30 413 -203 q 68 387 68 142 q 240 805 68 633 q 659 978 413 978 m 659 916 q 284 761 439 916 q 130 387 130 606 q 284 14 130 169 q 659 -141 439 -141 q 1032 14 877 -141 q 1187 387 1187 169 q 1032 761 1187 606 q 659 916 877 916 m 635 736 q 655 728 646 736 q 664 707 664 719 l 664 541 l 763 541 q 784 533 775 541 q 792 512 792 524 l 792 511 q 784 491 792 499 q 763 482 775 482 l 664 482 l 664 172 q 682 129 664 147 q 725 111 700 111 l 763 111 q 784 102 775 111 q 792 81 792 94 l 792 80 q 784 60 792 69 q 763 52 775 52 l 725 52 q 639 87 675 52 q 604 172 604 122 l 604 707 q 613 728 604 719 q 633 736 621 736 l 635 736 z "},"ⓤ":{"ha":1316,"x_min":68,"x_max":1249,"o":"m 659 978 q 1076 805 903 978 q 1249 387 1249 633 q 1076 -30 1249 142 q 659 -203 903 -203 q 240 -30 413 -203 q 68 387 68 142 q 240 805 68 633 q 659 978 413 978 m 659 916 q 284 761 439 916 q 130 387 130 606 q 284 14 130 169 q 659 -141 439 -141 q 1032 14 877 -141 q 1187 387 1187 169 q 1032 761 1187 606 q 659 916 877 916 m 523 349 q 564 249 523 291 q 664 208 606 208 q 765 249 723 208 q 806 349 806 291 l 806 609 q 814 630 806 621 q 835 638 823 638 l 836 638 q 857 630 848 638 q 865 609 865 621 l 865 349 q 806 207 865 266 q 664 149 748 149 q 522 207 581 149 q 463 349 463 266 l 463 609 q 472 630 463 621 q 492 638 480 638 l 494 638 q 514 630 505 638 q 523 609 523 621 l 523 349 z "},"ⓥ":{"ha":1316,"x_min":68,"x_max":1249,"o":"m 659 978 q 1076 805 903 978 q 1249 387 1249 633 q 1076 -30 1249 142 q 659 -203 903 -203 q 240 -30 413 -203 q 68 387 68 142 q 240 805 68 633 q 659 978 413 978 m 659 916 q 284 761 439 916 q 130 387 130 606 q 284 14 130 169 q 659 -141 439 -141 q 1032 14 877 -141 q 1187 387 1187 169 q 1032 761 1187 606 q 659 916 877 916 m 665 225 q 669 225 665 225 q 681 244 673 225 l 683 250 l 842 620 q 869 638 850 638 l 870 638 q 894 626 885 638 q 896 598 902 612 l 720 186 q 665 149 703 149 q 611 186 628 149 l 435 598 q 437 626 429 612 q 461 638 446 638 l 462 638 q 489 620 481 638 l 648 250 l 650 244 q 665 225 658 225 z "},"ⓦ":{"ha":1316,"x_min":68,"x_max":1249,"o":"m 659 978 q 1076 805 903 978 q 1249 387 1249 633 q 1076 -30 1249 142 q 659 -203 903 -203 q 240 -30 413 -203 q 68 387 68 142 q 240 805 68 633 q 659 978 413 978 m 659 916 q 284 761 439 916 q 130 387 130 606 q 284 14 130 169 q 659 -141 439 -141 q 1032 14 877 -141 q 1187 387 1187 169 q 1032 761 1187 606 q 659 916 877 916 m 354 348 q 395 249 354 290 q 494 208 436 208 q 593 249 552 208 q 635 348 635 290 l 635 609 q 643 630 635 621 q 664 638 652 638 l 665 638 q 686 630 677 638 q 694 609 694 621 l 694 348 q 735 249 694 290 q 835 208 777 208 q 934 249 893 208 q 976 348 976 290 l 976 609 q 984 630 976 621 q 1005 638 993 638 l 1005 638 q 1026 630 1018 638 q 1034 609 1034 621 l 1034 348 q 976 207 1034 265 q 835 149 918 149 q 665 242 736 149 q 494 149 593 149 q 353 207 411 149 q 294 348 294 265 l 294 609 q 303 630 294 621 q 323 638 311 638 l 325 638 q 345 630 337 638 q 354 609 354 621 l 354 348 z "},"ⓧ":{"ha":1316,"x_min":68,"x_max":1249,"o":"m 659 978 q 1076 805 903 978 q 1249 387 1249 633 q 1076 -30 1249 142 q 659 -203 903 -203 q 240 -30 413 -203 q 68 387 68 142 q 240 805 68 633 q 659 978 413 978 m 659 916 q 284 761 439 916 q 130 387 130 606 q 284 14 130 169 q 659 -141 439 -141 q 1032 14 877 -141 q 1187 387 1187 169 q 1032 761 1187 606 q 659 916 877 916 m 523 567 q 564 467 523 509 q 665 425 606 425 q 765 467 723 425 q 806 567 806 509 l 806 609 q 815 630 806 621 q 836 638 823 638 l 837 638 q 857 630 849 638 q 866 609 866 621 l 866 567 q 772 396 866 468 q 866 224 866 324 l 866 177 q 857 157 866 166 q 837 149 849 149 l 836 149 q 815 157 823 149 q 806 177 806 166 l 806 224 q 765 325 806 283 q 665 366 723 366 q 564 325 606 366 q 523 224 523 283 l 523 177 q 514 157 523 166 q 494 149 506 149 l 492 149 q 472 157 481 149 q 464 177 464 166 l 464 224 q 558 396 464 324 q 464 567 464 468 l 464 609 q 472 630 464 621 q 492 638 481 638 l 494 638 q 514 630 506 638 q 523 609 523 621 l 523 567 z "},"ⓨ":{"ha":1316,"x_min":68,"x_max":1249,"o":"m 659 978 q 1076 805 903 978 q 1249 387 1249 633 q 1076 -30 1249 142 q 659 -203 903 -203 q 240 -30 413 -203 q 68 387 68 142 q 240 805 68 633 q 659 978 413 978 m 659 916 q 284 761 439 916 q 130 387 130 606 q 284 14 130 169 q 659 -141 439 -141 q 1032 14 877 -141 q 1187 387 1187 169 q 1032 761 1187 606 q 659 916 877 916 m 523 434 q 564 334 523 376 q 664 292 606 292 q 764 334 723 292 q 806 434 806 375 l 806 684 q 814 704 806 696 q 835 713 823 713 l 836 713 q 857 704 848 713 q 865 684 865 696 l 865 229 q 803 87 865 148 q 664 28 743 28 q 549 59 601 28 q 474 140 500 89 q 473 163 468 151 q 491 180 478 176 l 493 181 q 512 180 502 184 q 527 167 522 176 q 583 109 546 131 q 664 87 621 87 q 763 129 721 87 q 806 229 806 171 l 806 289 q 664 234 730 234 q 522 292 581 234 q 463 434 463 351 l 463 684 q 472 704 463 696 q 492 713 480 713 l 494 713 q 514 704 505 713 q 523 684 523 696 l 523 434 z "},"ⓩ":{"ha":1316,"x_min":68,"x_max":1249,"o":"m 659 978 q 1076 805 903 978 q 1249 387 1249 633 q 1076 -30 1249 142 q 659 -203 903 -203 q 240 -30 413 -203 q 68 387 68 142 q 240 805 68 633 q 659 978 413 978 m 659 916 q 284 761 439 916 q 130 387 130 606 q 284 14 130 169 q 659 -141 439 -141 q 1032 14 877 -141 q 1187 387 1187 169 q 1032 761 1187 606 q 659 916 877 916 m 854 601 q 799 637 839 638 l 514 637 q 493 629 502 637 q 485 608 485 620 l 485 607 q 493 586 485 595 q 514 578 502 578 l 805 578 l 485 248 q 472 183 457 219 q 528 147 488 146 l 834 147 q 854 155 846 147 q 863 176 863 164 l 863 177 q 854 198 863 189 q 834 206 846 206 l 523 206 l 842 536 q 860 578 861 555 q 854 601 860 589 z "},"⓪":{"ha":1316,"x_min":68,"x_max":1249,"o":"m 659 978 q 1076 805 903 978 q 1249 387 1249 633 q 1076 -30 1249 142 q 659 -203 903 -203 q 240 -30 413 -203 q 68 387 68 142 q 240 805 68 633 q 659 978 413 978 m 659 916 q 284 761 439 916 q 130 387 130 606 q 284 14 130 169 q 659 -141 439 -141 q 1032 14 877 -141 q 1187 387 1187 169 q 1032 761 1187 606 q 659 916 877 916 m 659 686 q 815 627 751 686 q 880 487 880 568 l 880 288 q 815 147 880 207 q 659 88 751 88 q 502 147 566 88 q 437 288 437 207 l 437 487 q 502 627 437 568 q 659 686 566 686 m 659 623 q 557 583 600 623 q 513 484 513 543 l 513 291 q 557 191 513 233 q 659 153 600 153 q 760 193 717 153 q 804 291 804 233 l 804 484 q 760 582 804 543 q 659 623 717 623 z "},"⓫":{"ha":1316,"x_min":68,"x_max":1249,"o":"m 659 978 q 1076 805 903 978 q 1249 387 1249 633 q 1076 -30 1249 142 q 659 -203 903 -203 q 240 -30 413 -203 q 68 387 68 142 q 240 805 68 633 q 659 978 413 978 m 611 656 q 589 706 611 685 q 533 727 565 727 l 406 727 q 351 706 375 727 q 328 656 328 685 l 328 655 q 351 604 328 626 q 406 585 375 585 l 454 585 l 454 119 q 478 68 454 90 q 532 48 499 48 l 533 48 q 587 68 565 48 q 611 119 611 90 l 611 656 m 955 656 q 932 706 955 685 q 877 727 909 727 l 750 727 q 695 706 719 727 q 672 656 672 685 l 672 655 q 695 604 672 626 q 750 585 719 585 l 798 585 l 798 119 q 822 68 798 90 q 876 48 843 48 l 877 48 q 931 68 909 48 q 955 119 955 90 l 955 656 z "},"⓬":{"ha":1316,"x_min":68,"x_max":1249,"o":"m 659 978 q 1076 805 903 978 q 1249 387 1249 633 q 1076 -30 1249 142 q 659 -203 903 -203 q 240 -30 413 -203 q 68 387 68 142 q 240 805 68 633 q 659 978 413 978 m 530 656 q 507 706 530 685 q 452 727 484 727 l 325 727 q 270 706 294 727 q 247 656 247 685 l 247 655 q 270 604 247 626 q 325 585 294 585 l 372 585 l 372 119 q 397 68 372 90 q 450 48 418 48 l 452 48 q 506 68 484 48 q 530 119 530 90 l 530 656 m 677 727 q 622 706 644 727 q 599 656 599 685 l 599 655 q 622 605 599 626 q 677 585 645 585 l 854 585 q 898 568 880 585 q 916 526 916 551 q 877 469 916 500 q 764 400 861 458 q 639 307 680 351 q 577 157 577 240 l 577 119 q 600 69 577 89 q 655 48 623 48 l 1000 48 q 1055 69 1033 48 q 1078 119 1078 89 l 1078 120 q 1056 170 1078 149 q 1000 191 1033 191 l 738 191 q 779 239 738 201 q 888 310 807 264 q 1011 393 975 360 q 1074 526 1074 452 q 1008 669 1074 609 q 854 727 946 727 l 677 727 z "},"⓭":{"ha":1316,"x_min":68,"x_max":1249,"o":"m 659 978 q 1076 805 903 978 q 1249 387 1249 633 q 1076 -30 1249 142 q 659 -203 903 -203 q 240 -30 413 -203 q 68 387 68 142 q 240 805 68 633 q 659 978 413 978 m 577 656 q 555 706 577 685 q 499 727 531 727 l 372 727 q 317 706 341 727 q 294 656 294 685 l 294 655 q 317 604 294 626 q 372 585 341 585 l 420 585 l 420 119 q 444 68 420 90 q 498 48 465 48 l 499 48 q 553 68 531 48 q 577 119 577 90 l 577 656 m 682 727 q 627 706 651 727 q 604 656 604 685 l 604 655 q 627 604 604 626 q 682 585 651 585 l 806 585 q 848 568 831 585 q 867 526 867 551 q 849 485 867 502 q 806 469 831 469 l 702 468 q 646 447 669 468 q 624 397 624 426 l 624 397 q 647 346 624 368 q 702 326 669 326 l 806 326 q 857 307 835 326 q 877 258 877 287 q 857 210 877 230 q 806 191 835 191 l 682 191 q 628 171 650 191 q 604 120 604 149 l 604 119 q 627 69 604 89 q 682 48 650 48 l 806 48 q 966 109 901 48 q 1035 258 1035 172 q 981 399 1035 362 q 1025 526 1025 433 q 961 668 1025 609 q 806 727 897 727 l 682 727 z "},"⓮":{"ha":1316,"x_min":68,"x_max":1249,"o":"m 659 978 q 1076 805 903 978 q 1249 387 1249 633 q 1076 -30 1249 142 q 659 -203 903 -203 q 240 -30 413 -203 q 68 387 68 142 q 240 805 68 633 q 659 978 413 978 m 523 656 q 500 706 523 685 q 445 727 477 727 l 318 727 q 263 706 287 727 q 240 656 240 685 l 240 655 q 263 604 240 626 q 318 585 287 585 l 366 585 l 366 119 q 390 68 366 90 q 444 48 411 48 l 445 48 q 499 68 477 48 q 523 119 523 90 l 523 656 m 586 299 q 577 265 577 283 l 577 237 q 600 187 577 207 q 655 166 623 166 l 876 166 l 876 119 q 899 68 876 89 q 955 48 923 48 l 956 48 q 1011 68 987 48 q 1034 119 1034 89 l 1034 166 l 1060 166 q 1114 186 1092 166 q 1138 237 1138 208 l 1138 238 q 1116 288 1138 267 q 1060 309 1093 309 l 1034 309 l 1034 656 q 1011 706 1034 685 q 956 727 987 727 l 890 727 q 821 690 843 727 l 586 299 m 772 309 l 876 484 l 876 309 l 772 309 z "},"⓯":{"ha":1316,"x_min":68,"x_max":1249,"o":"m 659 978 q 1076 805 903 978 q 1249 387 1249 633 q 1076 -30 1249 142 q 659 -203 903 -203 q 240 -30 413 -203 q 68 387 68 142 q 240 805 68 633 q 659 978 413 978 m 550 656 q 528 706 550 685 q 472 727 504 727 l 345 727 q 290 706 314 727 q 267 656 267 685 l 267 655 q 290 604 267 626 q 345 585 314 585 l 393 585 l 393 119 q 417 68 393 90 q 471 48 438 48 l 472 48 q 526 68 504 48 q 550 119 550 90 l 550 656 m 831 326 q 882 307 861 326 q 903 258 903 287 q 882 210 903 230 q 831 191 861 191 l 655 191 q 601 171 623 191 q 577 120 577 149 l 577 119 q 600 69 577 89 q 655 48 623 48 l 831 48 q 992 109 926 48 q 1061 258 1061 172 q 994 406 1061 345 q 831 468 926 468 l 734 468 l 734 585 l 924 585 q 979 604 956 585 q 1002 655 1002 626 l 1002 656 q 979 706 1002 685 q 924 727 956 727 l 655 727 q 600 706 624 727 q 577 656 577 685 l 577 397 q 600 347 577 368 q 655 326 623 326 l 831 326 z "},"⓰":{"ha":1316,"x_min":68,"x_max":1249,"o":"m 659 978 q 1076 805 903 978 q 1249 387 1249 633 q 1076 -30 1249 142 q 659 -203 903 -203 q 240 -30 413 -203 q 68 387 68 142 q 240 805 68 633 q 659 978 413 978 m 536 656 q 514 706 536 685 q 458 727 490 727 l 332 727 q 277 706 300 727 q 254 656 254 685 l 254 655 q 277 604 254 626 q 332 585 300 585 l 379 585 l 379 119 q 404 68 379 90 q 457 48 425 48 l 458 48 q 513 68 490 48 q 536 119 536 90 l 536 656 m 850 326 q 901 307 880 326 q 922 258 922 287 q 901 210 922 230 q 850 191 880 191 l 792 191 q 742 210 764 191 q 721 258 721 230 l 721 326 l 850 326 m 850 48 q 1011 109 945 48 q 1080 258 1080 172 q 1013 406 1080 345 q 850 468 945 468 l 721 468 l 721 517 q 741 564 721 545 q 792 585 764 585 l 927 585 q 983 604 959 585 q 1006 655 1006 626 l 1006 656 q 983 706 1006 685 q 927 727 959 727 l 792 727 q 631 665 697 727 q 564 517 564 604 l 564 258 q 632 109 564 172 q 792 48 697 48 l 850 48 z "},"⓱":{"ha":1316,"x_min":68,"x_max":1249,"o":"m 659 978 q 1076 805 903 978 q 1249 387 1249 633 q 1076 -30 1249 142 q 659 -203 903 -203 q 240 -30 413 -203 q 68 387 68 142 q 240 805 68 633 q 659 978 413 978 m 550 656 q 528 706 550 685 q 472 727 504 727 l 345 727 q 290 706 314 727 q 267 656 267 685 l 267 655 q 290 604 267 626 q 345 585 314 585 l 393 585 l 393 119 q 417 68 393 90 q 471 48 438 48 l 472 48 q 526 68 504 48 q 550 119 550 90 l 550 656 m 1012 656 q 989 706 1012 685 q 934 727 966 727 l 635 727 q 580 706 604 727 q 557 656 557 685 l 557 655 q 580 604 557 626 q 635 585 604 585 l 854 585 l 854 119 q 878 69 854 89 q 933 48 900 48 l 934 48 q 988 68 966 48 q 1012 119 1012 90 l 1012 656 z "},"⓲":{"ha":1316,"x_min":68,"x_max":1249,"o":"m 659 978 q 1076 805 903 978 q 1249 387 1249 633 q 1076 -30 1249 142 q 659 -203 903 -203 q 240 -30 413 -203 q 68 387 68 142 q 240 805 68 633 q 659 978 413 978 m 509 656 q 487 706 509 685 q 431 727 463 727 l 304 727 q 250 706 273 727 q 227 656 227 685 l 227 655 q 250 604 227 626 q 304 585 273 585 l 352 585 l 352 119 q 376 68 352 90 q 430 48 397 48 l 431 48 q 486 68 463 48 q 509 119 509 90 l 509 656 m 765 727 q 612 669 674 727 q 547 526 547 609 q 590 399 547 433 q 536 258 536 362 q 605 109 536 172 q 765 48 670 48 l 831 48 q 994 110 927 48 q 1060 258 1060 172 q 1007 399 1060 361 q 1050 526 1050 433 q 986 668 1050 609 q 831 727 922 727 l 765 727 m 765 191 q 715 210 736 191 q 694 258 694 230 q 713 305 694 286 q 765 326 736 326 l 831 326 q 881 307 861 326 q 903 258 903 286 q 883 212 903 230 q 831 191 861 191 l 765 191 m 765 469 q 722 485 741 469 q 704 526 704 502 q 722 568 704 551 q 765 585 741 585 l 831 585 q 874 568 856 585 q 892 526 892 551 q 875 485 892 502 q 831 469 857 469 l 765 469 z "},"⓳":{"ha":1316,"x_min":68,"x_max":1249,"o":"m 659 978 q 1076 805 903 978 q 1249 387 1249 633 q 1076 -30 1249 142 q 659 -203 903 -203 q 240 -30 413 -203 q 68 387 68 142 q 240 805 68 633 q 659 978 413 978 m 516 656 q 494 706 516 685 q 438 727 470 727 l 311 727 q 256 706 280 727 q 233 656 233 685 l 233 655 q 256 604 233 626 q 311 585 280 585 l 359 585 l 359 119 q 383 68 359 90 q 437 48 404 48 l 438 48 q 492 68 470 48 q 516 119 516 90 l 516 656 m 772 450 q 720 470 743 450 q 701 517 701 488 q 720 564 701 545 q 772 585 743 585 l 830 585 q 881 564 859 585 q 901 517 901 545 l 901 450 l 772 450 m 772 727 q 610 665 677 727 q 543 517 543 604 q 612 368 543 431 q 772 307 677 307 l 901 307 l 901 258 q 880 210 901 230 q 830 191 859 191 l 657 191 q 601 170 624 191 q 579 120 579 149 l 579 119 q 602 68 579 90 q 657 48 624 48 l 830 48 q 991 109 925 48 q 1059 258 1059 172 l 1059 517 q 992 665 1059 604 q 830 727 925 727 l 772 727 z "},"⓴":{"ha":1316,"x_min":68,"x_max":1249,"o":"m 659 978 q 1076 805 903 978 q 1249 387 1249 633 q 1076 -30 1249 142 q 659 -203 903 -203 q 240 -30 413 -203 q 68 387 68 142 q 240 805 68 633 q 659 978 413 978 m 271 727 q 216 706 238 727 q 193 656 193 685 l 193 655 q 216 605 193 626 q 271 585 239 585 l 448 585 q 492 568 473 585 q 510 526 510 551 q 471 469 510 500 q 357 400 455 458 q 233 307 273 351 q 171 157 171 240 l 171 119 q 194 69 171 89 q 249 48 216 48 l 593 48 q 649 69 627 48 q 672 119 672 89 l 672 120 q 650 170 672 149 q 593 191 627 191 l 332 191 q 373 239 332 201 q 482 310 401 264 q 605 393 569 360 q 667 526 667 452 q 602 669 667 609 q 448 727 540 727 l 271 727 m 934 727 q 750 657 825 727 q 672 487 672 585 l 672 288 q 750 117 672 189 q 934 47 825 47 q 1118 117 1042 47 q 1196 288 1196 189 l 1196 487 q 1118 657 1196 585 q 934 727 1042 727 m 934 582 q 1008 552 976 582 q 1038 484 1038 525 l 1038 291 q 1008 222 1038 250 q 934 193 976 193 q 860 221 891 193 q 829 291 829 250 l 829 484 q 860 553 829 525 q 934 582 891 582 z "},"⓵":{"ha":1276,"x_min":66,"x_max":1251,"o":"m 696 79 q 686 58 696 68 q 659 50 675 50 l 657 50 q 631 58 641 50 q 620 79 620 68 l 620 586 l 532 586 q 504 596 515 586 q 494 616 494 604 l 494 616 q 504 637 494 628 q 532 647 515 647 l 659 647 q 687 637 675 647 q 696 616 696 628 l 696 79 m 659 948 q 1055 784 891 948 q 1219 387 1219 621 q 1055 -9 1219 155 q 659 -173 891 -173 q 261 -9 425 -173 q 98 387 98 155 q 261 784 98 621 q 659 948 425 948 m 659 979 q 240 806 413 979 q 66 387 66 633 q 240 -31 66 142 q 659 -205 413 -205 q 1077 -31 903 -205 q 1251 387 1251 142 q 1077 806 1251 633 q 659 979 903 979 m 659 879 q 1006 735 862 879 q 1149 387 1149 591 q 1006 40 1149 184 q 659 -104 862 -104 q 311 40 454 -104 q 167 387 167 184 q 311 735 167 591 q 659 879 454 879 m 659 911 q 288 758 441 911 q 135 387 135 604 q 288 18 135 171 q 659 -136 441 -136 q 1028 18 875 -136 q 1181 387 1181 171 q 1028 758 1181 604 q 659 911 875 911 z "},"⓶":{"ha":1276,"x_min":66,"x_max":1251,"o":"m 665 670 q 792 623 741 670 q 844 510 844 575 q 793 407 844 454 q 679 329 762 376 q 563 252 593 280 q 508 134 508 202 l 810 134 q 838 123 827 134 q 848 104 848 115 l 848 102 q 839 83 848 92 q 810 73 827 73 l 466 73 q 438 83 450 73 q 429 102 429 92 l 429 141 q 479 263 429 208 q 595 349 516 302 q 712 420 694 408 q 768 510 768 463 q 736 581 768 552 q 665 609 707 609 l 488 609 q 460 618 471 609 q 450 639 450 627 l 450 640 q 460 660 450 651 q 488 670 471 670 l 665 670 m 659 948 q 1055 784 891 948 q 1219 387 1219 621 q 1055 -9 1219 155 q 659 -173 891 -173 q 261 -9 425 -173 q 98 387 98 155 q 261 784 98 621 q 659 948 425 948 m 659 979 q 240 806 413 979 q 66 387 66 633 q 240 -31 66 142 q 659 -205 413 -205 q 1077 -31 903 -205 q 1251 387 1251 142 q 1077 806 1251 633 q 659 979 903 979 m 659 879 q 1006 735 862 879 q 1149 387 1149 591 q 1006 40 1149 184 q 659 -104 862 -104 q 311 40 454 -104 q 167 387 167 184 q 311 735 167 591 q 659 879 454 879 m 659 911 q 288 758 441 911 q 135 387 135 604 q 288 18 135 171 q 659 -136 441 -136 q 1028 18 875 -136 q 1181 387 1181 171 q 1028 758 1181 604 q 659 911 875 911 z "},"⓷":{"ha":1276,"x_min":66,"x_max":1251,"o":"m 656 656 q 784 608 730 656 q 834 496 834 562 q 764 368 834 423 q 844 229 844 311 q 789 109 844 159 q 656 59 735 59 l 532 59 q 505 69 516 59 q 495 89 495 78 l 495 90 q 507 111 495 101 q 532 121 516 121 l 656 121 q 734 151 701 121 q 768 229 768 182 q 734 307 768 275 q 656 336 701 336 l 552 336 q 526 346 535 336 q 515 367 515 355 l 515 368 q 524 387 515 378 q 552 397 535 397 l 656 398 q 726 425 697 398 q 758 496 758 454 q 727 568 758 538 q 656 595 697 595 l 532 595 q 505 606 516 595 q 495 625 495 614 l 495 626 q 505 646 495 637 q 532 656 516 656 l 656 656 m 659 948 q 1055 784 891 948 q 1219 387 1219 621 q 1055 -9 1219 155 q 659 -173 891 -173 q 261 -9 425 -173 q 98 387 98 155 q 261 784 98 621 q 659 948 425 948 m 659 979 q 240 806 413 979 q 66 387 66 633 q 240 -31 66 142 q 659 -205 413 -205 q 1077 -31 903 -205 q 1251 387 1251 142 q 1077 806 1251 633 q 659 979 903 979 m 659 879 q 1006 735 862 879 q 1149 387 1149 591 q 1006 40 1149 184 q 659 -104 862 -104 q 311 40 454 -104 q 167 387 167 184 q 311 735 167 591 q 659 879 454 879 m 659 911 q 288 758 441 911 q 135 387 135 604 q 288 18 135 171 q 659 -136 441 -136 q 1028 18 875 -136 q 1181 387 1181 171 q 1028 758 1181 604 q 659 911 875 911 z "},"⓸":{"ha":1276,"x_min":66,"x_max":1251,"o":"m 606 641 q 640 658 616 658 l 705 658 q 734 648 722 658 q 743 627 743 639 l 743 240 l 810 240 q 838 229 826 240 q 847 210 847 220 l 847 208 q 837 187 847 197 q 810 178 827 178 l 743 178 l 743 90 q 734 71 743 79 q 705 60 722 60 l 705 60 q 676 71 688 60 q 667 90 667 79 l 667 178 l 405 178 q 377 189 389 178 q 368 208 368 197 l 368 237 q 371 250 368 244 l 606 641 m 667 240 l 667 603 l 450 240 l 667 240 m 659 948 q 1055 784 891 948 q 1219 387 1219 621 q 1055 -9 1219 155 q 659 -173 891 -173 q 261 -9 425 -173 q 98 387 98 155 q 261 784 98 621 q 659 948 425 948 m 659 979 q 240 806 413 979 q 66 387 66 633 q 240 -31 66 142 q 659 -205 413 -205 q 1077 -31 903 -205 q 1251 387 1251 142 q 1077 806 1251 633 q 659 979 903 979 m 659 879 q 1006 735 862 879 q 1149 387 1149 591 q 1006 40 1149 184 q 659 -104 862 -104 q 311 40 454 -104 q 167 387 167 184 q 311 735 167 591 q 659 879 454 879 m 659 911 q 288 758 441 911 q 135 387 135 604 q 288 18 135 171 q 659 -136 441 -136 q 1028 18 875 -136 q 1181 387 1181 171 q 1028 758 1181 604 q 659 911 875 911 z "},"⓹":{"ha":1276,"x_min":66,"x_max":1251,"o":"m 490 333 q 463 343 474 333 q 453 363 453 352 l 453 623 q 463 643 453 634 q 490 653 474 653 l 760 653 q 787 643 776 653 q 797 623 797 634 l 797 622 q 787 602 797 610 q 760 592 776 592 l 529 592 l 529 394 l 667 394 q 802 343 745 394 q 855 225 855 294 q 800 105 855 156 q 667 56 745 56 l 490 56 q 463 66 474 56 q 453 85 453 75 l 453 87 q 465 108 453 98 q 490 117 474 117 l 667 117 q 744 147 712 117 q 779 225 779 179 q 744 303 779 271 q 667 333 712 333 l 490 333 m 659 948 q 1055 784 891 948 q 1219 387 1219 621 q 1055 -9 1219 155 q 659 -173 891 -173 q 261 -9 425 -173 q 98 387 98 155 q 261 784 98 621 q 659 948 425 948 m 659 979 q 240 806 413 979 q 66 387 66 633 q 240 -31 66 142 q 659 -205 413 -205 q 1077 -31 903 -205 q 1251 387 1251 142 q 1077 806 1251 633 q 659 979 903 979 m 659 879 q 1006 735 862 879 q 1149 387 1149 591 q 1006 40 1149 184 q 659 -104 862 -104 q 311 40 454 -104 q 167 387 167 184 q 311 735 167 591 q 659 879 454 879 m 659 911 q 288 758 441 911 q 135 387 135 604 q 288 18 135 171 q 659 -136 441 -136 q 1028 18 875 -136 q 1181 387 1181 171 q 1028 758 1181 604 q 659 911 875 911 z "},"⓺":{"ha":1276,"x_min":66,"x_max":1251,"o":"m 500 341 l 500 233 q 535 155 500 187 q 612 125 568 125 l 671 125 q 748 155 716 125 q 783 233 783 187 q 748 311 783 279 q 671 341 716 341 l 500 341 m 612 64 q 479 113 534 64 q 425 233 425 164 l 425 492 q 478 610 425 561 q 612 661 534 661 l 747 661 q 776 651 764 661 q 785 631 785 642 l 785 630 q 776 610 785 618 q 747 600 764 600 l 612 600 q 534 568 568 600 q 500 492 500 538 l 500 402 l 671 402 q 806 351 749 402 q 859 233 859 302 q 804 113 859 164 q 671 64 749 64 l 612 64 m 659 948 q 1055 784 891 948 q 1219 387 1219 621 q 1055 -9 1219 155 q 659 -173 891 -173 q 261 -9 425 -173 q 98 387 98 155 q 261 784 98 621 q 659 948 425 948 m 659 979 q 240 806 413 979 q 66 387 66 633 q 240 -31 66 142 q 659 -205 413 -205 q 1077 -31 903 -205 q 1251 387 1251 142 q 1077 806 1251 633 q 659 979 903 979 m 659 879 q 1006 735 862 879 q 1149 387 1149 591 q 1006 40 1149 184 q 659 -104 862 -104 q 311 40 454 -104 q 167 387 167 184 q 311 735 167 591 q 659 879 454 879 m 659 911 q 288 758 441 911 q 135 387 135 604 q 288 18 135 171 q 659 -136 441 -136 q 1028 18 875 -136 q 1181 387 1181 171 q 1028 758 1181 604 q 659 911 875 911 z "},"⓻":{"ha":1276,"x_min":66,"x_max":1251,"o":"m 754 73 q 744 52 754 62 q 717 43 734 43 l 716 43 q 688 54 699 43 q 678 73 678 62 l 678 580 l 418 580 q 390 590 401 580 q 380 610 380 598 l 380 610 q 390 631 380 622 q 418 641 401 641 l 717 641 q 745 631 734 641 q 754 610 754 622 l 754 73 m 659 948 q 1055 784 891 948 q 1219 387 1219 621 q 1055 -9 1219 155 q 659 -173 891 -173 q 261 -9 425 -173 q 98 387 98 155 q 261 784 98 621 q 659 948 425 948 m 659 979 q 240 806 413 979 q 66 387 66 633 q 240 -31 66 142 q 659 -205 413 -205 q 1077 -31 903 -205 q 1251 387 1251 142 q 1077 806 1251 633 q 659 979 903 979 m 659 879 q 1006 735 862 879 q 1149 387 1149 591 q 1006 40 1149 184 q 659 -104 862 -104 q 311 40 454 -104 q 167 387 167 184 q 311 735 167 591 q 659 879 454 879 m 659 911 q 288 758 441 911 q 135 387 135 604 q 288 18 135 171 q 659 -136 441 -136 q 1028 18 875 -136 q 1181 387 1181 171 q 1028 758 1181 604 q 659 911 875 911 z "},"⓼":{"ha":1276,"x_min":66,"x_max":1251,"o":"m 663 656 q 790 608 737 656 q 841 496 841 561 q 770 368 841 422 q 850 228 850 311 q 798 109 850 159 q 663 58 742 58 l 596 58 q 463 108 517 58 q 408 228 408 159 q 489 368 408 310 q 418 496 418 422 q 470 609 418 561 q 596 656 522 656 l 663 656 m 663 120 q 741 151 708 120 q 774 228 774 182 q 741 306 774 273 q 663 336 708 336 l 596 336 q 517 304 551 336 q 484 228 484 273 q 519 150 484 182 q 596 120 551 120 l 663 120 m 663 397 q 733 425 704 397 q 764 496 764 454 q 732 567 764 538 q 663 595 703 595 l 596 595 q 526 567 555 595 q 494 496 494 538 q 526 425 494 454 q 596 397 555 397 l 663 397 m 659 948 q 1055 784 891 948 q 1219 387 1219 621 q 1055 -9 1219 155 q 659 -173 891 -173 q 261 -9 425 -173 q 98 387 98 155 q 261 784 98 621 q 659 948 425 948 m 659 979 q 240 806 413 979 q 66 387 66 633 q 240 -31 66 142 q 659 -205 413 -205 q 1077 -31 903 -205 q 1251 387 1251 142 q 1077 806 1251 633 q 659 979 903 979 m 659 879 q 1006 735 862 879 q 1149 387 1149 591 q 1006 40 1149 184 q 659 -104 862 -104 q 311 40 454 -104 q 167 387 167 184 q 311 735 167 591 q 659 879 454 879 m 659 911 q 288 758 441 911 q 135 387 135 604 q 288 18 135 171 q 659 -136 441 -136 q 1028 18 875 -136 q 1181 387 1181 171 q 1028 758 1181 604 q 659 911 875 911 z "},"⓽":{"ha":1276,"x_min":66,"x_max":1251,"o":"m 774 380 l 774 488 q 741 565 774 534 q 662 597 707 597 l 604 597 q 525 565 559 597 q 492 488 492 534 q 525 412 492 442 q 604 380 559 380 l 774 380 m 662 658 q 797 606 741 658 q 850 488 850 557 l 850 230 q 795 110 850 161 q 662 60 741 60 l 489 60 q 463 69 472 60 q 452 90 452 79 l 452 92 q 461 111 452 102 q 489 122 472 122 l 662 122 q 739 152 707 122 q 774 230 774 184 l 774 319 l 604 319 q 471 369 525 319 q 416 488 416 420 q 469 606 416 557 q 604 658 525 658 l 662 658 m 659 948 q 1055 784 891 948 q 1219 387 1219 621 q 1055 -9 1219 155 q 659 -173 891 -173 q 261 -9 425 -173 q 98 387 98 155 q 261 784 98 621 q 659 948 425 948 m 659 979 q 240 806 413 979 q 66 387 66 633 q 240 -31 66 142 q 659 -205 413 -205 q 1077 -31 903 -205 q 1251 387 1251 142 q 1077 806 1251 633 q 659 979 903 979 m 659 879 q 1006 735 862 879 q 1149 387 1149 591 q 1006 40 1149 184 q 659 -104 862 -104 q 311 40 454 -104 q 167 387 167 184 q 311 735 167 591 q 659 879 454 879 m 659 911 q 288 758 441 911 q 135 387 135 604 q 288 18 135 171 q 659 -136 441 -136 q 1028 18 875 -136 q 1181 387 1181 171 q 1028 758 1181 604 q 659 911 875 911 z "},"⓾":{"ha":1276,"x_min":66,"x_max":1251,"o":"m 494 85 q 484 64 494 75 q 457 56 474 56 l 456 56 q 429 64 439 56 q 418 85 418 75 l 418 592 l 330 592 q 302 602 314 592 q 293 622 293 610 l 293 623 q 302 643 293 634 q 330 653 314 653 l 457 653 q 486 643 474 653 q 494 623 494 634 l 494 85 m 797 653 q 954 594 889 653 q 1018 454 1018 534 l 1018 255 q 954 114 1018 174 q 797 55 889 55 q 640 114 705 55 q 576 255 576 174 l 576 454 q 640 594 576 534 q 797 653 705 653 m 797 589 q 696 550 738 589 q 652 451 652 509 l 652 258 q 696 158 652 199 q 797 119 738 119 q 899 159 855 119 q 942 258 942 199 l 942 451 q 899 549 942 509 q 797 589 855 589 m 659 948 q 1055 784 891 948 q 1219 387 1219 621 q 1055 -9 1219 155 q 659 -173 891 -173 q 261 -9 425 -173 q 98 387 98 155 q 261 784 98 621 q 659 948 425 948 m 659 979 q 240 806 413 979 q 66 387 66 633 q 240 -31 66 142 q 659 -205 413 -205 q 1077 -31 903 -205 q 1251 387 1251 142 q 1077 806 1251 633 q 659 979 903 979 m 659 879 q 1006 735 862 879 q 1149 387 1149 591 q 1006 40 1149 184 q 659 -104 862 -104 q 311 40 454 -104 q 167 387 167 184 q 311 735 167 591 q 659 879 454 879 m 659 911 q 288 758 441 911 q 135 387 135 604 q 288 18 135 171 q 659 -136 441 -136 q 1028 18 875 -136 q 1181 387 1181 171 q 1028 758 1181 604 q 659 911 875 911 z "},"⓿":{"ha":1316,"x_min":68,"x_max":1249,"o":"m 659 978 q 1076 805 903 978 q 1249 387 1249 633 q 1076 -30 1249 142 q 659 -203 903 -203 q 240 -30 413 -203 q 68 387 68 142 q 240 805 68 633 q 659 978 413 978 m 659 727 q 475 657 550 727 q 397 487 397 585 l 397 288 q 475 117 397 189 q 659 47 550 47 q 842 117 767 47 q 920 288 920 189 l 920 487 q 842 657 920 585 q 659 727 767 727 m 659 582 q 733 552 701 582 q 763 484 763 525 l 763 291 q 733 222 763 250 q 659 193 701 193 q 585 221 616 193 q 554 291 554 250 l 554 484 q 585 553 554 525 q 659 582 616 582 z "}}}
